<mxfile host="app.diagrams.net" agent="Mozilla/5.0 (Windows NT 10.0; Win64; x64) AppleWebKit/537.36 (KHTML, like Gecko) Chrome/129.0.0.0 Safari/537.36" version="24.7.17">
  <diagram name="Trang-1" id="GQM9o380WNjzAa4fADyT">
    <mxGraphModel dx="3407" dy="1234" grid="1" gridSize="10" guides="1" tooltips="1" connect="1" arrows="1" fold="1" page="1" pageScale="1" pageWidth="827" pageHeight="1169" math="0" shadow="0">
      <root>
        <mxCell id="0" />
        <mxCell id="1" parent="0" />
        <mxCell id="Jx5W27o9Ek6RV-WZzhhY-84" value="" style="rounded=0;whiteSpace=wrap;html=1;" parent="1" vertex="1">
          <mxGeometry x="185" y="67" width="1418" height="743" as="geometry" />
        </mxCell>
        <mxCell id="Jx5W27o9Ek6RV-WZzhhY-85" value="" style="shape=cylinder3;whiteSpace=wrap;html=1;boundedLbl=1;backgroundOutline=1;size=15;" parent="1" vertex="1">
          <mxGeometry x="1458" y="313.5" width="121" height="119" as="geometry" />
        </mxCell>
        <mxCell id="Jx5W27o9Ek6RV-WZzhhY-86" value="" style="rounded=0;whiteSpace=wrap;html=1;sketch=0;fillColor=none;dashed=1;strokeWidth=2;" parent="1" vertex="1">
          <mxGeometry x="280" y="101.5" width="1133" height="543" as="geometry" />
        </mxCell>
        <mxCell id="Jx5W27o9Ek6RV-WZzhhY-87" value="" style="image;html=1;image=img/lib/clip_art/networking/Email_128x128.png;sketch=0;fontSize=15;fillColor=none;" parent="1" vertex="1">
          <mxGeometry x="1298" y="189" width="52" height="43" as="geometry" />
        </mxCell>
        <mxCell id="Jx5W27o9Ek6RV-WZzhhY-88" value="" style="endArrow=classic;html=1;rounded=0;fontSize=15;endSize=6;strokeWidth=3;strokeColor=#C73500;fillColor=#fa6800;edgeStyle=entityRelationEdgeStyle;flowAnimation=1;entryX=0;entryY=0.5;entryDx=0;entryDy=0;" parent="1" source="Jx5W27o9Ek6RV-WZzhhY-122" target="Jx5W27o9Ek6RV-WZzhhY-138" edge="1">
          <mxGeometry width="50" height="50" relative="1" as="geometry">
            <mxPoint x="277" y="360" as="sourcePoint" />
            <mxPoint x="475.0000000000002" y="171.5" as="targetPoint" />
          </mxGeometry>
        </mxCell>
        <mxCell id="Jx5W27o9Ek6RV-WZzhhY-89" value="/identity" style="edgeLabel;html=1;align=center;verticalAlign=middle;resizable=0;points=[];fontSize=15;" parent="Jx5W27o9Ek6RV-WZzhhY-88" vertex="1" connectable="0">
          <mxGeometry x="-0.5046" y="1" relative="1" as="geometry">
            <mxPoint x="62" y="-38" as="offset" />
          </mxGeometry>
        </mxCell>
        <mxCell id="Jx5W27o9Ek6RV-WZzhhY-90" value="" style="endArrow=classic;html=1;rounded=0;fontSize=15;endSize=6;strokeWidth=3;strokeColor=#C73500;fillColor=#fa6800;edgeStyle=entityRelationEdgeStyle;entryX=0;entryY=0.5;entryDx=0;entryDy=0;flowAnimation=1;" parent="1" source="Jx5W27o9Ek6RV-WZzhhY-122" target="Jx5W27o9Ek6RV-WZzhhY-144" edge="1">
          <mxGeometry width="50" height="50" relative="1" as="geometry">
            <mxPoint x="270.99999999999955" y="363" as="sourcePoint" />
            <mxPoint x="496" y="538.5" as="targetPoint" />
          </mxGeometry>
        </mxCell>
        <mxCell id="Jx5W27o9Ek6RV-WZzhhY-91" value="/rental" style="edgeLabel;html=1;align=center;verticalAlign=middle;resizable=0;points=[];fontSize=15;" parent="Jx5W27o9Ek6RV-WZzhhY-90" vertex="1" connectable="0">
          <mxGeometry x="0.2804" y="-3" relative="1" as="geometry">
            <mxPoint x="-12" y="-25" as="offset" />
          </mxGeometry>
        </mxCell>
        <mxCell id="Jx5W27o9Ek6RV-WZzhhY-92" style="edgeStyle=orthogonalEdgeStyle;rounded=0;orthogonalLoop=1;jettySize=auto;html=1;strokeWidth=3;fillColor=#fa6800;strokeColor=#C73500;flowAnimation=1;entryX=0;entryY=0.5;entryDx=0;entryDy=0;" parent="1" source="Jx5W27o9Ek6RV-WZzhhY-122" target="Jx5W27o9Ek6RV-WZzhhY-140" edge="1">
          <mxGeometry relative="1" as="geometry">
            <mxPoint x="413" y="361" as="targetPoint" />
          </mxGeometry>
        </mxCell>
        <mxCell id="Jx5W27o9Ek6RV-WZzhhY-93" value="/houses" style="edgeLabel;html=1;align=center;verticalAlign=middle;resizable=0;points=[];fontSize=15;" parent="Jx5W27o9Ek6RV-WZzhhY-92" vertex="1" connectable="0">
          <mxGeometry x="0.2865" y="1" relative="1" as="geometry">
            <mxPoint x="-50" y="-1" as="offset" />
          </mxGeometry>
        </mxCell>
        <mxCell id="Jx5W27o9Ek6RV-WZzhhY-94" value="" style="shape=image;verticalLabelPosition=bottom;labelBackgroundColor=default;verticalAlign=top;aspect=fixed;imageAspect=0;image=https://www.opc-router.de/wp-content/uploads/2021/03/mongodb_thumbnail.png;" parent="1" vertex="1">
          <mxGeometry x="1298.0000000000002" y="481.32" width="55.76" height="75" as="geometry" />
        </mxCell>
        <mxCell id="Jx5W27o9Ek6RV-WZzhhY-95" value="" style="shape=image;verticalLabelPosition=bottom;labelBackgroundColor=default;verticalAlign=top;aspect=fixed;imageAspect=0;image=https://avatars.githubusercontent.com/u/11860887?s=280&amp;v=4;" parent="1" vertex="1">
          <mxGeometry x="1487" y="355.5" width="63" height="63" as="geometry" />
        </mxCell>
        <mxCell id="Jx5W27o9Ek6RV-WZzhhY-96" value="" style="shape=image;verticalLabelPosition=bottom;labelBackgroundColor=default;verticalAlign=top;aspect=fixed;imageAspect=0;image=https://static-00.iconduck.com/assets.00/kafka-icon-2048x935-cvu4503l.png;imageBorder=none;perimeterSpacing=0;" parent="1" vertex="1">
          <mxGeometry x="1064" y="284" width="77.75" height="35.5" as="geometry" />
        </mxCell>
        <mxCell id="Jx5W27o9Ek6RV-WZzhhY-97" value="Message Broker" style="shape=cylinder3;whiteSpace=wrap;html=1;boundedLbl=1;backgroundOutline=1;size=15;rotation=90;horizontal=0;verticalAlign=top;" parent="1" vertex="1">
          <mxGeometry x="1091" y="284.5" width="59" height="139" as="geometry" />
        </mxCell>
        <mxCell id="Jx5W27o9Ek6RV-WZzhhY-99" style="rounded=0;orthogonalLoop=1;jettySize=auto;html=1;exitX=0.331;exitY=-0.003;exitDx=0;exitDy=0;exitPerimeter=0;strokeWidth=3;fillColor=#1ba1e2;strokeColor=#006EAF;flowAnimation=1;" parent="1" source="Jx5W27o9Ek6RV-WZzhhY-144" edge="1">
          <mxGeometry relative="1" as="geometry">
            <mxPoint x="587" y="386" as="targetPoint" />
          </mxGeometry>
        </mxCell>
        <mxCell id="Jx5W27o9Ek6RV-WZzhhY-100" style="edgeStyle=entityRelationEdgeStyle;rounded=0;orthogonalLoop=1;jettySize=auto;html=1;entryX=0;entryY=0.5;entryDx=0;entryDy=0;exitX=1;exitY=0.25;exitDx=0;exitDy=0;fillColor=#1ba1e2;strokeColor=#006EAF;strokeWidth=3;flowAnimation=1;" parent="1" source="Jx5W27o9Ek6RV-WZzhhY-144" target="Jx5W27o9Ek6RV-WZzhhY-142" edge="1">
          <mxGeometry relative="1" as="geometry" />
        </mxCell>
        <mxCell id="Jx5W27o9Ek6RV-WZzhhY-101" style="rounded=0;orthogonalLoop=1;jettySize=auto;html=1;entryX=0.5;entryY=1;entryDx=0;entryDy=0;entryPerimeter=0;fillColor=#60a917;strokeColor=#2D7600;strokeWidth=3;flowAnimation=1;" parent="1" source="Jx5W27o9Ek6RV-WZzhhY-142" target="Jx5W27o9Ek6RV-WZzhhY-97" edge="1">
          <mxGeometry relative="1" as="geometry" />
        </mxCell>
        <mxCell id="Jx5W27o9Ek6RV-WZzhhY-102" style="rounded=0;orthogonalLoop=1;jettySize=auto;html=1;exitX=0.75;exitY=0;exitDx=0;exitDy=0;entryX=0.75;entryY=1;entryDx=0;entryDy=0;strokeWidth=3;fillColor=#1ba1e2;strokeColor=#006EAF;flowAnimation=1;" parent="1" source="Jx5W27o9Ek6RV-WZzhhY-144" target="Jx5W27o9Ek6RV-WZzhhY-138" edge="1">
          <mxGeometry relative="1" as="geometry" />
        </mxCell>
        <mxCell id="Jx5W27o9Ek6RV-WZzhhY-103" style="edgeStyle=orthogonalEdgeStyle;rounded=0;orthogonalLoop=1;jettySize=auto;html=1;entryX=0.5;entryY=0;entryDx=0;entryDy=0;entryPerimeter=0;fillColor=#60a917;strokeColor=#2D7600;strokeWidth=3;flowAnimation=1;" parent="1" source="Jx5W27o9Ek6RV-WZzhhY-146" target="Jx5W27o9Ek6RV-WZzhhY-97" edge="1">
          <mxGeometry relative="1" as="geometry" />
        </mxCell>
        <mxCell id="Jx5W27o9Ek6RV-WZzhhY-104" value="" style="shape=image;verticalLabelPosition=bottom;labelBackgroundColor=default;verticalAlign=top;aspect=fixed;imageAspect=0;image=https://cdn-icons-png.flaticon.com/512/25/25231.png;" parent="1" vertex="1">
          <mxGeometry x="1096.76" y="775.25" width="29" height="29" as="geometry" />
        </mxCell>
        <mxCell id="Jx5W27o9Ek6RV-WZzhhY-105" value="" style="sketch=0;aspect=fixed;pointerEvents=1;shadow=0;dashed=0;html=1;strokeColor=none;labelPosition=center;verticalLabelPosition=bottom;verticalAlign=top;align=center;fillColor=#00188D;shape=mxgraph.azure.code_file" parent="1" vertex="1">
          <mxGeometry x="1139.98" y="773" width="31.26" height="33.25" as="geometry" />
        </mxCell>
        <mxCell id="Jx5W27o9Ek6RV-WZzhhY-106" value="" style="group" parent="1" vertex="1" connectable="0">
          <mxGeometry x="795.94" y="223" width="50.120000000000005" height="57.64852490606316" as="geometry" />
        </mxCell>
        <mxCell id="Jx5W27o9Ek6RV-WZzhhY-107" value="" style="shape=image;verticalLabelPosition=bottom;labelBackgroundColor=default;verticalAlign=top;aspect=fixed;imageAspect=0;image=https://upload.wikimedia.org/wikipedia/commons/thumb/b/ba/Database-postgres.svg/1448px-Database-postgres.svg.png;container=0;" parent="Jx5W27o9Ek6RV-WZzhhY-106" vertex="1">
          <mxGeometry x="13.99735211811253" width="36.12264788188748" height="51.04120428447361" as="geometry" />
        </mxCell>
        <mxCell id="Jx5W27o9Ek6RV-WZzhhY-108" value="" style="sketch=0;aspect=fixed;html=1;points=[];align=center;image;fontSize=12;image=img/lib/mscae/Docker.svg;fillColor=none;container=0;" parent="Jx5W27o9Ek6RV-WZzhhY-106" vertex="1">
          <mxGeometry y="36.67969348659003" width="25.571745633503813" height="20.968831419473126" as="geometry" />
        </mxCell>
        <mxCell id="Jx5W27o9Ek6RV-WZzhhY-109" value="" style="group" parent="1" vertex="1" connectable="0">
          <mxGeometry x="527.94" y="236" width="50.120000000000005" height="57.64852490606316" as="geometry" />
        </mxCell>
        <mxCell id="Jx5W27o9Ek6RV-WZzhhY-110" value="" style="shape=image;verticalLabelPosition=bottom;labelBackgroundColor=default;verticalAlign=top;aspect=fixed;imageAspect=0;image=https://upload.wikimedia.org/wikipedia/commons/thumb/b/ba/Database-postgres.svg/1448px-Database-postgres.svg.png;container=0;" parent="Jx5W27o9Ek6RV-WZzhhY-109" vertex="1">
          <mxGeometry x="15.99735211811253" width="36.12264788188748" height="51.04120428447361" as="geometry" />
        </mxCell>
        <mxCell id="Jx5W27o9Ek6RV-WZzhhY-111" value="" style="sketch=0;aspect=fixed;html=1;points=[];align=center;image;fontSize=12;image=img/lib/mscae/Docker.svg;fillColor=none;container=0;" parent="Jx5W27o9Ek6RV-WZzhhY-109" vertex="1">
          <mxGeometry y="36.67969348659003" width="25.571745633503813" height="20.968831419473126" as="geometry" />
        </mxCell>
        <mxCell id="Jx5W27o9Ek6RV-WZzhhY-113" style="edgeStyle=orthogonalEdgeStyle;rounded=0;orthogonalLoop=1;jettySize=auto;html=1;shape=link;flowAnimation=1;" parent="1" source="Jx5W27o9Ek6RV-WZzhhY-142" target="Jx5W27o9Ek6RV-WZzhhY-107" edge="1">
          <mxGeometry relative="1" as="geometry" />
        </mxCell>
        <mxCell id="Jx5W27o9Ek6RV-WZzhhY-114" value="" style="group" parent="1" vertex="1" connectable="0">
          <mxGeometry x="500" y="490" width="50.120000000000005" height="57.64852490606316" as="geometry" />
        </mxCell>
        <mxCell id="Jx5W27o9Ek6RV-WZzhhY-115" value="" style="shape=image;verticalLabelPosition=bottom;labelBackgroundColor=default;verticalAlign=top;aspect=fixed;imageAspect=0;image=https://upload.wikimedia.org/wikipedia/commons/thumb/b/ba/Database-postgres.svg/1448px-Database-postgres.svg.png;container=0;" parent="Jx5W27o9Ek6RV-WZzhhY-114" vertex="1">
          <mxGeometry x="13.99735211811253" width="36.12264788188748" height="51.04120428447361" as="geometry" />
        </mxCell>
        <mxCell id="Jx5W27o9Ek6RV-WZzhhY-116" value="" style="sketch=0;aspect=fixed;html=1;points=[];align=center;image;fontSize=12;image=img/lib/mscae/Docker.svg;fillColor=none;container=0;" parent="Jx5W27o9Ek6RV-WZzhhY-114" vertex="1">
          <mxGeometry y="36.67969348659003" width="25.571745633503813" height="20.968831419473126" as="geometry" />
        </mxCell>
        <mxCell id="Jx5W27o9Ek6RV-WZzhhY-117" style="edgeStyle=orthogonalEdgeStyle;rounded=0;orthogonalLoop=1;jettySize=auto;html=1;shape=link;flowAnimation=1;exitX=0.5;exitY=1;exitDx=0;exitDy=0;" parent="Jx5W27o9Ek6RV-WZzhhY-114" source="Jx5W27o9Ek6RV-WZzhhY-144" edge="1">
          <mxGeometry relative="1" as="geometry">
            <mxPoint x="-206.10000000000002" y="45.07000000000005" as="sourcePoint" />
            <mxPoint x="50" y="38" as="targetPoint" />
            <Array as="points">
              <mxPoint x="109" y="38" />
            </Array>
          </mxGeometry>
        </mxCell>
        <mxCell id="Jx5W27o9Ek6RV-WZzhhY-118" style="edgeStyle=orthogonalEdgeStyle;rounded=0;orthogonalLoop=1;jettySize=auto;html=1;entryX=0.25;entryY=1;entryDx=0;entryDy=0;shape=link;flowAnimation=1;" parent="1" source="Jx5W27o9Ek6RV-WZzhhY-140" target="Jx5W27o9Ek6RV-WZzhhY-110" edge="1">
          <mxGeometry relative="1" as="geometry" />
        </mxCell>
        <mxCell id="Jx5W27o9Ek6RV-WZzhhY-119" style="edgeStyle=orthogonalEdgeStyle;rounded=0;orthogonalLoop=1;jettySize=auto;html=1;entryX=0.5;entryY=1;entryDx=0;entryDy=0;shape=link;flowAnimation=1;exitX=0.5;exitY=0;exitDx=0;exitDy=0;" parent="1" source="Jx5W27o9Ek6RV-WZzhhY-146" target="Jx5W27o9Ek6RV-WZzhhY-87" edge="1">
          <mxGeometry relative="1" as="geometry">
            <Array as="points">
              <mxPoint x="1320" y="330" />
              <mxPoint x="1320" y="232" />
            </Array>
          </mxGeometry>
        </mxCell>
        <mxCell id="Jx5W27o9Ek6RV-WZzhhY-120" style="edgeStyle=orthogonalEdgeStyle;rounded=0;orthogonalLoop=1;jettySize=auto;html=1;entryX=0;entryY=0.5;entryDx=0;entryDy=0;entryPerimeter=0;strokeWidth=3;fillColor=#a20025;strokeColor=#6F0000;flowAnimation=1;" parent="1" source="Jx5W27o9Ek6RV-WZzhhY-86" target="Jx5W27o9Ek6RV-WZzhhY-85" edge="1">
          <mxGeometry relative="1" as="geometry" />
        </mxCell>
        <mxCell id="Jx5W27o9Ek6RV-WZzhhY-121" value="Distributed Tracing" style="text;html=1;align=center;verticalAlign=middle;resizable=0;points=[];autosize=1;strokeColor=none;fillColor=none;fontStyle=1;fontSize=15;" parent="1" vertex="1">
          <mxGeometry x="1441" y="453" width="155" height="30" as="geometry" />
        </mxCell>
        <mxCell id="Jx5W27o9Ek6RV-WZzhhY-122" value="&lt;b&gt;Gateway&lt;/b&gt;" style="sketch=0;outlineConnect=0;dashed=0;verticalLabelPosition=bottom;verticalAlign=top;align=center;html=1;fontSize=12;fontStyle=0;aspect=fixed;pointerEvents=1;shape=mxgraph.aws4.gateway_load_balancer;labelBackgroundColor=none;labelBorderColor=none;fillColor=#1ba1e2;strokeColor=default;" parent="1" vertex="1">
          <mxGeometry x="100" y="324.5" width="73" height="73" as="geometry" />
        </mxCell>
        <mxCell id="Jx5W27o9Ek6RV-WZzhhY-123" style="edgeStyle=orthogonalEdgeStyle;rounded=0;orthogonalLoop=1;jettySize=auto;html=1;shape=link;flowAnimation=1;entryX=0.75;entryY=0;entryDx=0;entryDy=0;" parent="1" source="Jx5W27o9Ek6RV-WZzhhY-146" target="Jx5W27o9Ek6RV-WZzhhY-94" edge="1">
          <mxGeometry relative="1" as="geometry">
            <Array as="points">
              <mxPoint x="1324" y="430" />
              <mxPoint x="1340" y="430" />
            </Array>
          </mxGeometry>
        </mxCell>
        <mxCell id="Jx5W27o9Ek6RV-WZzhhY-125" value="Async&lt;br&gt;Send Payment confirmation" style="text;html=1;align=center;verticalAlign=middle;resizable=0;points=[];autosize=1;strokeColor=none;fillColor=none;" parent="1" vertex="1">
          <mxGeometry x="886" y="310" width="165" height="41" as="geometry" />
        </mxCell>
        <mxCell id="Jx5W27o9Ek6RV-WZzhhY-126" value="Public network" style="text;html=1;align=center;verticalAlign=middle;resizable=0;points=[];autosize=1;strokeColor=none;fillColor=none;fontStyle=1" parent="1" vertex="1">
          <mxGeometry x="70" y="130" width="103" height="26" as="geometry" />
        </mxCell>
        <mxCell id="Jx5W27o9Ek6RV-WZzhhY-127" value="Private network" style="text;html=1;align=center;verticalAlign=middle;resizable=0;points=[];autosize=1;strokeColor=none;fillColor=none;fontStyle=1" parent="1" vertex="1">
          <mxGeometry x="185" y="67" width="107" height="26" as="geometry" />
        </mxCell>
        <mxCell id="Jx5W27o9Ek6RV-WZzhhY-128" style="edgeStyle=orthogonalEdgeStyle;rounded=0;orthogonalLoop=1;jettySize=auto;html=1;entryX=0.75;entryY=1;entryDx=0;entryDy=0;flowAnimation=1;startArrow=none;startFill=0;endArrow=block;endFill=1;" parent="1" source="Jx5W27o9Ek6RV-WZzhhY-150" target="Jx5W27o9Ek6RV-WZzhhY-86" edge="1">
          <mxGeometry relative="1" as="geometry" />
        </mxCell>
        <mxCell id="Jx5W27o9Ek6RV-WZzhhY-129" style="edgeStyle=orthogonalEdgeStyle;rounded=0;orthogonalLoop=1;jettySize=auto;html=1;entryX=0.25;entryY=1;entryDx=0;entryDy=0;flowAnimation=1;startArrow=block;startFill=1;endArrow=none;endFill=0;" parent="1" source="Jx5W27o9Ek6RV-WZzhhY-148" target="Jx5W27o9Ek6RV-WZzhhY-86" edge="1">
          <mxGeometry relative="1" as="geometry" />
        </mxCell>
        <mxCell id="Jx5W27o9Ek6RV-WZzhhY-130" value="" style="shape=message;html=1;html=1;outlineConnect=0;labelPosition=center;verticalLabelPosition=bottom;align=center;verticalAlign=top;container=0;" parent="1" vertex="1">
          <mxGeometry x="1073" y="354" width="23" height="13.5" as="geometry" />
        </mxCell>
        <mxCell id="Jx5W27o9Ek6RV-WZzhhY-131" value="" style="shape=message;html=1;html=1;outlineConnect=0;labelPosition=center;verticalLabelPosition=bottom;align=center;verticalAlign=top;container=0;" parent="1" vertex="1">
          <mxGeometry x="1099" y="354" width="23" height="13.5" as="geometry" />
        </mxCell>
        <mxCell id="Jx5W27o9Ek6RV-WZzhhY-132" value="" style="shape=message;html=1;html=1;outlineConnect=0;labelPosition=center;verticalLabelPosition=bottom;align=center;verticalAlign=top;container=0;" parent="1" vertex="1">
          <mxGeometry x="1126" y="354" width="23" height="13.5" as="geometry" />
        </mxCell>
        <mxCell id="Jx5W27o9Ek6RV-WZzhhY-133" style="edgeStyle=orthogonalEdgeStyle;rounded=0;orthogonalLoop=1;jettySize=auto;html=1;flowAnimation=1;" parent="1" source="Jx5W27o9Ek6RV-WZzhhY-150" target="Jx5W27o9Ek6RV-WZzhhY-148" edge="1">
          <mxGeometry relative="1" as="geometry" />
        </mxCell>
        <mxCell id="Jx5W27o9Ek6RV-WZzhhY-134" style="edgeStyle=orthogonalEdgeStyle;rounded=0;orthogonalLoop=1;jettySize=auto;html=1;flowAnimation=1;exitX=1;exitY=0.5;exitDx=0;exitDy=0;" parent="1" source="HsBqYYypXnQ4gRw45o31-1" target="Jx5W27o9Ek6RV-WZzhhY-122" edge="1">
          <mxGeometry relative="1" as="geometry">
            <mxPoint x="52.5" y="361" as="sourcePoint" />
            <Array as="points" />
          </mxGeometry>
        </mxCell>
        <mxCell id="Jx5W27o9Ek6RV-WZzhhY-138" value="Identity" style="rounded=1;whiteSpace=wrap;html=1;" parent="1" vertex="1">
          <mxGeometry x="549" y="150" width="120" height="39" as="geometry" />
        </mxCell>
        <mxCell id="Jx5W27o9Ek6RV-WZzhhY-139" value="" style="shape=image;verticalLabelPosition=bottom;labelBackgroundColor=default;verticalAlign=top;aspect=fixed;imageAspect=0;image=https://images.ctfassets.net/gt6dp23g0g38/5DqlQtFKecFlkqQ8YGDT2p/aa945b648f44dd872e9a1b89f7d203ef/springboot.png;" parent="1" vertex="1">
          <mxGeometry x="553" y="152.6" width="19.538999999999998" height="17.55" as="geometry" />
        </mxCell>
        <mxCell id="Jx5W27o9Ek6RV-WZzhhY-140" value="House" style="rounded=1;whiteSpace=wrap;html=1;" parent="1" vertex="1">
          <mxGeometry x="493" y="340.5" width="120" height="41" as="geometry" />
        </mxCell>
        <mxCell id="Jx5W27o9Ek6RV-WZzhhY-141" value="" style="shape=image;verticalLabelPosition=bottom;labelBackgroundColor=default;verticalAlign=top;aspect=fixed;imageAspect=0;image=https://images.ctfassets.net/gt6dp23g0g38/5DqlQtFKecFlkqQ8YGDT2p/aa945b648f44dd872e9a1b89f7d203ef/springboot.png;" parent="1" vertex="1">
          <mxGeometry x="497" y="343.23333333333335" width="20.541" height="18.45" as="geometry" />
        </mxCell>
        <mxCell id="Jx5W27o9Ek6RV-WZzhhY-142" value="Payment" style="rounded=1;whiteSpace=wrap;html=1;" parent="1" vertex="1">
          <mxGeometry x="768" y="334" width="120" height="40" as="geometry" />
        </mxCell>
        <mxCell id="Jx5W27o9Ek6RV-WZzhhY-143" value="" style="shape=image;verticalLabelPosition=bottom;labelBackgroundColor=default;verticalAlign=top;aspect=fixed;imageAspect=0;image=https://images.ctfassets.net/gt6dp23g0g38/5DqlQtFKecFlkqQ8YGDT2p/aa945b648f44dd872e9a1b89f7d203ef/springboot.png;" parent="1" vertex="1">
          <mxGeometry x="772" y="336.6666666666667" width="20.04" height="18.000000000000004" as="geometry" />
        </mxCell>
        <mxCell id="Jx5W27o9Ek6RV-WZzhhY-144" value="Rental" style="rounded=1;whiteSpace=wrap;html=1;" parent="1" vertex="1">
          <mxGeometry x="549" y="447.25" width="120" height="41.5" as="geometry" />
        </mxCell>
        <mxCell id="Jx5W27o9Ek6RV-WZzhhY-145" value="" style="shape=image;verticalLabelPosition=bottom;labelBackgroundColor=default;verticalAlign=top;aspect=fixed;imageAspect=0;image=https://images.ctfassets.net/gt6dp23g0g38/5DqlQtFKecFlkqQ8YGDT2p/aa945b648f44dd872e9a1b89f7d203ef/springboot.png;" parent="1" vertex="1">
          <mxGeometry x="553" y="447.24666666666667" width="20.7915" height="18.675" as="geometry" />
        </mxCell>
        <mxCell id="Jx5W27o9Ek6RV-WZzhhY-146" value="Notification" style="rounded=1;whiteSpace=wrap;html=1;" parent="1" vertex="1">
          <mxGeometry x="1264" y="330.5" width="120" height="47" as="geometry" />
        </mxCell>
        <mxCell id="Jx5W27o9Ek6RV-WZzhhY-147" value="" style="shape=image;verticalLabelPosition=bottom;labelBackgroundColor=default;verticalAlign=top;aspect=fixed;imageAspect=0;image=https://images.ctfassets.net/gt6dp23g0g38/5DqlQtFKecFlkqQ8YGDT2p/aa945b648f44dd872e9a1b89f7d203ef/springboot.png;" parent="1" vertex="1">
          <mxGeometry x="1268" y="333.6333333333333" width="23.546999999999997" height="21.15" as="geometry" />
        </mxCell>
        <mxCell id="Jx5W27o9Ek6RV-WZzhhY-148" value="Eureka server" style="rounded=1;whiteSpace=wrap;html=1;" parent="1" vertex="1">
          <mxGeometry x="502.77" y="713.13" width="120" height="47" as="geometry" />
        </mxCell>
        <mxCell id="Jx5W27o9Ek6RV-WZzhhY-149" value="" style="shape=image;verticalLabelPosition=bottom;labelBackgroundColor=default;verticalAlign=top;aspect=fixed;imageAspect=0;image=https://images.ctfassets.net/gt6dp23g0g38/5DqlQtFKecFlkqQ8YGDT2p/aa945b648f44dd872e9a1b89f7d203ef/springboot.png;" parent="1" vertex="1">
          <mxGeometry x="501" y="716.2633333333333" width="23.546999999999997" height="21.15" as="geometry" />
        </mxCell>
        <mxCell id="Jx5W27o9Ek6RV-WZzhhY-150" value="Config server" style="rounded=1;whiteSpace=wrap;html=1;" parent="1" vertex="1">
          <mxGeometry x="1068" y="713.13" width="120" height="47" as="geometry" />
        </mxCell>
        <mxCell id="Jx5W27o9Ek6RV-WZzhhY-151" value="" style="shape=image;verticalLabelPosition=bottom;labelBackgroundColor=default;verticalAlign=top;aspect=fixed;imageAspect=0;image=https://images.ctfassets.net/gt6dp23g0g38/5DqlQtFKecFlkqQ8YGDT2p/aa945b648f44dd872e9a1b89f7d203ef/springboot.png;" parent="1" vertex="1">
          <mxGeometry x="1068" y="716.2633333333333" width="23.546999999999997" height="21.15" as="geometry" />
        </mxCell>
        <mxCell id="mFckDLMdOMnbUKS1tV6z-9" value="" style="group" parent="1" vertex="1" connectable="0">
          <mxGeometry x="440.00000000000006" y="100" width="50.120000000000005" height="57.64852490606316" as="geometry" />
        </mxCell>
        <mxCell id="mFckDLMdOMnbUKS1tV6z-10" value="" style="shape=image;verticalLabelPosition=bottom;labelBackgroundColor=default;verticalAlign=top;aspect=fixed;imageAspect=0;image=https://upload.wikimedia.org/wikipedia/commons/thumb/b/ba/Database-postgres.svg/1448px-Database-postgres.svg.png;container=0;" parent="mFckDLMdOMnbUKS1tV6z-9" vertex="1">
          <mxGeometry x="13.99735211811253" width="36.12264788188748" height="51.04120428447361" as="geometry" />
        </mxCell>
        <mxCell id="mFckDLMdOMnbUKS1tV6z-11" value="" style="sketch=0;aspect=fixed;html=1;points=[];align=center;image;fontSize=12;image=img/lib/mscae/Docker.svg;fillColor=none;container=0;" parent="mFckDLMdOMnbUKS1tV6z-9" vertex="1">
          <mxGeometry y="36.67969348659003" width="25.571745633503813" height="20.968831419473126" as="geometry" />
        </mxCell>
        <mxCell id="mFckDLMdOMnbUKS1tV6z-12" style="edgeStyle=orthogonalEdgeStyle;rounded=0;orthogonalLoop=1;jettySize=auto;html=1;entryX=1;entryY=0.75;entryDx=0;entryDy=0;shape=link;flowAnimation=1;" parent="1" source="Jx5W27o9Ek6RV-WZzhhY-138" target="mFckDLMdOMnbUKS1tV6z-10" edge="1">
          <mxGeometry relative="1" as="geometry">
            <mxPoint x="233.90000000000003" y="145.07000000000005" as="sourcePoint" />
            <mxPoint x="433.9800000000004" y="138.0906021422369" as="targetPoint" />
            <Array as="points">
              <mxPoint x="620" y="138" />
            </Array>
          </mxGeometry>
        </mxCell>
        <mxCell id="ozlr7v6Ecw8BB6LMqhpR-2" style="rounded=0;orthogonalLoop=1;jettySize=auto;html=1;fillColor=#60a917;strokeColor=#2D7600;strokeWidth=3;flowAnimation=1;" parent="1" source="Jx5W27o9Ek6RV-WZzhhY-138" target="Jx5W27o9Ek6RV-WZzhhY-97" edge="1">
          <mxGeometry relative="1" as="geometry">
            <mxPoint x="746.5" y="170.15" as="sourcePoint" />
            <mxPoint x="909.5" y="170.15" as="targetPoint" />
            <Array as="points">
              <mxPoint x="1120" y="170" />
            </Array>
          </mxGeometry>
        </mxCell>
        <mxCell id="HsBqYYypXnQ4gRw45o31-1" value="" style="shape=image;verticalLabelPosition=bottom;verticalAlign=top;imageAspect=0;aspect=fixed;image=data:image/png,iVBORw0KGgoAAAANSUhEUgAABLAAAANQCAYAAAA4wpbDAAAABGdBTUEAALGPC/xhBQAAACBjSFJNAAB6JgAAgIQAAPoAAACA6AAAdTAAAOpgAAA6mAAAF3CculE8AAAABmJLR0QA/wD/AP+gvaeTAAAAB3RJTUUH4QoJBB8I4vwb3AAAgABJREFUeNrs3XecHVX9//H3Z+7M3VQ6llBCSO5uQpAiAaWoX1SwYQNjAQm7G4yKgr3/lOVrQ/1aKUpMdpdEEI0iiA1FoyhgoYgYkt27SQhNAZGShOzemTuf3x8JPYEk7Gbm3nk9Hw+/X002e8/5fM6U87lnzkgAAAAAAAAAAAAAAAAAAAAAAAAAAAAAAAAAAAAAAAAAAAAAAAAAAAAAAAAAAAAAAAAAAAAAAAAAAAAAAAAAAAAAAAAAAAAAAAAAAAAAAAAAAAAAAAAAAAAAAAAAAAAAAAAAAAAAAAAAAAAAAAAAAAAAAAAAAAAAAAAAAAAAAAAAAAAAAAAAAAAAAAAAAAAAAAAAAAAAAAAAAAAAAAAAAAAAAAAAAAAAAAAAAAAAAAAAAAAAAAAAAAAAAAAAAAAAAAAAAAAAAAAAAAAAAAAAAAAAAAAAAAAAAAAAAAAAAAAAAAAAAAAAAAAAAAAAAAAAAAAAAAAAAAAAAAAAAAAAAAAAAAAAAAAAAAAAAAAAAAAAAAAAAAAAAAAAAAAAAAAAAAAAAAAAAAAAAAAAAAAAAAAAAAAAAAAAAAAAAAAAAAAAAAAAAAAAAAAAAAAAAAAAAAAAAAAAAAAAAAAAAAAAAAAAAAAAAAAAAAAAAAAAAAAAAAAAAAAAAAAAAAAAAAAAAAAAAAAAAAAAAAAAAAAAAAAAAAAAAAAAAAAAAAAAAAAAAAAAAAAAAAAAAAAAAAAAAAAAAAAAAAAAAAAAAAAAAAAAAAAAAAAAAAAAAAAAAAAAAAAAAAAAAAAAAAAAAAAAAAAAAAAAAAAAAAAAAAAAAAAAAAAAAAAAAAAAAAAAAAAAAAAAAAAAAAAAAAAAAAAAAAAAAAAAAAAAAAAAAAAAAAAAAAAAAAAAAAAAAAAAAAAAAAAAAAAAAAAAAAAAAAAAAAAAAAAAAAAAAAAAAAAAAAAAAAAAAAAAAAAAAAAAAAAAAAAAAAAAAAAAAAAAAAAAAAAAAAAAAAAAAAAAAAAAAAAAAAAAAAAAAAAAAAAAAAAAAAAAAAAAAAAAAAAAAAAAAAAAAAAAAAAAAAAAAAAAAAAAAAAAAAAAAAAAAAAAAAAAAAAAAAAAAAAAAAAAAAAAAAAAAAAAAAAAAAAAAAAAAAAAAAAAAAAAAAAAAAAAAAAAAAAAAAAAAAAAAAAAAAAAAAAAAAAAAADIESMEAABIXYs97N9b48upWoJ4aIwkeVraS4GNMfmgJHmgh0ppel+QlO+/b7zuX7SHrSNyADZmpntpfHVooqm0u5vt4e7PdWk3k+8o2Y6SdjRpjEzj3S2UJLmvkmmdSWslKXV70AK/2+R3u4L/mPu/pfqK1ZWWVYvM6kQZAFAkFLAAAIUwa6nvXIqSNtWtIvOKzKfIbYKkXSQ9S9LOW/Fr75e0Sq5bZLrFzG9RGqyyIL1lXTm65cKJdh+RB5rfycvWTaqXooM89YPMtI+kVkl7SyqP0EfWJK2U1CfX3wOzv6ZW+mtPxe4hGwCAZkUBCwDQdLoWe7jyuckLzPQCC/wQ9+AQk0/a9i3x2+R2vZmuM9n19ah0Xe8k+zcZAhrXE4pVB0k6SNJOObm1Xy7TYnP9KiyVrpg72R4gYwCAZkEBCwDQFGYt9z3DevxKl71C0sslbZfTpt4p6To3XWfS79fUwmsWTbcaGQTyac7N/txaVH95kKZHuewomZ7TIE1PXLra3BcpiH7A6iwAQKOjgAUAaFizlvrOQRi/JZAd767DGvS6tlamKyX/jSd+Re/U8j9l5mQXyMacO31M7aHkxYHrKJeOkut5TdCtxKXLzW1htLp08dwZFpNpAECjoYAFAGg4nQPxkXKd5q7XSIqaqnOuf7v5b82D3ygo/YJVE8DIm9PnuyQWH+uyN0l6saSWJu7uHWY622rh3PnT7b9kHwDQKChgAQAawqlVb1nr8dtc9j5JBxSk23WTfi/5j+IgunjhFLubkQAMj1lLfedSEL9RZm+WdKSksGAhWCtpniz8PIVyAEAjoIAFAMi1LvfgloH6ceb6ouSTCxyK1EzXpO6Lykn0w7n72L8YHcCWOX6V7zhqsP5aN58p6RVqthWcW2etSWcPWfiFCyr2IOEAAOQVBSwAQG51VpPXufsXJE0nGo9Tl+tKmf+gZtH3mXQCm9blHtyyPDnaUr1D0mtF0WpT7nKzj/RWwoWEAgCQRxSwAAC5M6vPdytZ8i1JxxKNpzVo0mWS5nZXwt+yATyw3vq3ByazzG2O5HsTkc3j0pXy9J29bS3LiAYAIE8oYAEAcqNrsYe3Tkje56YzJI0lIltsiZnPS5Jo4YJpdi/hQNHMdC9tV62/MpXPkfRqFW9fq+EyaKYz9pwSfrnLLCUcAIA8oIAFAMiFk5etm5QE4UUmHUI0nrEhyS9WavN62sLFrMpCs+uo+q5S8m65nyzZHkRk2FzhUXhi7yT7N6EAAGSNAhYAIHPtfckbAvNul3YkGsOu6vJz1o6O5i7aw9YRDjSTzv7BvV2l90k6WdIYIjIi7vFAs3qnRL8iFACALFHAAgBkZs61HtW2r3/d3N9DNEaY698ynVOvh9/m8UI0us5qfKi7PizpDZICIjLiUkmf6GmNvkwoAABZoYAFAMhmArrMx3sp+YFcryIa29SQuf8wlX+BTZrRSLrcg1sG6q8x99MkvZyIZDJ16I4eLL1r7gyLiQUAYJtfhQgBAGBbm32zT0zD5OeSphONzKSSLlGgr/ZMia4mHMirrsUe3rp7fJJkH3VXKxHJePLg+pU8fHP3VFtNNAAA2/QaRAgAANtSZ19t/9TslyY9l2jkhGuxSZ/pbov+RDCQFzPdS2MH6seb63TJJxORPJ0y9NdyKTx67mR7gGgAALYVClgAgG1m1rKh/UpB8FtJuxCNHN4UmK5y6VM9legPRAOZcbf2gfoxcv+cSfsRkNy6PojDo+ZPt/8SCgDANrlXJQQAgG2B4lVDuSJw/9T8tvJfCQW2pc7++OUufVnSgUSjIVDEAgBsMxSwAAAj7qTq0PTAg8WSdiUaDcMl/SwwP31+pXwD4cBImt2fvMblZ7h0ENFoOH/yKDyqd5INEgoAwEiigAUAGFGdy3yCB/E1ku1JNBqSS7rEPf0kby3EcJvdVzvEA/uauw4nGo08ofCLuivR8TJzogEAGLnrDQAAI2TOnT6mtiZZbNIhRKPhJZJ1l8LSZ+btbXcRDjwTs/p8t5LVPyP5yZICItIUs4ov9lSiTxIIAMDIXWoAABgBM91LY6vJpSa9hmg0lftN+sJYC791VsWGCAe2xClLfNy6KPmYpA9KGkNEmoubz+6tlLuJBABgJFDAAgCMiI7++EuSPkokmnSiKlsZmD7ePaW0iMeG8HS63INbBuJ2uX3OpOcSkaY16PJDe1vLfycUAIDhRgELADDs2vuSV5v5z7jOND+X/hq4PtTdFv2JaGBjOgfiIz3VV8WbBYsyvRiISqUZcyfbA8QCADCsVxhCAAAYTrOW+56lenK9pJ2JRmG4yX/gQfTRnil2G+GAJHUM+B5Kk29KeiPRKNwEY1F3a/RmIgEAGObrCwAAw6NrsYerdkuulHQo0SikNZLOiB4Mvzl3hsWEo7jngVsnJO9zU5ekcUSkoNzf0dNWnkcgAADDhQIWAGDYdPTHn5L0OSJR8JsLU3891Snnt0W/JRrFctJA7aDA7TtyzSAahfdgvRQ+b8Fku5VQAACG5R6TEAAAhkN739BUs+AGSaOIBiS5uX8vLkUfXjjF7iYcTX78r/QdLE7OkPReSQERwQZX9FTCo3nRAwBgOHCDAQB4xrrcA1MwXxSv8ChzsxOjNFnW3l97X5c79xxNqr2azLQ46ZN0GveWeIKXd1bjkwgDAGBYbi4JAQDgmersiz/kpv8jEtgk19UmP6W7rXwjwWgO7X1DU03BuTIdSTTwFP5br4etC6bZvYQCAPBMUMACADyzSexKf47FSb+k8UQDTyOR9I01o8PPLNrD1hGOxtS12MNVE5KPyHS6pBYiMiwelLRO0rObcsLhdm53W/ge0gwAeEbXE0IAAHgmOvqTbsk7GrwbsaQVct0r00OS7jf3dansjmD9/x7rsh3M0zGp2RhbP8mcJGk3RsBW6UtTzT5/anQVoWgsJ1WHpgce9Eg6mGhsltWSVkha7tJyky832fKkXr81GNXyYDCktd1TbfXDP9y5zMeHqcbVy0NjEwXbB4ltb4FPcdl0Sfu4NN2k5zZgHBKvp8/vndZyE0MCALC1KGABALZ+MjtQOyhI7a9qrH1vEklXSfqNuy0JPFkarmlZMXeGxVv6i2be5qPHDNb2Lqk02ZVOloJ93P0Qk6ZLKjFCnlIq1zej8eH/mzvBHiIc+caqq80Sm/QPuf1F0l/kyV+621r6h3sD885lg20elF7r0mtNOrxhzjWm3/VUopcxTAAAW38pAQBgK3X0x3+UdEQDNLVm8ovdg0u8XLq8d5LdP5IfdsoSH7eunBwk1wskvcClQxt01cS2uBUZcPfO3rboj8Qin1h1tUl1uf4i0y/SVL9/aGx4/bZ+NHZOn+8SW/IuSadKelbeA+Zmr+uthJcxdAAAW3XXSAgAAFtjdn/ymlT+s5w3c51J30qj8Bu9k+zfWTaks6+2fxrYK831Kq1fNREyih6RmuyceF3pEwv3t7WEIx+6Fnt46+7Jh93VJVZdPew/Lr/cFPy8Xi/9Oi8bk8+8zUePXxef5K6Py2xijuN3fU8lnDHcq9IAAMVAAQsAsOXcrbOa/M2lg3LcyotLFr5vXsVuz1vD5iz37eO0fpRcr5L8tZJ2ZVBJkq1w89m9lej3xCJbHdWhfeRBr1h1Jbn+LdMPzXTRnlPCv3SZpXlt6ok3+thoTPK/7nqfcvpoobu9sbctvISjDACwxXeKhAAAsKU6q8nr3P3SnDbvfpOd3N0a/rgRYtm12MNbJ9SPktK3udkbxNsc3c3OLY8tfZS9sbKJfmd/8kE3fV7FXnX1oMwvMdkFq6eEv11kVm+oc3R//HKXLlA+Hyu8sacSHsgqLADAlqKABQDY4gluRzW5XtIBuWua9A+3+rHnV0Ytb8TQzrzNR497qP46mR8v6ZWSygUeacsC8+PnV8o3cNBtG3Nu9ufWwqTXpKMLGoK6pF+a2cLVo0qXbev9rIZbx4DvoTT5haR983eutuN6W8OLOeoAAFuCAhYAYMsmRf3JMZLncRPe30el8A1zJ9sDzRDn2Ut8pzSK3y7ZuyVNLehwq0n61MRK+LU8P7bVRMd1t4r5OOs97ppfqoffmb+PrWqmjh2/ynccVUsuc9fhOWvaNT2t0WEceQCALUEBCwCwRTr74ytcytur0C8fZ+Hrz6rYUNMF3N06+pIjFejdkl4vKSrgzcpvEw9PWtBmd3AEDq/2lT7KkvpX5P6eAt4XXmNm54xV6UdNee7Y4ISqb1f25ArlbD8zNz+0t1L+M0chAGAL7gkBANg8s5YN7VcKghtzdSEzXRWODY8uwn5Jnct8QlpK3mGud0jarWDD716XzeGxo+Eze2Bo3zQNvq8cPmI2gobc7XulID2nSI+nzl7iO3k5ucZdrfk5efsPeirlt3IkAgA2+9JBCAAAm6ujP5kveWeOLmPL6/XSC/LyKvttpWuxh6t2q8+U/GOS9i/WnYvNSx4qvX/h/raWI3IruVtHf/wemX1F0qiC9HqNTOdZPfxa91S7s4hp71w22KagdI1LO+akSUm9FE5eMNlu5aAEAGzWbSAhAABsjhMH/FlhmqzK0YR3dWrpoedXWpYUNinu1t5ff5WZf1zSiwpz82LqV91P6J5avpYjc8t0VH1XedIt6ZiCdPlemb4V1MKz50+3/xY+/+v3OvtpXuYA7jqzty36BEcmAGBzBIQAALA5wjSZpRyt1jC39xa6eCVJZt7bFv6ipzV6cZrqCEk/k9T0r6Z3V6sHdnVHf/xhufNl3Gaa3R+/2D25UcUoXt1u5h9I1oUTeyrR/1K8Wq+nNfyZpG/l5xymk7oWe0hmAACbd9kAAGAzdPTHN0ualo+rF3unbEr70qHnWck+IdlbVIQvqlyXejls751k95P9TcXIraOafETS5yWFTT4e/m3yz61Oou8umm41kv9kp1a9ZY0nN0mq5CJlZq/rrYSXkRkAwNNOAQgBAODpdFbjQ911dU6a82CUhFPn7mP/IjOb1lEd2sc86HLpTc1/vfdb3fQW3mj2ZBveQDdf68dBM1tj0jlDFn7hgoo9SOafWnt/fJRJv85Jc37S0xodS1YAAE+HAhYA4Gl1VpO57v6OfLTG39fTWv4WWdk8Hf21F5js8y69rMm7OuTyj/W2lr9J1tebXa0dmHqwSPLJTdzNmmS9SVD69MIpdjdZ33zt/fGPTDouB01JPAr36J1k/yYrAICnwh5YAICnNOdOH+Pub8lFY0w3TbwjOpesbL6e1vJfulujl7t0tKS/NXFXW0z2jY7+2oWnLPFxRc97Z39tTup2dRMXr2KXfcfScFJPa/hOildbcToNwg9IysPbPEPF8VvICADg6acCAAA85UQ4Oc7lP8pBU1ymI3sq0R/IytZG0K2zv/4GBX6mu1qbuKfLUkvfVMRN/ufc6WOS1fF33OzEph3G0s/Tev2DC6aN6uegfmba++JPmunzmU9ITFd1V6IjyAgA4KmwAgsA8DSTxfS4nDTlEopXz3iW6N1t4U/CB8J93fUhSfc3aU+nBh78tbMvmVWk9HYuG2yL1yR/aeLi1TIP9Kre1ugYilfDNBHw8CxJmb+h0V2Hzurz3cgIAOApr1uEAACwKe0rfZRkx+RjouVnkpHhMXeGxb1t0ddkYatkcyXVm7CbY9z8/I5q8t1Tq97S7Dnt7E+O86D0N0n7NmH37pf5B6MHw/16p0S/4ggePt1TbbVcZ+fhFF+y+DgyAgB4yosFIQAAbFKt/kpJ47Nuhkm/nd9W/isJGV49FbunpzV8Z0np8yRd3pSddD95jSdXz1ruezZp/6y9Gn/M5T/Mw7E6zFJzX1gKw6k9lfLX586wmKN2BCYDSfhNSWuyb4m9iWwAAJ7ymkUIAACbvkik+Xi1uenLZGPkzGttWdrTGr3SZG9y2com7OLzS/XkmvZq7YXN1KnOZT6+cyC52FxnNts9nZmucvlB3W3lWfP2trs4SkfO/On2X7m+m4OmHH7igD+LjAAANj03AQBgI2a6l9zsVTloyvXdlejXZGTkdbeGP1ZU2kfS5yTVmqx7E8zt9+3VWmczdOak6uBkD5Kr3fWGJsvT/ZK/a88p4Yt7W8t/56jcNuoKvyop6xVuQcnrryAbAIBNXigIAQBgY8ZV4xmSdsm6HWb2NbKx7fROssGe1ujTsvRASX9ssu61mNv8jmpyVtdiDxu1Eyf1xS8LvPRXNdt+V+4/jJJwn57W8nldZilH47azoM3uMNPPMz/fe/oqsgEA2BQKWACATUwkcrH66sFwbOknZGPb66m03NxTCV9ibidJ+k9Tdc79vat2SxafvMKf3WhN7+yvzQlMv5S0UxNl5A6XHdfTVn7L3H3sXxx92UhTOz8HV56jZrqXyAYAYGMoYAEANj7HN70y+7mM/XDuBHuIbGQWf+9uCxcEcdi24W2F3kS9O6KeJNd2LqvNaITGnlr1lo7+ZL7LzpMUNUkOEknfsjSc1tsaXswBl6297iz9TFLW+43tsmH1LwAAT0IBCwDwJHP6fBdJmU8iPPUFZCN786fbf3taw3emrqMkVZuoa7t7YH/o6Evekuvj8WZ/7hpPFkve2USxv0HmL+hpjd7XPdVWc5Rlr+tIS1z6fubnfbNXkg0AwMZQwAIAPEkc1P9HUsaPcdiK3tbwT2QjP85vi367ZnS4v0xfldQsexSNkfn3O6vx5+VueWvc7GrtwDhM/ibp0CaJdyLX/0YPhi/oqZSv56jK2cTAvTfrNliql5AJAMBGr1OEAADwJO4vynwS475QZk4y8mXRHraupxJ9OE31YskGmqRb5q5PdvTHF7Wv9FF5adTs/uQ1qduVknZrkjgvsdQP7WmLTp87w2KOpvzpbivfKOmf2R6NeuHMJV4mGwCAJ6KABQDYmMwLWPUgXUQa8uv8qdFV0bjS/pK+pWZZjWX2ZouT35044M/KuimdfbX3pPJLJY1rgsjWXfqKR+GM7qnlazl68n4c6LKMWzB6XEvCPlgAgCehgAUAeJwTqr6dpP2ybYXfen6lZQnZyLe5E+yhntbofQr0IjXP3liHltL6nzuqQ/tkM/TdOvviLjc7W5k/xjscbEUgvbS3Nfpo7yQb5KjJv7Sun2c+alwvJhMAgCeigAUAeJyWtH541hNn8+BnZKJx9EyJro7GhQeY9CU1wWosk0+SB3/u7EtetS0/t32lj+rojy9y0+lNMCxcsrmj49L+81ujKzlKGsdDbeGfJf0n08Hj2a8CBgDkDwUsAMDjJw7mh2ffBv2STDSWuRPsoe7W6OMmvULSHU3QpfFufml7tbZN3vzXvtKfY3Fypcze3PgnEf3bpVf0tIbvPHe6reHoaCyLzOouvzzLNph0aB5fqgAAyBYFLADAEx2S8ecPRuNKvyMNjam7NbrCo3Bfmf+gCboTmdv8jv74m13uI3bPdFJ1aLrV4j9LOrgJYnZFVA+f39sa/YajoXGZgkwfI3Rpx5MGhvYmEwCAx6KABQB4oudnOnFy/X7uBHuINDSu3kl2f0+l/FaTv1vSuibo0mmr+uPvj8QbCjv745cHHlwls4kNHqMhM/9ATyU8eu4+9i+OggafIMSly5Xx48BBGrKROwDg8dcGQgAAeFj70nV7Sdo5yzZ44L8mE82hu7X8HVk6w6V/NHxnNryhsKPquw7Xr+zor3W49AtJ2zd4dPoC80O7K+VvyMwZ+Y1v/nT7r0v/zPRaYH4QmQAAPBYFLADAo3P0MMr8G+8g1VVkonn0VFpuHm/hIU2ywfuh8vqfZw8MTnmmv6i9v/Y+yeZLihr6nOG+cHQczphfKd/AaG+6K8LVmX66iQIWAODx8wRCAAB4lD8/4wYMjgmiG8lDczmrYkPdrdHH3e21ku5u8GNk73paurKzr7b/1vzrLvegoz/+hsm+IamRN6l+QG5v7W4rz2Kj9iZlujrbQ03PZyN3AMBjUcACADw6X0l1YMYTluvPqtgQmWhOvW3hL0phuJ9Jv23seb2e62Z/aK/G/7Ml/27OtR6tqsYLJb2vwVN5g6n+/J628AeM6ublSq7OuAk7zF6qPckEAOBhFLAAAI9OWMz3yfiqdA1ZaG7z9ra7uivhUW76uBr7kcLtzfWrzmry5s354RNv9LHx9smlkh3fyPkz94XRuPCI7tZRKxjNze38yqjlcv0702tSqb4PmQAAPDpVAABgwwRbsj2ynRwbBawiMPPeSvQlpTpK0l0N3JMWd7+wo1p791P90OwlvlM4Kvm1XK9q4L4Ouvuc7rbyLN4SWqRjNesvFZwCFgDgERSwAADrLwhj46nKeE+ewEp/IRPF0TM1+l29FB4iqZHzXpLbuR198Rkb+8tZy33PNEqukumwxu2iLXf5ob1t5e8yaovFLdtj080oYAEAHp0rEAIAgCSZB1lPFO6aV7HbyUSxLJhst66Jwxeb7KzGPoD0mY7+5LyZ7qWH/+ik6tD0Uj25StLUhu2X61KPSjN6W8t/Z7QWT8ntnxkPQApYAIBHhIQAALB+/u3TMm7AErJQTIumW03SaR19yVUy/66k8Y3ZE58zfiB5VvtKf5vVk+cr1WWSdmrQtCSSPtXTGn5FZs4oLaZ6PV5ipUynC9PIAgDgYazAAgCsn3q7WrNtgd1MFoqtpy38gaX1g6XGLWa66w1BnPxJqX6jxi1e3eOmo3paoy9TvCq23qmjVklanWETtj9xwJ9FJgAAEgUsAMAGJu2d6ed7ygosqHvqqL7RcfhCl37cqH1w6SBJYxq07f/wenJIbyX6PaMRMnOXlmbZhHI93otEAAAkClgAgEdNyvLDUzcKWJAknTvd1vRWwplu+riklIhsGyYtqq8LD+udNvoWooFHx0W25+ZUwSSyAACQKGABACQdv8p3lLRDlm0oK1xKJvDorNm8txJ9KZC9TtIDBGREuUlf2rMSvnXh/raWcOBxh6J7pgUsC5wCFgBAEgUsAICkllqc9QThrrlt9h8ygSea3xr+PLX0cMkGiMaIWC2zN3a3Rh/vMmO1G54kLWW7J527UcACAEiigAUAkGSe+SMay8gCNuX8SsuSoZbSIS79mmgM65G/PAjSw3oq4aXEApucLCT1ldm2gBVYAIAN1yRCAABI3SdmO4/2VWQBT+XCiXbf2kr4apm+SjSG4ZCTfluvl14wf0rLP4kGnsrqsS23SsrybZR7kAUAgEQBCwAgyUzPzbQBbreRBTydRWb1nkr0YZmdKGmQiGzt4Wbn7HlH+MoF0+xeooGnPe72sHWS7smwCc8lCwAAiQIWAGD9lHZClp9u8lvJATZXTyX8npsfKeluorFlB7q5zuithO/tOtISwoEtOElneY7efs6dPoYkAAAoYAEAJLPnZPnxaWAUsLBFeivlP5fS5IWSeHvl5lkrszd2t0VdhAJbyl2ZPuadrBl6DlkAAFDAAgBInu0jGuYpBSxssXlTR68cagkPl+l3ROMpj+9/W+r/w2bt2OoJg2VbwJKXJpAFAAAFLACATMr02+2ayreTBWyNCyfafRNvD1/hsu8QjY1aEtTDF3ZPLV9LKLC1Us/2Me80MPbBAgBQwAKAoju16i0u7ZBhE+6/oGIPkglsra4jLeltDd8t1yeV7dvS8uY3USk8fP4+xls+8UynDJm+aMPS9NnkAABAAQsACm4o1k6SLMMm/IssYDj0tEVfdLO3SFpX+GCYzYseDF8zd7I9wMjAM1WS/yfb4Ww7kgUAAAUsACi4OKplOjEw03/JAoZLbyVc5OYvVXHfUOhm+kRPJXzH3BkWMyIwHBJL7810ULsoYAEAKGABQNFZGuyU8cTkXrKA4fTwGwrN1F+wridm/o7uSnQmowDDep0Iy9mep813IgsAAApYAFBwaZD1oxlGAQvDbt7U0SuTJDxM0jUF6fJD7vb67kp5PtnHcCvfq3uV6f5yPEIIAKCABQBcCNKMH80w5xFCjIgF0+zeZF14lEy/bOZ+mnRfmuro3rbwF2QdI2HD46hrMmwCBSwAAAUsACg6t3SHbBug+8kCRsrC/W3tmlr4Bpdf0KRH8K2pp4edPzW6imxjhMdalqtlKWABAChgAQBsu0ynRKzAwghbNN1qvZXoRJm+2mRdW1Ky6PDetpZlZBkjfqXI8nFv9/FkAABAAQsAmJWMyfTj04A9sLANBpp5TyX6sLk+rEz38hmu7uiqoZbwRfMqdjvJxbbgyvCNsWZjyAAAgAIWADAryXRi4CV/gCRgW+lui75qZidKihu4G5eFY8OjL5xo95FRbCtmWpvhx48lAwAAClgAwLRkdKaf7lpHDrAtdVfCC8x0jBqziHX5xDvCY+dOsIfIJLYld8/yXD1a7kYWAKDYKGABQOFnJWm2j2a4D5IEbGupdKikqAGb/uJVuyeHk0FkMG3I8lxtc/6l0eQAAAp+JSIEAFBwGe8tYi4KWNimOvtq7zFXV4M2f7RcP+1cVptBJrGNZXuuXi32wQKAgqOABQBFZ9l+q53Kh0gCtpWOvuQkNzurwbuxnQf2y47q0D5kFNvsUmGZPkKowZACFgAUHQUsACj6pMRVzrQBacoKLGwTHdXk9TKfJ6kZ9tLZRR78prN/cG8yi23BM96vsBwPlsgCABQbBSwAKPqkRMp0UlD2UazAwog7qS9+mdwvkhQ2UbcmuMLfdC7zCWQY20CmXzYkkYWkAACKjQIWACDTAtaaseyBhZHV0V97QWC6RNKo5uud761SsvjkFf5sMo2RlPkbYxNjBRYAFBwFLAAo+qTEsr0WjIvECiyMmM6+2v6S/UrSuGbto7ta6/XkZydUfTsyjhEbZxnvV1gqiRVYAFBwFLAAoOiTEs92BVbLWtXJAkbCrKWDrW52uaQdmv9A1ozIk8tm3uajyTxGZIhZtnvHeZ0VWABQdBSwAACZTgpWh02xoTZypnOZTyiVgsslFebROpNePG5d8sOuxc5KFYzE+Mr0XG0B8xYAKDouBADApCTTa0G5hWsRhtec5b59GiS/lGyvAnb/mFsm1L8jdwrDGFaurFdgiRVYAFBwTBoAoOiTEpNn+fnr7mEFFobPzCVejuvJj0zar6gxMPPZHdXks4wGDO+4ynbekAZKyAIAFBsFLAAoOs92UhCxAgvDpMs9GBclF0h6OdHQpzqqtQ8QBgzbpSK1bL9sqDv7JQJAwTFpAABkWsAaKrECC8Pj1mr9G5LeRCQ2cPtqZ18yi0BgmCYN2e6BFfLCDwDgWgQAKLpMJwVRyLUIz1xnX9zl8lOJxOPn/G4+r6Mav4JQ4JnK+i2ExgosACg8Jg0AUPQZbsYrsEoPcS3CM9PZX5vjptOJxEZFcl3cWY0PJRR4htcKVmABADLFpAEACs6zLmCxAgvPQGdf8kaXnUskntIYd13SvnywQiiw1SzbtwB6qpQkAECxMWkAgILLuoCVuMpkAVvjpGXx4W5+oZTtxLpBPMvq4S9PHPBnEQps1bUi1ehMPz9oickCABQbBSwAwGCWH27h0BhSgC11UnVwchDoYkmjiMZmlwAmh578/MQbfSyxwJafrJXpuTqqax1JAIBio4AFAEWfk7hnOinwesBkGltkTp/vEnjpl5JYTbTFB5xmlEYnP+ha7CHBwJZdKyzTAta6QQpYAFB0FLAAoPCzkuChbK9ExgosbLaZt/no2JKfSmI/p6095KXXrNqtfg6RwJZIM16BNXk/ClgAUHQUsACg4Fz+UMYNYAUWNkuXezBuXfI9SbxR75kfeHM6+uMPEwdsLvM0ywLWUJcZm7gDQMFRwAKAok9KLNtvtd2MAhY2y6pq8nVJxxKJYfPljmrydsKAzbxYZFbAMukhEgAAoIAFAEXn2U4MTBpHEvB02vviD0o6rQGamrrrU5LuboC2mty/294Xv4gRhs0YLZkVsFw8PggAoIAFAIXnGRew0jRlDyw8pY5q8iYzfaVBDqj39bZFX3D5KyTd3wAtHmWmS9r7hqYy0vDUYzvLPbCMAhYAgAIWAMBXZ3ohCtgDC5vWMRAfJveFDXLP8umetvLZktTbWv67Ar1G0toGaPdOstIvThxw3uqITV8plGUByx8kAwAAClgAUPgrQXB/ppMiNx4hxEa1L123l1L9RNKovLfVTF/raY0+99g/65kSXW3SGyQN5b798klhmlzSvtJHMfKwiTGyQ4Yf/wAZAABQwAKAwl8IPNuJgWsnsoAn6lzm4y0Mfyop/6uCzBd0Twk3+ka/7tboCjN7s6SkAcJ+aBAnC+RujEBsZKDvkuF1ggIWAIACFgAUfkqS+v2Zfr58F7KAx5rpXvIguVCu5+X++DFdMvH2aLbMfFM/010JfyqzDklp3vvj0sz2geQzjEI81oaVedk9Qhg4BSwAAAUsACi6OE3vz3TCbLYzWcBjja/Wvy7pmAZo6hVjFb6160h72tVVPZXwe25+aiPE31ynd1aTExiJeFha087ZjsmAAhYAgAIWABSdRy33Z9wEClh4REdf7WRXQxR6/jw6Dt94VsU2e3+r3kr5XLk+2QB9M3ef11mND2VEQpKCtJbpo94uVmABAChgAUDhDQ7p/oznyjxCCElSZzU+Wmbfzn1DTTcFcfiac6fbmi39pz1t0RfddWYDpGOUu356UnVwMiMTCoOsv2iggAUAoIAFAEW3aLrVJD2UXS3A2cQd6qgO7eOuH0oKc97UaqkUHjV/uv13a39Bb1v0CakBCnXSLoGXLjmh6tsxQgvOLdPztJnfRxIAABSwAACS+z2ZfbS0Q9diD0lCcXVUfVd56TJJ2+e8qbcHSXjUvL3trmf6iyZWSu+V+/caID37tqTJDzhGi808zfiLhuAesgAAoIAFAJDM7s7y05fvIVZhFdTMJV6WJz+WfO+cN/UBr6evnr+PrRqOX9Zllkaro05Jl+c9R2565ardkq8yWovLg6xftuEUsAAAFLAAAJKkTCcHLWmNjdwLany5frakF+W8mTUL9MbeaS03DecvnTvDYkvDmSZd1wCpOq2zWpvNiC0mc2W6V6FZnQIWAIACFgBAyvrb7boFzyIHxdPZV3uPu78j7weHZO3dU6LFI/HLu6fa6iAMXyPZityfJdzOPWlZfDgjt4BXCPlzs/z8krVQwAIAUMACAEiSZTo5MNnu5KBY2vviF7nZ13J/ZEgf62kNvz+SnzFvb7srteRoSXflPBzlINCPOwZ8D0Zwwa4Q2Z6jh+ZONt5CCACggAUAkJTxI4TuvhspKI72pev2MtOPJZXz3E6Xfae7NfrKtvis8yujlrv7ayWtzXn6nq00+emJN/pYRnKRWJbn6P8QfwCARAELACDJ5Hdn+/mswCqKU5b4OAvDn0raNedN/cnaSum92/IDe9vKf5PsrZKSnMfmgHBMPF/uxoguikwfIbyb+AMAJApYAABJbvavTD9frMAqxkBzWxfG8+V6Xq6bKf01Ghe+fZFZfVt/dk9r+DMzf1cDnDTe0t6ffIJB3fzaV/oOksZmeDzeSRYAABIFLACApMDSOzIuGLACqwA6+pMumb053620AbPwmLkT7KGsWtBdKc831xl5z6eZPttZTV7HyG5untQy/YIhMKOABQBYf00gBACAdVE50wKWUcBqep19yRtl+nTOm3lPECSv6qlY5m88626LutzsnLzfR7r7BbMHhvZlhDevkoJsV8imTgELALD+xoMQAAAunGj3SVqXYROe3bXYQzLRnGYPDO3r5gsk5XnPpDVp4K+aP2XUQF4atNftpfdL+lnO0zsuTUs/OX6V78hIb1LuEzL9fKOABQBYjwIWAODhWUKWq7BKq/bQc8lB82lf6TukaXCxpHE5bmZibm8+f0r5ujw1qutIS6Jx4Vsk/SXfWfYpLUPJ97rcua9sQqlbpgUsV0ABCwAgiQIWAOCRSUK233KbJzxG2GS63AOLkwWSKrluqPlp3W3hL/PYtLkT7KEkCF8n+S05T/erV1WTMxj1zccs47fEWkoBCwAgiQIWAODhOYL8joxbsAdZaC63VpNPSXptvse9ndVTKX87z21cOMXuDgJ/raQHc57yT3VUk9cz8pvs2uA+KcvP9zCigAUAkEQBCwDw6DQl0wJWmvoUctA8OvuSV7nUlfNmXr7nHaUPNkI8509p+acHeoukJM8nEbmf37lssI0joKlmC3tn+Om1vfbS3SQBALD+kgQAgCS5r8p05ms2mSQ0h/al6/Zy84U5v89Y5lH41q4jLWmUuPZOiX7l7qfkvJnbe1C69ISqb8eR0Pi63AN3TcywCau6zFIyAQCQKGABAB5mwS1ZfryLFVjNYOZtPtpK4Y8l7ZzjZt4bBPXX9k6y+xstvr1t5e/K7OycN7OtnCYL5G4cEY1txQrtLqklwyasIgsAgIdRwAIArL8gBPVbsvx8kyhgNYGx6+rnSnp+jpsYW6CZ86eMGmjUGK+ZUnq/pJ/lupGm13cOJB/jiGhsoSfZrow1u4UsAAAema8QAgCAJNXWlldm3ITnnnijjyUTjaujv3aaydvz3EaTv7d7SrS4keO8yKxuaXi8S//Iczvd9fnOvuRVHBkNzH3vjD+fFVgAgEdQwAIASJIW7m9rJd2TYRMsGhWzCqtBdfbFR0j2fzlv5v91t5bnNkO8u6faatWT10u6K8/3mW6+sH3pur04QhqTu2X6BkJWYAEAHndjQQgAAI9OFrLdbyS1gI3cG1BH1Xd100WSohyP7V+uqYQfb6a4904bfYulfoykh3LczJ2tFP5k5m0+miOlES8Jnuk52VK/hSwAAB5GAQsA8OhkwZXpY4TGRu4Np8s9kCcLJe2W42beHAXh2xaZ1Zst/t1Ty9e6Wbskz3EzDxi3rv5VjpbGk8oyfYTQSyGPEAIAHkEBCwDw6GRBGRewzChgNZhbBpJPS3pFjpt4V5CEr5472R5o1hz0VsJFbjoj52eXd3dWkxM4YhqLSVkWsIYmTtYdZAEA8DAKWACAx8wxvZrtx3srSWgcnf3xy831mRw3cchMb5y/jzX9Ko7eKeH/Sv79fJ9e/LyO6tA+HDmNYdZS31nSLhk2YUWXWUomAAAPo4AFAHjMVcGqGbdgOkloDO0r/TnuWpjnewl3P7W7El1TiISYuUdRp0zX5riVY03BT06o+nYcQQ1wOQiSrIuNVbIAAHjctYkQAAAemQPXw6wnDLt0VH1XMpFvXYs9tDj5oUzPye9g9gW9beXvFikvvZNssB6Ex0m6O69tdFdrWfFcjqIGuB6YZ1vAMgpYAIDHo4AFAHhE91S7U9LqbFuR8IhRzq3aLfm8pBfltX0u/XWcojlFzM2CyXZrmupYSbXcNtLtLR19tfdyJOWdTcv0090HyAEA4LEoYAEAnmh5xrNbClg5Nrs/eY2kj+S4iXeHFh53VsWGipqj86dGV7n8w7lupNnXOgbiwzii8sulaRkPEgpYAIDHoYAFAHjCrMX7M740UcDKqVnLfc9Ufr4ky2kTEze9ZV7Fbi96rnpby2fJbF6Omxgp9Yvm9PkuHFn5ZFKm5+K0nlDAAgA8fpZACAAAj5+1ZLyRe+ps5J5Dc671KKgniyTtnN+h6x/prUS/J1vreVg6VdJfcnyy2aNmSa/cjWzlS+cyHy9ptwybMLR26qjbyAQA4LEoYAEAHj/pNevLdk7LmwjzKN4u+ZxJh+R45F7YXSl/g0w9qneSDdY9PE6uf+e1jSa9pqOafIhs5SwvFk9TtistBxaZ1ckEAOCxKGABAB5/YainSzNuwrN4rChfOqvx0ZJyu6eSS/9I1hVz0/ans6DN7rBAx0rK855gX+isxoeSrRwdU5bt44NyX0IWAABPmqcQAgDAY4XbRTdLSrNsQ914E2FenDjgz0pdvXm9ZzDpPrf6sQv3t7Vka+O6K9E1cntnjpsYuftFs5f4TmQrHzzrNxDKlpIFAMATUcACADzO3An2kMtWZdmG1NgHKw+63INSmiw06bk5bWKaBjr+/Mqo5WTrqfW0hee77Dv5baHtmUbJd8lUbuyb5Yc7BSwAwEaEhAAAsJHpw82SJmX38cEB5CB7twwkHzHp6Bw38TO9U6JfDfcvnbnEy9E4jX3in49ap9EKhkZtZLyOr5c2fU8VuNw8vf+xf5Z4y1AySg899s/iPfXgSO77szYuvW9clOwr6Yic5vPYzr7ae7rbyudw9GUu03Owp/WbSQEA4Il46wsA4Ena++Mvm/SRDJvwt57W6BAykZ2O/toLJPujpCinTVzi0gcC2XapaYx5OsbNdpBrrJnGyG28Kd3OZS2SxssUmGt7SXLZDuvvgXw7k0oujctpP+smPbi+zapL9qDkNZPWurRO0qCZ1sgVy+z+1FUP5A+4FLtpjdwHA2mdLFibSrVA/oBku7r7edKTC3Q5MRiYHza/Ur6BozCjY7/qu8qTuzNsQjLOwnFnVWyIbAAAHosVWACAJzH50oy/43jenGs9mjvDYrKx7c1Z7tvX6vXvmzzKcTOnm/Rrl8t8/ahd//8l+fr/448dw77hjx/9gSf8t1wqubTjYzqxyxPb7P7of7HH/N3DMfEn/Z3nffiNSj344QlVP+iCij3I0ZjF+T85MMtRYqYVFK8AABvDHlgAgI3J+vGNUfUdam2kIRtxPT7X5JOIBLLhU8ppzH5YWUXfs318MAfXHwBATlHAAgA8iaU5eBOhlw4kE9vWTPdSZ3/tXZIdTzSQ7UnI3tzRX3vnTPcSwdjWfP9MP921hBwAADaGRwgBAE/SPdVWd/QnKyWfnFUbAvkBkhaSjeFz/CrfMarVJpQ8eK7ke0u2t9wnuNlzJdtb1WRPl3FvgJyw74yrJt/p7I/vk7RC0gqX/uWmOyVbEaT+L1n9zj0rLbd0maXEa9jifkCWn+5mN5IDAMDGcJMKANj4JEL+d5MyK2B5KlZgbaHOZT6hrmRSULJJ5j7JZZMknyTZ7pLvoaGkRQo27IK0YX8os0cyDuTzXKQdJR204T8b9vdyuUlSSauqyWBHf3ybTLd5aivNfKXLVgbmK4NSuGLe3nYXUdw8M2/z0VqXtGbaiLR+E5kAAGwMBSwAwEaZ6R9yHZfh5x8gd5MZlZUNTrzRx5ZGx5XAg0mpfJIC29vcJ0maJGmSKxkVSJL7EzbsJoRoaqMkVeSqPHy6MLncpXqSqKM/fkjSSq1fxbXS5SsCC1amSX2lRpWrvZNskBCuN/aheF9ZpqswH1rbWq6SCQDAxlDAAgBsgt2YZeHDpR3blw1O7JVuKVLU51zrUbLd0B5SaW/J93bZdEn7SLa3lOwlWeC24f16TmEK2AxjJE3f8B+ZTO4uKwVSnKizP75PppvdbYmbr5BshVu64qGW6OZFe9i6IgUqMGX6BkKX/rnIrM6QBQBsDAUsAMDGJxJJfKOVsr1MBEF0oJq0gHXyCn92vZZM95JPDTyY6vJWySqxkolSacPG1fb4qR2A4T/XSTvKdbjkhz/8eKK5ady6JOnoT26ReVWufpMvS82WldPwn3Pb7D/NGYxgf2W56NWNxwcBAJtEAQsAsFG9U0et6qwm923YfyYbgc+Q9JNGjuPxq3zHUYPJdJnv88hqKte+9SR5jgLJ3OQ86gfk9D7Zp8g1RdKrXCZzKbYNq7akFXK/OQ1siWQ3B54s6a60rGzkx57d/OBMG2ApG7gDAJ7qwgwAwMYmEuZpf3yTSS/ObjalFzRKuI5f5TuWa8n+5r6fLHie3KdLmqahZIf1m00/ZjWVMbyARvbIxvJmBz2yqbxK6qwm93lfvNQCW5J6epOZ/WOoHP7jwol2X977NHOJl6Vkv4yvO6zAAgBsEgUsAMCm5xLS35VhAculg7vcgy6zNC8x6Vrs4e271Sp1L+2nwPd3134m309DyR6PRI29qYBCcmlHmQ5z98NMJrnUMpSoo792q8tuMtM/lNqNCuo3Tby93N91pCV5afv4Uryfy1qyDF+tHLICCwCwSRSwAACbZva3jIsx2922vLaPpH9m8eEzb/PR4weTAzz1g2TBgSbff5WS6VIwSuaSP7yYiiVVAJ7yZLqnSXvK9Zr1545Aq3ZLBjv74yUu+4crvcECuy5ZG964cH9bm0ULvaSDM36KeaARVqoBALJDAQsAsEn1JPlr6eH9xDOS1u2F2gYFrDnXejS0fa21lJYOcvODzHSQr0tmuNQiM+kxO1UBwDAY5dJBkh9ksg6lUjg6qXf0J6skv9lc16WBXVeqla6aP93+O9KNcQ8OsUzfPOt/ZUgAAJ4KBSwAwCYtmNpSzX4j9+AFkuYN56+cc61HtfHxAYF0iFtwkMsPipXsE3gQ+ob9l3kKEEAGSpLvLWlvNx1j7kqjJO3oj/tdfp2ZrrPU/rZ6THjdoj1s3XB+sMlnZNz3v5F+AMBToYAFAHiKGY152h//zaSjs2uEP+ON3Ofc7M+tRfUZQeoHuenwWMlhJhuzoVTFA4AA8iyQNNVkU+U6wU0aty5JOvrjfnO/TqY/1c2vmjSlvHRr9ws8ZYmPW6dkWqadNGMFFgDgqacmhAAA8FQ6+uPPSvp/GTahbmm4Y/dUW705P9y+0kf5UHKQmV5gpkMlvVDS7mQSQJPf1N8n118k/UWyv1hS+svmPno4uz9+cSr9IcPmJ2tGh9sN96oyAEBzYQUWAOApudlfLdvn6Uqu5GBJv9vYX7av9B1Kcf1wl7/IXS9SnMywQGUyB6BQ5+r1b0B8paRXSi6PEu/oj5dK9ic3/Smsx3+aN3X0yo3+W9fBGX+t/U+KVwCAp0MBCwDwlOpW+kvo2b7p3U0v1IYC1skr/NlJvX5I4H64pJd7nByYrn/EhnXFAPAok7SP5PuYa049CNXRF/9bpmvd9Kcg1VXh6vAvc2dY7PJDsj2B8vggAGDzLmwAADyljv7aKsn2zLAJN7jb9UHgL3JXKxkBgGHxgExXy3WwpF2yaoS7z+ltK3+XdAAAngorsAAAT8tkf3EpywLWgWZ+IG8GBIBhtb1cr8q6EYHECiwAwOZcLwAAeFq83hwAMBIe2vPOaAlhAAA8HQpYAICn5ca34wCA4WemG7qOtIRIAACeDgUsAMDTSh4Kr5XEBAMAMKw85QsSAMDmoYAFAHhaC/e3tTItJRIAgGFlxiPqAIDNQgELALBZPOU15wCAYZ6MBAkFLADA5l0zCAEAYHOYpUwyAADD6b/zJ7csJwwAgM1BAQsAsHkXDDZyBwAMI5eulZkTCQDA5jBCAAB4KicO+LPCNH6jzN4s10uJCABgmCSSfm/yH6dRdEnvJPs3IQEAbAoFLADAk8zp810S1V/t5jMlvVJSSFQAACMoNdM1qXRZyeo/nj9l1AAhAQA8FgUsAIAkqWPA9/A0PtZkx0g6UlKJqAAAMnKzuRbJ69/vnjqqj3AAAChgAUCBdfYP7u0qvcml40w6mOsCCsxNut+lVLIHHvPnqckf2MgPu1z3b+r3rP9vGu+20dWLY00qP+kfSqMlG/WYPxlnUuTSOEkRKUKB/d2ki93SH/dUWm4mHABQTExUAKBgOpcNtqVWOs5Mb5J0IBFBA0kkPSjZ/ZI/6NKDJj0o+WopeNDk96euB03+oJlq7sEDHiiV+/2B5Er9/nooL6XpfZI02NJyXzmV906y+xuh8yfe6GPrO6g8pqaxqQ+V07qN9cjKVrcxgalFZmNSqcVSjTFLW1KzHc01XtI4ycabfLxLO67/3xov+XiTjXdpB+4J0UCWSro4MP/x/Er5BsIBAMXBzQoAFMDsgcEpqZeOl2umpH2JCDK++bhPpnvcda+keyW/V2b/Uap7LfC7lQb/rcsfVMnvD5U+YEHL6gciPbhoD1tH9EbGKUt8XGIaP2hD4y0KxqtuO1hgOwWe7uyync20U+q2k8l3MtPO7tpJ0k6SdhZ75CG7s8kKyb/vnn6vt61lGfEAgKa/hwQANKMTB/xZpTR+i8mOl/RCIoJt6M9y/VTye0zBvan8Pxak95ZK5XsfmKT/LDKrE6LmcULVt4uSwZ0CK+2iku3kbjvL/b0yHUZ0sK249FfJv2cWXdRTsXuICAA0HwpYANBEZt7mo8cO1o8x91mSXiH2zcG2d3/JwufNq9jthKK42peu28tK4Y2StiMa2Mbqkhab28JwfOlHcyfYQ4QEAJoDBSwAaHBd7sHK/uTIQN4uszdKGktUkBWXndDbGl5IJNDRVztZZt8lEsjQ/Wa2SKkv6G4Nr5KZExIAaFwUsACgUSeHA76He3K8uc2RfG8igsy5Lu1pi95AIPCw9v74Zya9hkggByeo20x2YVKvdy+YNqqfeABA46GABQAN5MQbfWw0qn6cm3dIegnnceTI3bJwX/aewWN1LvMJHiQ3af2G70BeXOPm3yvVoovmT7f/Eg4AaAxMfACgAZw0UDsoSIM5kr9N0ngiUgixpOWSlsq0zFJb5qb/Sv4DSWNyd0Phdmx3W/gT0oYnau9L3mrm389bu1z6l7tODOSTZNbm0jSTTZV8L0klMlcIQ5JfbIF9t3ty+HseMQSAfKOABQA51bnMxyuI3ybZHJcOIiLNPIHScpOWyHVzGtgSt3TFQy3RzYv2sHWP/cGO/toFWv9WyZzdTfiCnkr5JFKJTenoq/1AZm/OW7tc+mxva/SZx/7ZnGs9SrYb2iO1cLrk+5jb3mY+3V37SxpHNpt2WjTg5vPCUtg7b2+7i3gAQA7P1IQAAPJldl/tkDQI3iH3tzJZaiprJN0k2T/M05tk1hdYuGxz39bX3h8fZdKvc9ivO4ZawuddONHuI8XYlDl9vkus5CaZnpOzptVSS59/fqVlydP9YJd7cHvf4MQkDNtU1z5mtq/J93NpuqRRZLlp1CT91Ezf3XNKeEWXWUpIACAfKGABQA7MvM1Hjx2M32Zu75H0fCLS0FyylZLfaK5/yOymuiV/nzSlZeXWToRm3uajx62r3yT55Lz11QO9undK9CvSjqfTXk1ea+4/zeERe/XE1vBFW3t8di328PbdapW6l/ZT4PvL9TzJ95NsT7Le8FOlAXf/tsphd+8ku594AEDGZ2VCAADZ6VzmE2TJHDe9R9IuRKThrDapX+43p6brAtmSpB7esGCa3Tus46Qaf95dn8zhbcR5Pa3huxgG2Fwd/Um35B35G8p+Sk+l/O3h/JUnVH27ljTZT+b7uGy6mQ7iMcSGNWjui1LT13pby38nHACQ0eWaEADANuZu7dXk5Sa9V9IxkgKC0hAekOt6N10bmF1bV3Ld+VNaVoz0pr8nVYemBx5cL6mcq2EsWxmkpf27p9pqhgY21wlV367s8U05XJ30QN3D6Qva7I6R/JAu92DFsqEpQSmcYe4zZJoh6UBR1Gokf3K3c8qrSz+eO8NiwgEA2w4FLADYRtY/BhbPkuz9kqYSkVxbI+kGl64LzK5VPbm2u62lf5u/ocrdOqrJlZKOyFl8Uple2lOJ/sBQwZbqWBa/VIGuyOF96MU9rdFx2/za4F4aM1CbGqSlGQo0Q+4zJB0g9tXKuzvMdLbVwrnzp9t/CQcAjDwKWAAwwk4c8GdF9eQUHhPMrVhS1dyvS03XBW7XrU7Cvy6abrWsG9bZX5vjsvNyFzHX13vaog8ydLD1Yzv5lstPzd3Qdntjb1t4Sdbt6Frs4crda22ltHSQmx+04fHDg0RRK4+GzP2HHviZPZWWmwkHAIwcClgAMEJmDwztm6alD0h+gqQWIpKbKeotLl0VuK7xQNdED0Q35fExkJNX+LPTJFnq0o65unEw9a8eFR6waA9bx1jC1ppzp4+J19RvlHxKzpp2e83C6RdU7MG8xezUqresseQgpTpMriNkOkzSroym3Egl/dwCfb17SrSYcADACNyHEgIAGF7t1fh/zPVxSUdzns3ckKTrzXRN6nZVOSldM3cf+1cjNLyjv3aBZMfnrFkeSP8zvzW6kqGFYTpX/i5v50k3O6e3Er63EWLYuWywTUFwaOrBEWZ+mNY/ns51J3vXu9mZe00p/Xhr324JAHgyLnAAMCwzHrf2gfox5v4JSYcSkMzcJelv5rpOpj+tHh1e1YgrhTqr8dHuujx3w1z2nd7W8N0MMwyXjv7kO5K/M2fNShXoRT1ToqsbLZ4nVH27Fk8OkesINx0u6XBJoxlpmU21VrjSb60dHc1l1SoADMNZlRAAwNbrWuzhqt3rb5X7xyVNJyIZcS02q5/c3TpqRaN3Zf1m//WbJJ+cs6bdEZXC6XMn2wMMOAyXDW8l/Kdke+TsDvmm6IHwoEZ/y9ypVW9Zq+QleSyIF8yd5vqaPJzLm1sBYOvx6nYA2MpJQUe19u5Vu8VVuS8UxausJ5ut3ZWWlc3QlXGDyadzWLySmZ1C8QrD7YKKPRgoyN+qPtfzauOTjzR6fM+q2FDqNo6RlrkJbvo/Bcmqzr64q32l70BIAGBrbvkBAJtt5hIvjw/rb3XT6ZLvTURydEFL/eDuqeVrG7kPJ1WHpgce3CApytfNgl/U3Vp+G6MMI6Wjr7ZQZm/PWbOG3NMDettaljV0bPtrvZKdxCjLldUmnWtx+OX50+2/hAMANg8rsABgM8xc4uXO/tqccVGy3M3Pp3iVP2722kZuf5d7UFJwnnJWvJJ0bxBG72eEYSTV0+j9Wr+HXZ60mAXfkXvDfuHb5R5I9kpGWO6Md+ljaZSs6uiPv3nyCn82IQGAp0cBCwCewqlVb2nvr506LkpWuOw8SbsTlZwyvb6Rm39rNT7ZXYfnrmFuH5q3t93FAMNIWjDN7jWz03LYtJd0VuOGXb20annyQkkUR/JrnKTT6klS7azGnz9+le9ISADgqW73AQBPMtO9NHYgPslcp0u2JxFpDEES7jV/H1vVaO0+eYU/O02SpS7lbfJyeU9rxOoNbDOd1fgn7npDzpp1ryyc1lOxexotnu198RfN9HFGVsNMzO5z11eSwfBbC/e3tUQEAJ5wr08IAOAJE6j++OVjq8n15jaf4lVjqYfx6xqx3WkcfyWHxauHTPVTGFXYpsdCGL7bpPty1qyd5fUzGzGeZnodo6pxuLSjTF8IRye3tFfjj7Wv9FFEBQAeRQELADZo74+P6qjGf3PpNybtR0QacLKmxtsHq70vfpHnb/NqufyT3a2jVjCqsC31TrJ/p+Yfzl/LvKOzLz6ikWLZ2T+4t6R9GFUNaRdznam4fnNnXzJr/V5mAABOhgAKr72/dkBHf/wbk34t1wwistWSHLThJXOW+/aNErCuxR7KdLby90j/n/eqRGcxpJGF3ilRj6Tf5KxZlprO6VrsYaPEMVWQh4L+aklrGNVbOejkk9z8/FuqyQ3t/fFRRARA0VHAAlBYnct8Qkd/cp7JrpX0ciKyVR6S9DNzO8nScKKkWsbtKcdJvWH2bLp19/i9OVztV0stPbnLLGV4I5tZu3mQhO/Q+uJHjooJ2u+WCclpjRNGy8Pjg90ehbu62eskmyvpbgb41o09k37d0R//ZtayIVaIAyjy+RAAiuXEG31sNCr5iJs+LGksEdli/5Xs0kD68RgrXXFWxYYe/ouOavxbuV6abfP8wp7W8gl5D2L7Sn+OxUmfpO1ydWPgOqO7LepimCNrHf210yT7Zs6atbru4bQFbXZHnmM3Z7lvH9eTeyRFmZ5PTK/orkS/fvh/z1zi5bEtyUsDt2Pd/Q2SdmWkb7G6ZPNKYel03hALoGhYgQWgONyts7/WHo5O+t10uihebYl7zOy7ZnpF9GD4nJ7WsHN+a/jzxxavJMnkl2XdUJO9as61HuU9oFaLv6KcFa8k9Y0Nwi8y3JEHayrROZL+lrNmjQ8t+XreY7dhJWrW58HVYxX+4bF/sGi61XqnRL/qroRz1lTC51qgl7rZOZLuZMRvtpLk76wnSbWzGn/81Kq3EBIARcEKLACFcNJA7aAgtbMlvZBobPYF4j43+7Hq/v01beEfFpnVn+7fzB4YnJKmpWrmjU/1sp6p0e/yGtvZ/fGLU+n3ObsOu1K9PM9xQ/HMrtYOTN3+KilXe089cWVR3rT3175nsqxXol7c0xodtzk/2OUe3NqfHCbZ29x8pliZtSWq7vb+3rbwF4QCQAHmJwDQvGYt9Z1LpfrnJX+HWHW6OR4y+U9lwfdX10q/WjTdtnhPq47++GZJ07LshEvf6G2NPpDHAHct9nDVbskNkvbNU7tcfkFva/ntHALIm46++Gsy5e14ro6z8HlPXIWao3PMXZJ2yvis0tnTWu7ZmvbfOqF+lJS+zc3eIGk8R8Fm+Vlq9fefXxm1nFAAaFYhIQDQjLrcg1ur8RxX8jlJOxORpxRLutzMLhpVK1167nR7pm+MukwZF7Ake73cPygzz1uwb9ktfo/J9s1Zs+4Pw+hDHArIo9FJ+Jl1UfwmyfbIUbMqazz5sKTP5y1et+6RvEhp1sUrpaUw2qoVQV1HWiLpl5J+OfM2Hz12sH5MID/eXa+SxONym3ZM4KWjOvrj/4vGhV+YO8EeIiQAmg0rsAA0nQ2PnJwn6WCisUnu0h9NfmG9Hv1owTS7d7h+cXtf/CIzXZn5BS71g7unlq/NU9A7qr6rPOmXtEO+7gb8lJ5K+dscFsirjmryerlfkrNmrS1ZOHVexW7PU6M6+5Jz3PyUjJvxl57WaFgf2W9f6TsoiY8N3I536UixqvqpLvG3mAendLeFvyQWAJoJJ34ATWPmbT66sy/uSt3+LIpXm3K7SV9KrV7pbY1e0tNaPm84i1eStLY1vFrSfzK/fQ9sZv7mFPXPKW/FK+lva6ZEczk0kGc9lfBSuS7NWbPG1j3+cp4a1OUepOZvzEFThv2FHr2T7P7eSrm7uzV6ed3DPd30cUlVjo6Nsb3c/Bcd/fFlJ1d9d+IBoGnOboQAQDNo70tebZaeI9leRONJBm39ZGJudyX87bZ4rK6jr7ZQZpnup+Sylb2V0uS8PEbY3l87wGTXSirlaGzUA/OD51fKN3CYIO86BnwPpcnNksbl7G76f3oq0R9yEaNq/BK5fp95SNwP6G4r37gtPmv9S1qCOZK/TeyXtTEPuPz0vSrRWV1mKeEA0MhYgQWgoZ044M/qqNYuMvOfU7x6HJf0B5N3jI7DXbtbozd3t0ZXbKtijgXBZVkHwOSTTloePz8/c1z7hvJVvJKksyleoVH0TLHbZP6ZHJ5tvznTPRfHtrkdl4OA3NbdGv1jW33a+VPK1/W0hu9M1oXPdbNZMv1OEoWaR21vsm/cOpBc2d43NJVwAGhkFLAANKzOavLmME3+Kbe3EI2H51H6l6TPmepTelqj/+luLfcOw6bsWywMSpdLqmUdj1Kaj8cI26vJTEkvydlwubNm4Wc4atBIJt4enSUpb0XX/ccOxO/MuhFd7oHLj826HebBZVmsfF24v63trYQLeyrRy4Ik3NtcZ0i6g6Nmw/2B63Cz4PqO/vjDeSm4AsAWX2MIAYBGc/wq33HUYPxNNzuRaDxyMr9Obt8KV5e+P3eGxXloU0c1/oXWvzUquxv2HDxGOPM2Hz1uXXxz3lYIutmbeyvhIo4eNJrOZbUZHtiflaMVjSbdF3rYOrfNMtv/r7MvPsJNf8xBLI7qbo2uyENe1r+ROHmppDkuHav8rYLNyp/d047etpZlhAJAI2EFFoCG0tGfHNMylPyT4pUk6UHJ5gZB+rzu1mhGd1u4IC/FK0ny1H+S/UTKJ3UMxAdm2Yaxg8lHc1e8kn5N8QqNqntq+VqZfTtnx9SOsdX/N9M2mN6Ug1DcHz4Y/iEveekyS7tboyu6W6M31z2cuGHj99s5ivRCs+CG9mr8MVZjAWgkFLAANIQ5y337jv7aBZJfJmlCoYNhutbNZ0fjwuf2tIbvnD+l5Z95bGa9FF0qqZ75xDLDxwg7BnwPc300Z6lZ51Y/hbMKGllNpU9JujNfrfI57f21A7L5aDfl4vFBvyxPX6Q81oI2u6O3En1pTRxOlttb5Vqs9ftFFtUoc505tpr8bvbNPpGzCoBGQAELQO6dtCw+PK7Hf5fs+AKHIXb5Be5+SE8lOri3Uu6eO8EeynODF06xuyX9KfMJlWVXwLJ6/HlJY3KWmi+cXxm1nDMLGtkFFXtQZu/LWbNKG17WsM21D8QvkGyPHEwtfpL3sbNoutV62sIf9LRFL7W0Ps3czpW0tqjHkkkvTsPk7+19yVs5swDIOwpYAHKra7GHHX3xGUGgPxT4DYP3yvRFS8O9elvLb+9tK/+tkRrv8hxMZnzy7Gptmz9GeNJA7SA3OyFnKekbZ+FXOLugGfRUwh/J9MucNeslHdVkmz/KZ7I8PD74UDi+dHkjjaHuqaP6utvC9wRxuKeZPqHibvq+g5l/v7OvtuCEqm/H2QVAXlHAApBLnf2De6/aLblSps+omJuuLjP5u6Nx4Z49leiT3VPtzkbsRFqKfqIcPKKRatuvwgpS+2rurrOm951VsSHOMGiaG1mrnyYpV2PaXV9uX+mjtuEHmtyPy/z0Yvp13lcGb8r86fbf7kp0ZvRgOMnM3i7p+iIeT252YuT1v3dW40M5uwDI5XWfEADIm85q8jqpdK2kwt1AmekqN3vzmkq4b3dr+TuNOhl42ILJdquka3NwV/6Wbflx7X3JGyS9JGdj65KeSnS5gCYyf8qoATN9NVfHmnySaskHt9Xnze6PD87DKuVUdnGjj6e5MyzuroQX9LRGB5nrRSYtUg72ctzW49ddV3b2xV3r91YDgPyggAUgN7oWe9hRjf/P3S9xaccCdT0x94VBkD6vuxId0VsJFy0ya54bZlceHiPce1ttrjznWo/M/MycZWFQXv8QZxk0o3Bs+HnJb81VEcD0ic5lvk1eOJKaHZeDLse1culnzTSuutuiP3W3Rm8OgvpUyc5Tzlb6jfRh5abTOweSi9tX+g6cZQDkBQUsALkwq893W7VbsliuD0kqyjd+Q5KdV0qT1u628qy8vk3wGU/kvJ6Lb+XN7M3bZBY3Pn6npLY85cClr3S3jlrBmQbNaO4Ee8gUfDBnzRrnQfyFkT+43VzZvajiMf5w4US7rxnH1/wpowZ6WsN31T2c7NI3JD1UlGPLXW+wuH5dR7X2fM40APKAAhaAzJ3UF7+sZMn1ko4oSJfXyvV1S8O9e1rDd82bOnplM3e2e+qoPklLMm9I6seP9OMQ7St9B5mdnrMpyK3lceGZApr5PNMa/ljSb/LVKjtxdl/tkJH8hI7lyaEmn5T5Wcb8J80+xha02R29rdEHZOFeMn1R0oPFOLp8b7ld1d5XewdnGgBZCwkBgCy199feZ9L/FeR89ICksyMPvzG3zf5TpDyb60dump5tI2zi7GryovnSlSP2GXHySUm75GrqYcGHG30vtTyZs9y3T5J4Lw+CvZSme3hgOwduO7vSnU0WuTRWUnnDj68zadDdh2R2r0n3Sn5P6sGtFtRvWTOqvHLRHraOqA7TWPf0NLPgxsfEP2tBavYNuR8usxF5mYXV7QS3zN+TUVcYXVyUcdZTsXskffL4Vf6VllpyqlynSdq5ybs9yszmdvYlB4SrS++fO8NizjgAMrmdJwQAsnBq1VvWeP3bkncUoLv/lfS1qBSePXeyPVDEfHdUh/aRB5mvwjKz73ZXwjkj8btPXrZuUj0Il0pqyc+MXot72qKXcsbZOrOW+56lev1wlx8oaX9z7SfTc4Y5SbdIdpOkf7jbtfVS6eqFU+xuor912vvjL5v0kTy1yd3e1tsWXjTcv3fOtR7F2yV3Kvui+e97WqMjizrmTlni4waj5N2+ftztWoAu/z7ycGbRvogDkA8UsABscx1V31WeLFLO3tI2AtaadHYahWf2TrL7yXv8D7mel/FF776xFj73rIoNDX//ahdt67cdPo2knqYHLZja8g/OOpvn5BX+7DSuv8ItfaVkL5K0eybj1NTvsivN9auwVLqiqIXvrS0mrIuSZZJ2y0+r/JZxFk0d7vNOR39yjOSXZT+Z8Hd3t5a/U/Sxd+KNPrY0JnmvuT4uaYfm7q3flgZ64/lTytdx1gGwje/lAWDb6ajWni+3n+ZrcjHsBuX6toLwixseNYCkjv74U5I+l/ltt+y43tbw4uHtW+0Fkl2Ts+vqN3tao/cz8p7a7Jt9oofJm12aKekg5W9/0ESmK+X+Q1l0MeeUzTkek7dJfmGubrhdH+5ui746zOedCyV7W8ZdqydBOIFVg485pyzxndIo+Zik90oa08RdXWNmJ3RXwp+SdQDb7HpKCABsK+398VEm/UjSdk3axdjcLwq8fnqzb8y+NU6qDk4OvDSQg6Zc3NMaDetr5zv64z8qXy8huNujsI2Vfxu3fqVE/BZzO1nSCxvofqgu06/NbX74YOmn7EPzFMdkX/w7mfL0WNv99Xo4ZcE0u3e4xnA4OrlL6/dcy9IVPa3RUYy4jYzBqu9qnnzIpfcrT4+WD/c5yf39PW3ls8k4gG2BtxAC2EaTidrJJv1CzVm8SuX+vdTq07rbyrMoXm3c+ZVRyyVdn4OmvOb4Vb7j8E1SkjcpZ2/QNPNPUrx6svblg5XOvuSccHRyp7nNl3SoGuvLvJJcr3L5j+Lxya0d/fHn2lf6c8jsRm5wS+lpkpIcNWmHUpB8arh+WTim/kZlX7ySyRcx2jaup2L3dLdGHy+lyTSZL5BUb8JulmR2Vnt//OWRfssvAEgUsACMNHfr7Iu7ZPZdNeebBn8fmM/oaSufuKFAg6f2gxy0oWXUUDxzOH7RzCVeluuLeQqwSdftOSXqYag9qrMaH9pZjX9i9dIyNz9FzVBIX7+Z/KcsTm7p6E+62/uGppLpR82f0vJPl87OWc7e0758sDJM19a356BHiVv0E0bbU5s3dfTKnkr5pJLS52n9F3lNx6SPtFeTRTNv89FkHMBIooAFYMTMdC+1V+vdbjq9CW/XlrvsuJ7W6Mj5lfINZHsz51z15IeSMn/nu8uGZfI3rhy/R/IpeQqxy9/TZZYy2qRZy4b26+yPf+iuq931hia972mRvMMsWNLZH/9w1tLBVjK/XrkUdsn17zw1KaiXPv9Mf8nJK/zZkl6W/XlUv2NPts03r7VlaU9r9Boze72Z+pvurkg6bty65Bedy3w82QYwUihgARgRM5d4eWw1+YHJ25usaw+Y9NFxVpo+3BuBF0HvtNG3SPprDppyRPvSdXs9k18we4nvZG6fzlN8XXZ+T2v5L0UfZ+1L1+3V2R//sBQEf9+wOXsh7ulcmlkqlZZ0VJOzZi/xnYo+Dta/vdE+nq9jVG/qrMaHPpPfUU/itygHK5oD8x9yVdty3ZXwp+ED4b4y/6BJ9zVZ9/4nDZIrOP8AGLFrDyEAMNzm3OljxofJpSYd10Tdqkt2XhKErd2t0VeG+3XohWKeh8cIzUrhCc9oQETJp13aMUeRXVNOSp8s+rmnoz/+nJXCpRsKV0XckyWU+3vTKKl29NXeO9O9VOQxMbG1tFCma/N0BpT0lWf4K47PQT9iq/H44NaaO8Pinkr560k9rMjsbOVrv7ZnOsAPScvJ79mfD8BIXUQBYNicUPXtIk8uM+nFzdInl65UPX1v77SWm8jwM3dy1Xeve7JK2X+JsrSnNdpna/5h+9J1e1kp7JNUztEF/TPdrdFnizqu2vviF5npu5LaOMoe5waZn9xTKV9f8LFxZa6uK2av662El23pv5s9MDglTUvVHHThFz2t0Ws4vIbputg/NC1VcJbn4NHQYbsmmfqTIDxqwWS7lQwDGC6swAIwbE6o+nZlT37dRMWr/5i8o7cS/g/Fq+Ezr2K3S7mYTE47aaB20Fb9y1J0unJUvJJ0ezgu/GoRx9OJN/rYjv7kPDP9QRSvNuZAuV3TUY0/07XYwyIGoLct+qNLP85Vo9w/1+W+xffhdS+dkIfmm9mFHFrDeF1sbVna3Rq93MzeLumuZuiTu1pL9fgPs5b7nmQYwHChgAVgWJyyxMe1KPmFpBc0xX2X2/x6PZza3VrulZmT4eGe/Pj3ctGOdMs3c++oDu1j8hNzFU+3T82dYA8VbRx1LqvNiMYk10s+R6wqfypluc64ZbfkqtkDg1OKGAC3+sck5ebRb5P2u3Wg/rYtvDKZufJQwFo7qla6lMNq+HVXwgs8Cqe67DuSmuBlHLZXqV7/3aw+343sAhgOFLAAPGMzb/PR68Lkp+46vOFvtUz9SvXy3rbw5AXT7F6yOzKGFC2StC4Hk8gTT616y5ZNIoPPSsrTvkI37Nla+l7RxlBHtfYBD+xqd/HWvc0f74ekaem69v7k2KL1/fzKqOWSzspTm1LXZ2cu8c1eydnZnxwuqZJ9y/3Sc6fbGo6okdE7ye7vbQ3fLfODJf2t8Xvkk0uWLO5c5hPILoBnigIWgGekfaWPGrcuuVSmIxu8Kw9J+lj4QLhvz9Tod2R2ZF1QsQcl/TwHTdl5teqv2+zx3lc7WNIbczU1MH2wyywtytiZeZuP7uiv9crta5IijqYttp3Jf9TRH39zzrVeqPh5FH5e0j15aY/JJ40rx7M39+dTWXsu4ujBBRxGI6+nUr5+4h3hYe76kKRGLxhWPEh+c+KAP4vMAngmKGAB2PqJpHvJaslFko5q8K78MbX6fj2t0ZfnzrCYzG6r2Zvl4zFC99mb32T7vPL0qJrr0t5K9PuiDJn2lf6cceuSqyQ7iQPomQ17Sacl45Ofdi7z8UXpdO8ku9/Nu3LVKLf/N+dOH/N0P3bijT7WzN+cgxbfU15d+g2H0LbRdaQlvW3R17yePE+mRv9ybZ8wTX5VpHMOgOFHAQvAVhs3UP+GTK9v4C4MuunjayrhkRseL8E2tKZW+qWkPDymedTsm33i0/3Q7P74xcpXsTaup/WPFmW8nLxs3SSLkyslHcjRMzzc9EovJVcVaZPltVOi8yT9M0dNmhCvSd77dD8Ujqq/SdL47MeM/ZAvera93mmjb+mZEr7c5O9UY6/GOtAtuXSLH90HgA0oYAHYKu3V+HS5v7dR2+/SX93TA3sr0ZcWmdXJ6La3aLrVXLYoD9fCNEqedkVPKp2ZsxCeu2DaqP4ijJXZ1dqBdQuvVi72/2kyrueV6vGfOpcNFuINjovM6uaWt8LvJ45f5Ts+5U+Yd+Rj4uA8PpgVM+9uLc8tpcl+kn7fuP3QkWs97t2at3ACACcOAFuso692srm6GrT5sUlfKj8YHtHb1rKMbGZ8EfKcTIbcT57pvsmN2TuryeskHZqf+3/dV6+Hny3E+aYavyR1WyzTczhiRmxE7eFB6crOvtr+Rehtd1v4S0mX56hJO7QMJR/a1F+evGzdJEkvzsE4Wd49Jfwzx0u25k0dvbKnEr50w2qstY3YB5e99ZZqcibZBLDFcwdCAGBLtPfHR8ns2405R9NN9TSd0d0afZxHIHIykWwNr5JsRR4m8OMHkpdt7G+63AOXfy5PcUtdnyvCWzLbB+JXynW5pO05Wkbcs9zsd+39tQMKcQMcpB+WlOSoSe8/eYU/e2N/UbewXbnYe8+/LzPnUMnD/cyG1VhKD5bp2sa8JdNHOvtrc0gmgC26fhMCAJs9mVy6bi+TLpQUNtyNkvvCaGz4wgVTW/5BJvN1E+45eSTF5Z0b+/NVA/Xj5XpejoK2YnwQntPsQ2N2X+0QS7VIEnulbDs7mezXHdWhfZq9o/OntPzTZfNy1KSxaVL/1JNPTG5udmI+Tj3p9zlE8mVea8vSibeHh5rrDEkN9zZal53dUY1fQiYBbPaliBAA2Bydy3y8B8nVkvZtsKY/KLc5PW3hD8hiXsfWYJsHpTw8zjkUebj73Db7z8N/MOdaj+Lt6ksln5yfK7fN7KmEP2rmMXFy/9C0uoI/StqZIyQTd3g9OaJ32uhbmrmTJw74s8I06Vd+VvjVvJ60PTbuJ/XFLwtMV+RgxnBtTyU6mEMjvzqqyevl3i1ppwZr+l0KwoN7pthtZBHA02EFFoCn524qJQvUYMUrk65Lrf58ilf51j11VJ+ka3LQlJYkiN/+2D9Itotn56p4Jf2p2YtXs/p8t7rbL0XxKku7WSn8xdNuLN7gFk6xu930xRw1qaxSdPrjrmM52bzdUu/lsMi3nkp4ab0UHijX1Q3W9GcrTS6Zc6ePIYsAng4FLABPq70/+YS73tBATXZJ3xpr4eHnV0YtJ4MNkDD3nny0w2Y//N9n3uajXfbpPMXJTB9t5nEwe4nvVLLkcplN5KjI3LSWweTHM5d4uZk7uXZU+C1Jt+fmGJef+PAjnHOW+/YmOzYHzRqyJOLxwQawYLLdOvHO8CUmfWnDvVCjeH5tTf0cMgjg6VDAAvCUTloWH26mMxppPiKzN/e0Ru87q2JDZLAxxEH0A0kP5aAp+3b0114gSePWJadKmpCbia3pku5KdE2zjoEu9yCNkgslTeeIyMug05Fjo/o3m7mLi/awdWbelaMmleTBZyUpqcdvkTQ6+2Ggn86fbv/lgGiQc+mRlnS3Rh93t2Mk3d84pxtv76wmJ5BBAE+FAhaATWpf6TsEgX9PjbNp++1p4C9p9kesmtEFFXvQ5T/JyaWxc85y317K1Wqnel3p/2vmMXBrNfmCpFdwNORuUvmu9mqts5n7uHpK1Cvp5hw16dj2au2FLstF3FO3Xo6ExtPbFv7CS/VDJC1tlDa7+3c6lw22kT0Am7xLJwQANjlxiZP5ku3VIM39UxKEB50/pXwdmWvQ8ZZad05uod8WJ8npytUeTLbg/ErLkmbNfUc1eb2ruR+PbOhj0+2czr7a/s3av0VmdXP7fzmL+XclvSDzs6H0r73uLP2ao6Ax9U4eVfUoPMylRsnhOAWlC06tOm+fBbBRFLAAbFR7X+0dko5thLa62/w1cfiyhVPsbjLXuCa2hb+X/JYcNGW8TB/IUWgG66VSV7Pm/eQV/my5nyfejJxno9zswpm3+ehm7WB3a+kSSX/OUZPy8tKU73UdaQmHQOPqnWT3r62Er5br6w1xTycdtNaTM8gcgI2hgAXgyRPKqu9uZl9pgKbWXf7+3rbw5EXTrUbmGluXWWpu5xOJJ93Nf3vBZLu1OfvmliTJAknPJtG5t8+4wfqXm7Z3Zi7Tx0nzE8OS9hKFxrfIrN7TFn1Q8k5Jud8f1KUPtffVDiZzAJ6IAhaAJ6mnydmSts95M4dk9tbe1vI3yVjzSNOkV1JKJB6xOimFZzZr5zqr8TtNOpo0Nwj395zUF7+sWbvXU4n+INMvSfQj/tJTabmZMDTRGG8t98j0CkkP5LypoZmdz6OEAJ6IAhaAx+moJm+X6fU5b+Yak45hs/bm0ztt9C2SriQSj/hysz4a27nMJ7jsi6S4oVhg+nYzP0roSfoxUUTfkG1nRWwTWl+o9ZdKyvu1ZdraNPkEGQPwWBSwADxi1lLfWe553yPhLpe/qLs1uoKMNeucyXqIwvqxPjoOv9G0hQJLzpW0A2luOJVxg8mnm7VzvdNabpL7haRZg0Pl6CLC0Jx6KuXrvVQ/Iif7Tj7FdUKf7KgO7UPGADyMAhaAR4RB/X8l7ZLfFtqK1OqH97aW/062mlc8WPqxpAcLHwj3z5073dY0Y9dO6otf1gArPbHJsakPtS8frDRr90pe/4ykgu+r6D+5cKLdx2BvXr2TR1UtjQ6X9M8cNzNyD75OtgA8jAIWAElS+9Kh57n5nBw38Z9RUjri/Mqo5WSruS3c39a6rOArIGzFmiSa24w9m+leCkzfYKQ3tHKQlpp2Q/d5U0evlPSdQmc4tXkM8+bXPdXuHGoJX6x8vYHz8VdD6ej2avJasgVAooAF4OEbhFLwVUlhTptXjZLw6Ln72L/IVEEuTp4WevLo0qeb9c2a46vxOyTtyyhv8DHqekNHNX5Js/Yv8vCzKuxKUFvR0xYuZpQXw4UT7b6aha+Q9LfcjkjX19nQHYBEAQuApPa+5A2SjsrnRN5Wlix8KcWrYuluK98o07UF7f6Ne1VKTbn3TPtKH+WyTzHCm4NJn2/Wvs1ts/+46WtFzKubz5WZM8KL44KKPVivh69y6R85HZWTV6fJe8gUAApYQNG5m8zPyGnrbg+UvHxexW4nUQUcmqnPLegh+ckus+Z8C1ocv1PS7ozuZhmrOry9Pz6qWfsX1MOvKf9vahv2o1RhyNsHC2jBNLs3DMOjJS3LY/vM9LETb/SxZAooNgpYQMF1VuvHmrRfDpt2l6X1l3e3jlpBlgp6gfLoIkmrC9btP/W2hb9oxo7NXOJlk32Ukd1cTPpMs/ate6qtdteXCpbSy3on2b8Z2cU0b2+7q+7hyyXL473Xs8LRrMICCj8/IARAgblbKs/j5GO1ub+ie+qoPpJUXN1TbbVk3y9Up1Od3qxdGx/Fx0uawMhuOkd0VuNDm7Vza8eE33apMI+we6DvMqSLbUGb3eH1+GWS7sph8z58yhIfR5aA4qKABRRYe7X+xhyuvkrN7O3dbeUbyRAsTYs0mfpDz9Tod007MZa9nxHdpLl1fbBZ+7ZoD1tn8jMLkshVe00Of82IRu+00beY6Y2ShnLWtF3XRckpZAgoLgpYQJGLA+4fyt39s+mT3ZXwp2QHktQ9tXytpOsLMXc0dTVr3za8rW5/RnTTemPHgO/RtMdmFM2V1Px7MQbW3bT772HLr7+V6Bo3e0cOm/a+Odd6RIaAYqKABRRUe3/tAJkOy1ObzH1hbyX6EtnBEwbGvObvo37XW4l+37QFAPd3MJCbWklpclKzdq53kg2aN/0qrLQehL0MZTxu7FfChZK+nLNmTYi3r7+e7ADFRAELKGpNQMFp+WqPrls9JnonmcGTxkY9+p6afDP3wHVGs/atfaXvYLJjGcnNzmd3uTftfeXqJPqu5Lc0bfakXy6YbLcyjvFEEyvhJyTlamW8u59KZoBiooAFFNCspb6z5G/NS3tMui+w8A2L9rB1ZAdP1D3VVsvsB03cxd/Mb42ubNobjTh+q6TRjORmZ3vdVk2OaNbeLZpuNZO+2Lzps/MYw9iYLrM0KoWz5L4qR/eNL561bGg/sgMUDwUsoIgHfik+Pk8TSpe9Z17Fbicz2OQY8fSc5u2bPtvcubM3M4KLcpzaW5q5f+GDUY9kK5owc7eunVL6BSMYmzJ3sj1gsrdLquelTSUL2skMUMB5LCEAisfccrP6yqUf97SG3ycreCq9reW/S7qm+Y5F/aq3Lfpjs+bt5BX+bJlezAguBjef2bXYw6adxM+w2C39fNOdh8y+vciszgjGU+lui/7k0tfyc77RW2e6l8gMUCwUsICC6RjwPWQ6NCfNubMUh3PICjZzlnVuE074u5o5ZfU4fq0kJhjFseutE5IXNnMH106JzpfU10RdqsUWdjN0sTnGW/hpSTfm4pZAeu745QlfkAAFQwELKFoNIE3euv66n4u7j8750+2/ZAWbY5xKiyTd0yz9cennPa3lvzT3CcdexcgtFje9spn7t8is7mZNtArLf7Rwit3NyMXmOKtiQ15PT5RUy8kJ521kBSgWClhA0SYXUi7eBmamS3oq0eVkBFt04+ya3yyHYpA29+qrDY+SvYyRWzhNX7RcO6V0oZpkFVaaNt/KVoys3mktN0n6di4upO5vaOa3nwJ4Mg54oEDaV/oOkg7OQVPiJKl/jIxgiydbYfht5WgT2Wfgsu6p5WubOVe37B7PkLQ9o7ZwDpy9xHdq5g4uMqu77H+boCs3nj81uoohiy011BKeIeneHDRl19sG4v3JCFAcFLCAIh3wcf1lysF+NCb7zoJpo/rJCLbUgsl2q6SfN3g3PGjyva8kydyOYMQWkqVR/bBm7+ReldJFkpY0+Kno2wxXbI0LJ9p95vpiHtqSuh1FRoACzWcJAVAcLuXhIn9/Ui+dQTaw9dNjNfQjL2a6dH6lfEMBMnUYg7Wg1xr3w5u9j11mqdTQe2E9MDqOLmC0YmuNDcKzJVuRg6ZQwAIKhAIWUCx52I/mqwum2b2kAltr4pTwN5Kqjdr+NPUvFCRVhzBai8mkFxShn2sqpR827LnIbOG5020NoxVb66yKDbmpKwdNOWLmEi+TEaAYKGABBbF+/yufnHEzHqrXQx5ZwDPSZZa66zsN2vzf9LaV/9bsOZq11HeWtBujtaBMhdiTZv0bCf3MhpwAWP08BiqeqfIDpYskvy3jZozarhxPJxtAMVDAAooiSQ6QZBnPahay+grDoTYq7JH0UMPN64N87Bky0kqWsKluse3UucwnFGMCHy2U+6rGOhHpd/OntPyTYYpnau4Mi90t8y+UXHo+2QCKgQIWUJSDPdVB2bci7SETGA4XTrT7XLagwZr9l+4p0eIi5McD59vwgkuDpBBjYO4Mi036SkMdn7JvMEIxbPeXHvYq47cDpwoOJBNAQc45hAAoCs90RYSZ+ntay38hDxguoerfkuQNcwRaQ2/4vKVH/N6M0GIzeWHGQFqO5rv0rwbJzIq9ppR+zgjFcOmeandKuiLTUZ06BSygIChgAQXhZlMyvcFPdTFZwHCa19qyVNKvG+L4k/7RO6X0s8LcXJj2YoQWm8kmFaWvvZNs0KSvNUReLD1r/RsUgeE83v2SjBswmSwABbnHJARAUfjuGTfgF+QAw37P6vbNxjj87Isy86LkxV0TGZ0Fv+KY71Wk/o6Ow+9I+k/Om7kmDCIe5cfwTygt+pmyXRH9rPaVPopMAAU43xACoPnNudYjybLcUHdwbRLy+CCGXXdr6VeSlua7lbZ8rztLPypSXlx6DqOz4NyeXaTunjvd1pj0rXyfiqx37mR7gMGJ4TavYrdLtjzL0V2qD+1OJoDmRwELKIDa2MHdJJUynM1ev2i61cgERmBC5m5+dr4n8umZXUdaUqi0SDsxOIt+bGrnonU5LIXfknR/Xs9EntbPYWBi5G710ky/qEyT0p5kAWh+FLCAItxURKVsJxJmN5EFjJT6Q9H5Jt2X0+bdviaJFhQpH53LfLykFkZmwa87rl2K1ue5k+0BM52bx7aZ6/LetpZljEyM2BiT/SPje81dyQLQ/ChgAQUQpjY246nMCrKAkbJwf1ubSvNyeUNv/tWirT4MU41jVMJUzHGQJOHXJK3JW7vSkr7JqMSI3umZrcz2epuOJgtA86OABRRAasr0om5md5AFjKRSEp4jKW+P6f0nfij6btFyUbNBVl9BKugqvAXT7F658nbc9/VODi9nSGJkJ5V+e6YNcI0lC0ARzjUAmp6lNibbe4r8fRuN5jJ/H1sl6ZKcNeubC/e3tUXLRSorMyIhqSx3K2LHvRx+WdJgbu4B3M8q0ltQkdG5P0mzvdezbO91AWwbFLCAYhzpUab3FKnYwB0jP2l0y9Pr4dd5FJ5dxDyUS1ZiNEKS5lynsIj9XruX7pH83/m5BwjuZzRipKXyoUzvASS+PAEKMa0FUASZfhOc9SOMKAYzPzJHzRlt9WSfIubBA48ZjZDkc2dYIcfC2P76TMn2yk8m/AMMR4z4NTgKxmc7zLWOLADNjwIWUIhphD+U6U2N0u1JAkbSiTf6WJNm56pRqT5exFzE1sKKS0jSUCF77W4y/0SumiQd1DEQH8aQxIiq2w6ZTmot23tdANvoWCcEQAHuKdJsv5Uyt4lkASMpHBPPcmnHnDXrmI5q7flFy0XZClq4wBMVchx0DNRfZ9J++bsR8PcxJDGyk0qflOXnpxasJQtAEc41AJqeBZ7pRd3lk8kCRm6AucntvXk89CR9tGjpeGCd7mNQQvJCjgN3/2Q+bwTs2I4B34NxiZEbYjYl24NPFLCAAqCABRRAGEb/yviu5iCygJHSMZAcLSmf+025valz2WBbkfKxaLrVxJtHmczK7i1anzur8dEmHZLXWwGvJ6cwMjFylzsdnO1JJ72TLADNjwIWUADzJuluZbuRe9uc5c4+WBiZm2bXqTluXikNwgLuheX/YWQW/LiUCjcG3PXJPLfPTHPm3OljGJ0YbjPdS/JsC1ihotvJBND8KGABRWDmkm7L8lyT1OsvJxEYbu3LBysmvSrXh5/8hJOXrZtUrMzYvxidxeYFGwOd1fhQSS/JeTN3itfEJzI6MdzG9ieHScryLYTxA1PEdQcoAApYQFGmk9Kt2U5m9BqygGEf12l4WgNcy6J6EH2kWJnxWxidBT82zVcWasS7Tm+QzJwmd2OEYniPdx2T7T2m3b7IrE4mgOZHAQsozN219WXcgNefWvUWEoHh0rnMx8t9VoMcgJ2z+ny34kxmbCUjtOCXHBVnDMyu1g6UdHSDNHef9mrCimgM48HuJtlx2V5zfBmJAIqBAhZQmMlEekPGTdhprdePIRMYtjFdik+WtF2DNLclDJIPFmc+4wOM0GIz8+VF6Wvq9mmtf+too3gfIxTDpXN58j/K+m3TruvJBFAMFLCA4hztmV/cXf4OEoHh0OUeyIP3NFKb3fXOOX2+SxHyY6luYpQWmtc8/GcROnpSdWi6pNc31PEpvWr2wOAUhimGRepzsh/U9ncSARRlSgugENbUon9KqmXcjFd09tX2Jxt4plZV66/O/BvfLTc2tqQQKx9Wj42WSGI/koJy2S0XVOzBQtxIu32yAe+nA/fSuxmpeKZm3+wTXfamrNthnrACCygIClhAQSyabjWX/p6DpnyIbOCZT5D9XQ3a9FPnLPftm/58s4etk9THSC3ozaX5jYWYvA8MTpHsLQ16Eu2Yc6ePYbTimUjD5IOSwoybcU93pYV9F4Gi3GMQAqBIkwpdkfk9s9kJ7f21A8gGttbJy9ZNMulVDdr87eN68t4i5MndrmG0FpTr6iJ0s14PPy6p1Jgp0o61tfFbGazYWhseQ838yyST/1ZmTkaAgsxnCQFQHKn0mzycd8zsq2QDWz2Og/CdDX79+kDnMh/f/HcY6dWM1mLyQFc1ex87+wf3NmuUt6BuYuLv9h5GK7ZWPS2dKamc+T2B5eLeFsC2ur0kBEBxrK2FV0tak/3sRi/t6E94IyG22KlVb3Gpo8G7sbMHyWnNnqs0Sf/EiC2kdeM8vK7px7fCT0uKGrwbz2+v1l7IkMWW6qzGh5p0bB7aYhZRwAIKhAIWUCCLpltN0u/z0Rr/ctdiD8kKtsQa1WdKelaj98OkDzX7XlgLpo3ql2wFo7ZYzPWHsyo21Mx9nD0wOMXkb2+KiUCqUxi12LLbN7fU9Y31l7LM3dwzxW4jKUBxUMACCje5sEU5acq0WyYkHyUj2MIb56aYbLm0Y5IkH2j6dEm/ZtAWS2r+q6bvowefVvYbVw/PMWo2s6PquzJysbnaB+J3m3RIPsavfkhGgGKhgAUUrgBQ+omkdXloipnOaO+rHUxSsFk3zes3/z+0aQ5F0/tnL/Gdmvomw/RLRm7BbizTtKkLWO3LBytyO76JujTKlXQycrFZ479vaKq5fSUv7UmT+vfJClCw+wxCABRL91Rb7dIvctKc0MzOn3mbjyYzeDpmQbNtOLx9GjX3Kqw0LP1a0oOM3qIcpLqpe+qovqbuYz04XU2y+uqRtLmfMtO9xADGU+la7KEsOF/SmJycb65d/6g6gCKhgAUU8sC3PH1jNW3cuuRMsoKn0r7Sd5D725qwa++b0+e7NGveeifZoMsvYwQXhOsHTX0e6huaarK3Nl/PbM+xA/VXM4DxVFbtlpyel0cHJclTsfoKKOQ8FkDhrI5Ll7n0rxw16dT2gfiVZAabnF7F8SxJY5uwa+MTSz7c1DcaFrBHSUHU6/VFzdw/M/uMpKZcqWTu72IEY1M6++IjJH0iR00aLCtcQGaA4qGABRTQoulWC1xz83TvHKS6cNbSwVayg00MkTnN2jOX3nvyCn92s/Zvz9tLv8hZwRwj40/N/DhPR3VoH8ne0sT5e+Xsm30iwxhP1LnMJ7jpIuWqeGvfn9tm/yE7QPFQwAIKKqyH50mq5WgSv2OpVPpp+0rfgezgcRPHgfgwSdObuItj6/XkI83aua4jLZHrfEZyczP5/KbuYGqnN/l9c+ClpIORjMeaeZuP9iC5RNJuuTrfpOm5ZAcoJgpYQEHN3cf+JfmPc9asNouTH3Yt9pAM4WGe2juav5N6z6w+361puxfU50lKGc1N64F4XdS0jw+eVB2aLrM3Nf1pyDSbzdzx6IBwGzcY90jK29uir+meWr6WBAHFRAELKDLT/0nynLXqqFW7JV8lOZCkOct9e5PPLEBXR5Us+Wizdu78yqjlkn7GiG5a5y3c39Y27aXSgzMKcs+8O5u542Ed1eR/5fl7bNbcvkJ2gOKigAUUWE+lfL1cP81h005r76+dSoYQp/Hxas7N2zdmTjOvwgokCtNNepgqCM9u1s519tX2N+nYoiTT3N/BkEZHX3KSpE/lsGl/724tXUKGgOKigAUU/SQQ+BnK3yosmeybndXabDJUcG5FmkyNClX/ZLN2bn5rdKVLf2VQN91BemHPFLuteS+S1iXJCpTQV59c9d0Z18XVXk1mynx+Hse9uf2vzJwsAQWeuxICoNjmV8o3mOnSHDbN3O289v7keLJUTCcN1A6SdGChSgHmJ7cvXbdX0950uHUxsptK3dL0i83audl9tUPc9fqC5bRUV9LJ0C6m9mryWnO/QLl64+AjWH0FgAIWAClN0s9IqufxRtrk53f2JW8kSwW8QKVBER9lKQdB6X+btXPdbeEvJf2R0d0c3K23e+qovqbtn9kXVKzVVw8nls3cC6izGh9t7oskRTk933yK1VcAKGABUO+0lpvM7bycNi9084s6+pNjyFRxnHijj5X8bYUsCpid0N5fO6B5+6fPMMKbwmCpXvpsM0/mXXpZMVNre47vrx/NEC+OjoH4MHf9WFJLTpt4RW9b+AsyBYACFgBJUpKWPiPpvzltXlnyRazEKo7SmPgtkrYr7rXZPtesneutRL+XdDGjvOH93/x9bFVT9szdXPp8sWcIPochXgzt/fFRSnW5pHE5bWJcUnoamQKw4SYZAKQF0+xeuZ+e4yaOcvNFbOxeDFaszduf3H/pNbP74xc3a/9KafJhSYOM9IZ1x+g4/FLTTugH6m+Sa0aRE+yuY9pX+nMY6s2tvZrMNOlnym/xSpLOndfaspRsAZAoYAF4jIl3Rt+RdGOe573u9t32avwxstW8Tu4fmibphUWPQyqd2ax9mzd19EpzfYnR3qDcPnTudFvTjF3rWuyhuX+WJCsM4uREwtC8Ovtr7zL370sq5/dco38PtYRnkC0AD6OABeDRG/cjLXF5u6Q4x800c53Z0R9/s8udc1gTShWcRBQkSYe29yVvaNbOrU7CL0haQpobjOmXPW3hD5q1e7fuFndKaiPRkkuseG5S7dX4Yy77tvL5tsFHx6DZey6caPeRMQAPY/IH4HF6W8t/l+n/GqCpp62qxt1zrvWIrDWPme4ll/jW/+Fagfnnm/VtYIumW02B5iifb0DFxq2Whe9s2vPPbT7aZZ8mzY9o6+ivvYAwNI8u96CjP/6meQOs8HX/YW9ryH6JAB6HAhaAJxmn8Aw1xMoIOynZPll88gp/NllrDhvefDWBSDxin7EDcdOuSOuZEl0t05dJc2Mwt/f2TLHbmvbaty45VdLuZPoxNQQF7UShOXQu8/G3DiQ/lv5/e3ceJ0dV7n/8+1RX9UxgEkBEEQ0hZHomC4tKFAS8iuKCihtEBSHMTGJQFPH6U8F9vPeiuHAviqJEMjOECy4BFVHUC4qKrAaUJct0TwhhRwUh60x3dT2/PxIwQPbMTFV3f96vV16+HJLpU89zTlWdp0+dUi1siP5YLorYuB3Ac1DAAvAc5xdsyM1nS4ozf3PtOqIaV26euXToIDJXB5OlIOHxwecUDdTdsdyb6/X4JjwQfkHSLWQ642NTuqKnPZxfr8c3Z5nvJulTGYr3w5k4/8jfN+N+H8MIqG2zBgZbPYhvdtc7a+OEYx++aH97lMwBeDYKWAA2qa+Qv1lSd41M8ffLBcENXf3xu8hc7epY7rvL7R0ZaEpZ7j/OUP8eb5X4I/Wa9+6jLPZc9WRJTzIKMnuOvUdROLuej7BSjT8pac+stCcn+4CysRJ6913XVbm21rCuYuXoJMndImlqjZxveup5nz0AO4cCFoDNmlAIvyLp2hppboubX9FVrJzD5u41OkWOKydISn2lkUtXRdXoY5LWZiY20mdmLfLn1Wvu+yY1l9zsZEkJIyFzBmXJjL6J9kS9HuDJA/4CZeixKjPdMK8t/KXM52Xj/OMdDIPa1FUsz3Hpakm1cv0oWZL7GJkDsDlM8gBsVrdZEsXhTEl/q5Emm0tn3luKf/z+ko8jgzXGbWYWmpGT9c6dag+bdH5mQiPtkeTjT9Rz+vsK4VWSvsxAyNqwtDm9hfzt9XyMOa9+QdLYDF3IPiNJURJdIqmcgSa9fuYy35fRUDtm3O9jOotxj8sulFQrL7sZNPcZPZNtFRkEsDkUsABs0dyp9rAHOkU1tDLCpOPyXr29a2l5OhmsDR39Q5MlHZb6ZF16ePyDud9IklXCrylLj7W5zuha6nW9wX1vIfyCZL2MiMz4r75CeEk9H2BXcXB/c/9Ahpr0m3lt0R8laW67/cOkK7MwXwirMfsT1ojZxaEpLeviWyXvrKmGm3+8pz1/BxkEsMULEiEAsDV9rdGv5fpcbbXaJ3lgN3QUy2fI3chi5i9HmZgcmXRJ91EWS9K8afa4pG9kKEi7KFftrutuYObRytypWv/IC9KdTP5ofUGxvrkFX5aUz0pzksA/+8z2KROPEbrsFK6l2ddVLHdUFfxZ0gE1NQ7d5vUW8t8lgwC2OmMgBAC2RW9beI7Ma21TzbzJzussxj+t5/2Dat0M95zk6cTjAABd30lEQVSZTs7GTXTyjNU/YyrheZIy8yYkd+/qWDJ0YD33h7nTrRKvC98j6WZGR0r9TPq/FkWnyMzr+Tg7SuXD5PaeDDXpiotb87dt/IMJreE1kt+XgV4xqaMYH8noyKbTFnlLV395vq9fwbprjZ1wbhwb5D5MFgFsCwpYALaNma9ujjplWlh7bdc7kqjy167+CjffGbRLMX6tpBdnoCk39bU3Ld34BxdMs9WSZ2lfppyFwXn13icuOdjWVKvh2yQtYYSM/jjYpRIed37Bhur+sub2dUlZWVVUzSl5zoq3brNEbn3ZuA2w9zM8sqezNDR1XRTftOFFGDXFpYerCt/TCOcbAMODAhaAbbZgvK2rBuFxytCKlO249R7vpus6ipX/mLPQI7KZoQtRRiZF7r7JvZdaLLpQ8nszdMf/ulnF+K313i/mT7HHqrnwzZItY5SMmpvKFr55feG23if98fGSjszOsLZLLmpr2mTBNqiGPcrAPpQmf8/pJW9imGRDt3vQ0V/5uDy4TTX2yOAGa+X+jvnt9iDZBLDN8wZCAGC7JpWT7L4k8LdKqsUJTmjS5yvj4ts7S+WXk830dSz3ZsnfnYGmrFM+WrCp/3B+wYZM+lKW4pbIz22EQuz8SXafR7kjZbqL0TLi/mBJ+KZLC7ay3g90xiLPy/WVDDWpHCj+z839x3lTbYWk36bdSJf2WJNU38JQSd/spesmrijFvzXTuZKaa/AQquZ2Ul97/s9kE8D2oIAFYLtd3Jq/TYneoWy83ntHHCC3m7uKlXNYjZWyuHqspN3Sboa5X9430Z7Y3H9fVYgukbQ4Q5Frr4ytnNoIXaRvoj0iha836TYGzIj5uUfhmxvl9fVjw/h0yVuz0h6TXdjT1nzPFv+SWyY2c0/MeYwwTe7WVSzPqQbhnZJeW8PH8bGe9vCnJBTA9qKABWCH9E6OfueyTkm1uslv5NKZlXHxn7v6yweT0ZQmbklGJkM5693Sf15gVnXZ5zMVO7P/mLnE92yI803B/l5ZF75G0s8ZNcPej74/4cHwuL6JNtgIx3viCt/DTZ/OUJPWJFFuq/vsrY5zP5X099T7i3QsL0VJx6zFPqGrFF/jsgsltdTqcbj0n73t+W+TUQA7ggIWgB3W1xZelrGJwI442M1u7ixWPtF9nYdkdRRvxhf582Q6Jv2baVu+76TwD1vt74XcT126NUOTgD3CMP5Mo/SXSw62NasL4bslfYvRMyxiM//3nkI4p/soixvloPND8RckZafwa/rW+lWGW7ZgmpUlXZaFEFbDynEMn9E82bt19Jc/kITxnS69vrYPxnr6CuEXSSqAHUUBC8BO6StEX3XpP2v8MJolfX3Fi+OFHaXyYWR1dCRRZYakfPr3035xt9nWN0g280D6bLbmNfrIzCWDbY3SZxaYVXvbojNc9n5JaxlFO+wfJh3TU8if10gH3VUc3N+kD2WoSU8E5fAb23zTHiQXZaHRvI1w9HQsGyx0leJrzGyupHG1fCwmLZjwYO5UmTmZBbCjKGAB2Gl9bdEXJH2tDg7lYHO7oaMUf3vOMt+NzI747WwWJkGJ4vjibf3LPW3RtZaBzZQ3kg/D3Fcb75wTXubyI8xUZBxt56gz3ZCz8GU9bdG1jXbsiXJfk5SZt+i56+vzptnj2/r357U23Z2RVaD/NmuxT2A0jZwZ9/uYrlLlbKvmFtX+qitJ0uX7Phie2EirPQGMDApYAIZFb1t0pkvn1cN50dw/XK7GSzr64/eR2ZGxYfKT/ivsXX/omzLm3u0qALh/Rhna+81d7+woVV7baH2ory3/11XN4UvFI4XbKjbpq+GT4VEXFeyBRjv4rv7KkSZl6dG3R6uD4Te3+wLlPj8DbbckF5/IkBqpvhof07Kuere7PiOp9l8047oyWknxCsAwTdQIAYBhm1AWwo+72Xfq4VhMepGZ/6CzWPn1KaXBSWR3mO9no/iE9WFOOc+BX7q9/2Zee/5WST/LVH91/Xe3e8Nd0xeMt3W9bdEZMnunpIcYWZu12M1f3dMWnTV3ulUa74Tj5qZvZKxRX77kYFuzvf8qVPQjSenn0HQSw2p4dS31fbqKlR+7+dWS718nh/WLliB8b0OedwCMCApYAIbxhta8rzV3uurjccKnvCnw3F2d/ZUvnXyH70qSh2nqJmXh2/vBJIyu2JF/mFjyeUnVDIX0ZStKlVMatT/1FsIro1w4VetXYyWMsKdVTPpqi4Uv7yvkb27UIHSWqu+TdGh2ToC+osWiC3fkn85tt39I+nUGjmLqzKVDBzHEdt6MRZ7v6q/8Pw/iJS7NqJtbQmnB6kp43PkFGyLLAIYLBSwAw3zHYt7bFp0p6XN1dFRjZPpCOCbu7+yPT2nElS7DaXZxaIpcB2agKVf3TbQnduQfXlxoWuSySzI2+P7rtEXe0qj9au4ke7K3LTrDEj9UrhsZabpWlry0py06q5EnkB3LvVlKvpylNnkQfH5ncmJm/5uF4whzwXsZZjunqz9+V0tUXbRhheC4ejkul/WtKoQnbHh7JgAMGyZhAEZEb1t0tuRnKEN7BQ2DF8u8b8VAfEtXf+VIsrxjYgvek5Eb7Et35t+Hlvu8svUmvH3WRfGZjd6/eibnF/a2hUea2ymS39dox+/SnTK9ubctekNvoWlxw59wyvHHJdsvQy36636tuZ0696xqzl0laWXqfc2NAtYOmlUqv6yzWLnOzX8ieWtdnYPMvtNXyHUtMKuSaQDDjQIWgBHT25b/lsm7JNXXxp2u6W76Y1ex8uPZS9dNJNPbx1xZKGA9oSh39c78gg0bYf9PxsL7CfZsk2TmPe3h/Ghl1GryUyU92ABHvcTcTllTCF/eW4h+w5lGml3yl5jpM9m6fOhT3WY79ZjrgvG2TrIrMnA0k7qWlqfT07bdnMX+os5iPC9xWyjptXV4iGf3FcKPyMzJNoCRQAELwIjqacv3eaBjJa2qtymySzOqQbi4o7/ylTnLfDeyvXWzBoYOkDQ19WmX2xV9E21wpztBEn5V0qMZCnFz4Ln/oaetN3e6VXra8nNXV8L916/I0qJ6O0aTbjO3UyY8GB7U0x7OZ9XDv1RV+YakzOxd6NL/9bVF1wzLL0s8E48ResAqrG0x5yHfpbNY+WwljIta/8VeUHfDTf7B3rboc2QbwAjf9wDAyOtYMnSg5eyXko2v00N83Fzny8NzeybbKjK+mX5QrPyHSZ9P/eIX6HU9rdF1w/G7OkvlD8ntgizFOZC9bV5b+Et63DN1uwf3l6rHJOtXZb1FUq5GD2VQ7pcnbt+7eHJ0A5l9rq7+ypFu+mOG7nUTmb+it5C/fbj68opS5d70r6l+f28hmsCKm02bs9CjeFyl02VflLRPnR7mGjc7oa8QXkXGAYz4PTwhADBqE4qlvo8H8S8lvbSOD/Pvbjp3rMLzePPOc3UWK4slTUm5GQ+tLoT7DtdKlRnuuZZSfIekaRm6vC/zKHfAcKwyq1cz+/3FgeJTzHSCpANqoMku102S/2CoObr0sgn2T7K4xTF5m6SDM5S+i3vb8h3DfD79qqRPpX62MR3eU4huouf9S7d7cO9A9ThzfUXyen6s+zEFentva8SLMwCMCh4hBDBqeibbQx6FR0m6po4Pcy9znbPKq0u6+uOZM9xzZH5DwWD9K9enZKAplw3nY1YLzKpu9ulsRdsnWSX+BL1u8+a324N97dGXe9uiA2XJNHN9SdKfJSUZamZF0u/N9YlqLtyvtz06orc9/22KV1u2a6lymjJVvNJgNRd9Ybh/aTVJLs3CwbnrffS6p4NhnaX4+BWl+G5z/3GdF6/uziXxKyheARhNrMACMOpmuOfGluKzXWqEN6YtcbMv9rXmLm/0Ryy6SpWz3dPfUNnlL+try/912I+vWLnWpddnKOTrvBpP7Zsy5l7OOtuus+R7mapvdNe/SX6E1u/ZNlr3S7FMf5XrBnf7feC53/JI8vaZucT3zOXifkl7ZqhZX+tti0bketdRrNxh0kEpn1QfWd0WvqTR91/rKlaOdtNX5GqEje2vjnLhiXMn2ZOcdQCMJgpYAFK82St3uOx7kpoa4HD/YrKz9y3kfrqzb6Cq2cJAsVKUVEi5GYt726IRedSva2l5ugd2izK0utmlK/raouM52+xEgWC5725D8cs98APlwYFm3i5potbvZ7Oj91Gx5A/IbbnMlkrJHUlidydD4V8vOdjWEPWdOM+U4u/LfXaGmvTYUFNYGKlVc13Fyidd+loGZhSv7S1Ef2i4DuduHcXqMSb/rEyHN8IRm+kr+7aGn2/UexkAaV9uACDNyWGpfJjcfmLSixrkkBfL7CsTHsj9sPsoixslz7NK5Zclbren3Q53fbavPfryiE2ei+U+yU7J1GxDeuOwvfkMTzu95E0rNfSSwIPnuwd7KtCegSdjJAWJ2W7mcpM/sf5uK1iTmD8WxP6POIr+1vxPPTx3ulWI4vDKZhHZP9rXlj9/pH7/zH5/cc7i+9I/Zvtub1t4WqP0tW73YMVA9d1y/4yklzXIYa9zt66+9vCHnG0ApHa1IQQA0p90+D4exD+SdGQDnX6XyZNzVsfR/AXTrFzvR9tZrPyXpM+mPZfMJfGkiyaPWT5SHzBnsb9o/WvS1ZKh8C9dXQkPboR+hga2fu+hGyUdlqFW9UcrwwNHuliZiceXXY9MaAtfXO+rcrqv8/C+faonuvmnJU1upHuWwJIZ8wr5v3CyAZAmNnEHkLqeyfbQhAfDo1z6uqQG2SfKJ8ns+y1RZaCzWP7ojPt9TJ0f8LvSD7luGsnilSTNnWoPy/XljMV+cksUf4wzDepZV6lyirJVvJKbfXJUVtqZ/yD1gzXtvbw/flW99q/TS97UVSx/8N4XV4tufrEaqniln0a53CEUrwBkASuwAGRsEhK/Xe59Lu3RYIf+qLu+lSThhfOn2GN1ldOlg+0e5JamfsEz//eeQv68kf6cjuXebJXqIsn3z1AaVlc9nDy/3R7kLIN68/6Sj8t7XJT0wgzdYP+2py06ejQ+a8PG9Q9LitI9x+q/ewrR/6unvnXiCt+jaSj+gKQztH7fu0ZScddZfW3h/zT6S2gAZAcrsABkSk8h/HmQxIfItLDBDv2FZjo7l4vv6yjG3+1aOtheN0eWy70rA61wt+iK0figvok26NInM5aFlpxVvs4ZBvUon8TdylDxSlJV7qNWyJk/xR5z6bq0Dzpxe1e99KlZA4OtHaX4201D8X2SvqrGK149kCQ6qq89+m+KVwCyhAIWgMy5aPKY5dGT4eHm+pKkRnvLzS4m/6AHuSWdxco1HaX4WLnX9GpZd707A824ubfV7h+tD+trC38iKWMbp9sJXQOVozjDoJ7MLg5Nkekj2Rpq1tvTnr9jVD/SfUHqhy2fOKtUrukNzbv6K0d2FSs/TpLcUnP/sLK1n+Fo+Wm1Gr704snRDZxhAGQNBSwAmTR3ulV62qPuxPVGSY342JNJOtrcf95Zim/v6o9nzljk+ZqbXJb8JZKmpx5M1xWj/5n+SUnVLOXDE31rzkKPBNSJRMH5SvnRuWdZHVVyXxjtD40U/UxS6m+2TdzeXWt9aMYiz3eU4pM7i5Xb3XS9SzMk5RpwOK1x9zm9bdG7620rAwD1gwIWgEy7uD36bbUaHizpJw0chpe6+cW7RvG9ncXK5+Ys9hfVzOQyqbxD6e+36FYNLx/tD12/AsMuylhKDqiMi/+dMwvqQUcxPjH1t+891zlzp9rDo/2hc9vtH8rAY4SSaqaA1bHc9+4sVj63axTfa+7zJb2sgYfT7ZZUD+lrz3+fMwuALGMTdwA1o7O/PFtm/y1pbIOHoiLpSiX6bm97eF2W96fIwuvdXbq1ry06NJU+W/K9zOP+jL2UYK1X42l9U8bcy1kFtapjue9u5XiJTHtnp1V+7+ox0dQF421dKjHpL3/AzOamPrlIqpN7Jjf3Z7LjuFvXsvi1SvQhl96pbK3eS0NV0rmrK+HnF0yzMmcWAFnHCiwANaO3PX9REIcHSrq2wUMRSTpegX7bWYr7O0qVM+f0+/Oz1siZS3xPl16T+mRKSm1vmN6C/T0x/1zGUrNLEITf5YyCmr6BLVfPzlbxSjIFn0ireCVJeUU/VQYeI3TLZW4V1pxlvltXsTynsxTf6Yl+t+ExwQYvXtk9gfS63rboTIpXAGrm+k8IANSSeVNtRW8hfKPJT5W0ioioYK5zKhY/0FWs/LirWDk6Kw0Lc5VjJYXpTyqrqT5+ul9r9D2Xbs1Sp3HTmztL8fEMH9SirqXl6W5+aqYa5bqupy28Is0mbHiM8Pepx8KUmbcRnjJQPqSzGF9YqcYPuuxCSQcwguSSzY3X5Q6a1xb9kXAAqCU8QgigZnUsWbefheE8uV5HNJ7hr3KfF8TRZfOm2eOpTTJLlZ+6650pX+Ru62mLUt9EvrNYPlSyG5WtL44eKls45dKCrWTIoFbMcM+1lOJbJb08Q82qVpPk5fMnN92ZdkO6iuU5Gwo1aXIF4YTRfPPrxk5c4Xvky5UTArculw5h1Dzjqjhg7p097dGfiAWAWsQKLAA1q2/KmHt7W8OjJf+gpCeIyNNeKrPzkyh+qKtY+XFHf/yWGe6j+kaljuXe7K43pH+vrsuzkJDetvwtMuvJWD/ZJ6/q2QwX1JJdS5XTlK3ilSSbm4XilSS5ZeIxQpNX3jaaHzjDPdfRH7+ls7/8o6ah+GFz+w7Fq2eIJX0jaskdTPEKQC1jBRaAutCx3PcOypWvudnJRGMTkxrpYZMWVJNk3mhMtLr642Pc/Oq0jzsIqoV5rc0DWcjBrEX+vCSK+yVlab+yxM2P6Cvkb2aUoBbO81aJl0jaPUM30v8MPWzb8PheJmTh5Rky/aq3EL1lxPtE/9DkQMH7XN4hswmMkk36q7vP6WvP/5lQAKh1FLAA1NcEpz9+i1nyHcn2IxqbdZPJ+8Jc9KO5k+zJkfiAzlJ8vtw/kvZNe29blKnXoncVyx90WdY2UP/LhAfDV3YfZTFDA1nWWSr/UG7vzVKbXP7Rvrb8+ZmKU7F8qmTfS7kZg2Mq4V4XTLPVw/2LT1zhezSVK++T2ymSDmVkbNZqM//8qtbo/AVmVcIBoB7wCCGAutLXHl4dr4sOkOlcZeBtTBn1KpddWKnGD3cVKz/u6o/fdXrJm4Z3Vpe8Le2DdE/v7YObs28hmivTwow162X37hN/lGGBLOsqVd6YteKVpEX7PRhl742eFv0kA9e/5sGwOmyPkc+438d0leL3dJUqP20aih+W2wWieLUlV1Vz4bSeQv48ilcA6gkrsADUrVkDQwck1eBbMh1FNLbqCcl+avLLVhXC63bmhnfWwNABSRLclfoFLqlO7pnc3J+5ftlffmVidpOy9SXS6mounDZ/kt3HUEDWdCz3ZqtU75K8NUvtSlxHX9we/TaLMevsr/wu/Wuf9fS2hbN29F/PWehReWz1DabkBJm9Q9JYRsNWYz4QSB+b1xb+klgAqEeswAJQt+a1Nt3d2x69zs3eLvm9RGSLdpe806VrWkrxo53F+MKu/sqRct/uLzqSanBsBo6nP4vFK0ma156/1czmZaxZLblq/F2GATI5JS/Hn85a8UrmP8pq8UqSLPCfp98Kf1u3+3bNNbrdg67+ypGdxco3K+Pi+838lzI7SRSvtmatub7kUe5AilcA6vqegBAAaAQn3+G7hmPiT0v6hKQmIrLNl4l7JP+BuS/oac/fsS3/orNYuV7SkSlf3c7tLUSfyGpUZy7xPXO5uF/Snllql7u9q689/Bn9HtkZK4NtuVzuzoydt1fnLJxyUcEeyGrcuoqD+7tyy1I/p5i/aqsviXC3joHKoSY7Xq73SnoJPX+7Ttw/Vi76RG+r3U8wANT9zIQQAGgkp5QGJwWe+5qkdxON7b5kLDP55Yn7FX1t0UKZ+XMnm75nLhc/KimX8tXttb2F6A9ZjmZXsTzHZRdmbCZ0vyXRtJ7Jtor+jizoLFaukXR0xm6eP9XTFn29BmJ3l6QDUo2V6cs9heizz/55t3twXzE+PDEdZ/LjJBtPb99uf3HTx/sK0e8JBYBGwSOEABrKxYXmZb1t0XHu+jeXbiUi28MnuXSmmd3aWarc29lf+e+u/sqRGz8iEobVNyvt4pX0+IQHwhuyHs19C9FF2euDNt6D+D/p68iCzlJ8kjJWvJK0JFwZnlcL8TNT6o8RuvT0I+Uz3HOdpcprOkvx+StK8f1uut6kj1G82m4PmrxzQiGcTvEKQKNhBRaAxuVunaXq++TJV2Q2gYDs8ATl4cDtp+5+hQX6oEsz0m2PX9rXlj+pFmLXtbQ83QO7Rdn6Qikx05E9hegmejfS0lnyveTxYknPz1TDEr2+d3L0u5qIYbF8qGQ3p3+NsPdLerXJ3yXphfTuHbbGTV+vrg2/ccnBtoZwAGhEFLAANLyO5d6sOD7DXGdJ2p2I1DZ3O6GvPfxhzUzUi/H3JD81Y81a0mLhy84v2BA9CumMi/Klkp2YrZtm/2FPW/6EWolht3uwohg/KNPe9KiaVpXsYktyn++ZbA8RDgCNjEcIATS8vok22FeIvhpUwknm+pIk9v+pXRXlc7+uqQtxJfcZSX/PWLOmrPb483QnpKGjP35L1opXklbFnt0XQ2xKt1ligV1Fj6pp15r7Ib1t4SyKVwBAAQsAnjZvmj3e0x51WxJOluy7kipEpcaYru+baE/UWr+T+2cy2LRPdRTLL6VTYTS9v+TjzJLvZbBp/zG/3R6stXi6p78PFnbkUqbfBu6H9rZFb9jWNwADQCOggAUAz9Iz2R7qbQtPM1Uny/1/JSVEpVZu+r0mVxtMaIt65LoxY82KTNbTfZ2H9CyMlqak+pXMbeptuitaGX6zFuO5ekzut5LW0rNqxp9NekNPW3T0vPY8L5oBgGehgAUAm9HT1nxPb3v+5MSSg2T+I1HIyjyz5Be12O5usyTIJacqe6v+XrZin/iT9CyMhq7+ypFu/sGMNSsx6dS5060mV+QuGG/r5LqG3pV5t5vZO3oL4aE9bdG1hAMANo0CFgBsxcWFpkW9hfz7ZMmB5n6JpCpRyaTF81qbB2q18fNam+6W6RuZa5jpi52loal0L4yk00ve5KYLs3dvahfW+hs5PXAeI8wq011u9p7eQji9pxD+XGZOUABg8yhgAcA26i00Le5pz8/MiUJWNucBqvnNilsUfklSf8aa1SQP5s1wz9HLMFJWK/6ipGwVSl2PDDXlPlvrsa1a9AuuV5m7YK0vXLWGB/cVwgUUrgBg21DAAoDtdFFb05Ke9vxM9+QAmc8Xm71nZbL5i1o/hPMLNmTSRyRlbTJzWEup8mE6GUZCV3/5YLky+IY/+9hlE+yftR7fS1rtb3LdQk/LhFtk9k4KVwCwg1dmQgAAO2fWYp+QhPHHJc2WtAsRSc1/men6IYU3X1qwlTU+oZ/vZidnrFmrvRof2DdlzL10NQyXGe65loH4ZrmmZ+oG2fXrnvbomFqO7ckD/oJctXq4BX6k3I+TbD96XDpc+r8g0Dk9rdF1RAMAduL6TAgAYHjM6ffnx4o/4qaPSNqTiKSmKqnf3G+T6U9V8xsuLjQtqqUDmLnE98zl4iWS9srYXcPvelvDo1k1gOHSVax80qWvZaxZ60zVA3ramu+prVgO7i8Pj3TTEZIfKWkK9/qpSiRdLfl/9bblWQEHAMNyKwoAGFanLfKWtWE8x8zPkGxfIpIJD8r8T3LdmAS6YeL90R3dR1mc5QZ39senyLwva+1y81l9hXwPXQo7a9bAYGuS5O5QxlauuumsvkL01SzHrmO5NwfleHoS6AhzHSHpcPHFSVYMmtklcRx/Y/6U5iLhAIDhQwELAEZI93Uertinepybf9ykVxKRTFkj0y3uukFuN1dzuYWXtNrfMtVCd+sciK+V63UZi90TloTTeibbQ3Qj7FT/Lsa/lemojN0Z3xU9GR4yd7plam/DWYt9QhJVXyH3Q+U6XKZDJDXRkTLlb266oGrhdzN3PQGAOkEBCwBGwSkD5UNyVZ3hZidIColIBufT0sMm3Wau25LAbjPlbu4t2N/TbFPHssGCVXN3SmrOWLiu6S2Eb+JRQuxw3y6WTzfZtzLWrESBXt3bGt2YamyW++5BOT5gw+qqIyW9QtIL6TWZVXL5d/It0ffn7mNrCQcAjBwKWAAwirqKg/u7ch+V1ClpHBHJ/GVywJQslNtCD7TQquHtPZNt1Wi2oLNY+Zyk/8xaZNx9Tl97/vv0EWyvDY8O/lXSrpnq07Lv9bWFHxrNz5yzzHerVOJDPKdXyPUKk7+CR89rgku61tz+p6ct92uK+QAwSnfmhAAARl/XUh+b5Conm9uHJU0lIjUj0foN4he6aaGb3VnOh3dcNsH+OVIfOGOR51ui+HZJ0zIWi1VejQ/irYTYrv7snhs7EP/B1+/blB2uRzwfTumbaE+M1EfMWuTPS3LxSy3nB3miQ2T2Cklt3I/XlJUmu1hJ/J2eyc39hAMARhcXTABI2UaPF75PUkREas+Gxw8XSVpsbrdVc8micR7dfX7Bhobj93cWy4dKdqOkIFM3EaYb9m0N/63bLKEXYNv6cuVTkjK3Qbq7ndDXHv5wOH7XDPfc2NLQhMTCaUHih7jpEMmmSj6Re+8anTCZionUozC8cCSLnACArZyPCQEAZMPskr+k6vGpcs2WaW8iUvOGJC1y2Z1yvysw3ekW3rGj+2p1FuPvSX5q9iZ2/u89hfx5pBtb7cOloany4DZlbE83c/26pz06Zkf+7YkrfI98OT5Y7gebgoNMfrCvXy3ZTMZrXkXSVUr0nd728DoeEwSADFyzCQEAZMuchR6Vx1WPNfkcSW9QxlbdYCe5HpHpLklLTL5EgfUnuXBJ30R7ZEv/rGO5765KvNikF2XsiNa5Jy/va29aSnKxOd3XebjiJfFNck3PWNPWmqoH9rQ137OlvzRzie8ZBvGURD4lCGyyEk1182mSjSe79XaKtuVyvyhfDXvnTrWHiQgAZAcFLADIsJn9/uIgiE+yxD8kswlEpK49adKApHvkWpwEtshVXby2Nb90gVlVkrpK8Xvc/UcZbPvt0crwsLnTrUIasSkdpcoXzdWduRth06d7CtE5T/3/rqW+j4J4quT7u2yapKmS7S/5/mSxrlUlXedmc9e05n7y1DkXAJCx6zYhAIDsW796ofpWd/+ASW+SFBKVhjEkU9FcS13ql9QlaZ8MtvNzvW3R2aQLzzarVH5Z4naLsrfH3zq5vi7zgmTtkiZL2oWMNdRUaJm797DaCgBq5KxNCACgxiaDi/x5HlWOl9nMzL3JC40stsRf1TM5v5BQ4Cmnl7xplce3mnQQ0UBGrDPpF5Lm9hTC37K3FQDUDgpYAFDDZheHpiQevDcxm2nr33AFpGmxR+EhfRNtkFBAkjr6K18x01lEAhmY9Nwm+dzmSnTZBdNsNREBgJo8lwMAal23e3BfKX6dm58st3dLaiEqSIO7zulrjz5NJNBRKh9mbn+SlCMaSGmqs8zc/1dWnb+1jfoBADVwVicEAFBnk8bl3qy4eqy5z5T0ZrFfFkZX4q7X9rVH1xOKxj4PWSW+TdJUooFR9rhkl5v7JT1t4Q08IggA9YMCFgDUsa6lvo8sPiExzWQPGoyikmRflPnjnvjjgSWPhbmmx+ZOsicJTX2ZucT3lIb2zEW557vbnoEne8ptz8R0lElvJUIYJWsl/5l7cOl+D+X+r/soiwkJANQfClgA0CgTzaVDB+WC4P2SHSf5JCKCFFQlPS7pMbkel+lxmT/ubo+b9JibP64keDwI/PEk8X9KvipRflU10KpLC7aS8I2M00veNJRobGxD46pBsEdONk5uY92TPSXbU9Jekj1f7nvKtKekPSU9f8P/BkQQKVkn6ddmdkVzOXcl+1oBQP2jgAUADaijWH6pZO826TjxiA9qx5OSVm34s1rSky49KdkqM62WfJVLTwbuT7o05BasVqJKYL46McVuvipXVSxLVsW5pjgOtap5neKeybaqFg6+a6mPHRyjcMwajfNwKJcoGOeBcjnZOCXKSbZbYgosSXZToMjX/3z3QDbOlYyTbKykcWYa57I9JB8raZykJroWasQak66W2eXN5dzVFK0AoLFQwAKABje7ODSlquA4rS9mvZSIoEFVTVrpUlXaeLWXD5m09tl/2df/bOg5N1am1XJVNvydnNYXiJ6tyaRdNvE7d5Usv9FPxpoUujRW7GWHxrVS8l+4givWjMn9asF4W0dIAKAxUcACADxt1mKfUA0r7wzMZrjrcK4TAIAUPGHuVyVBcFV1be7qSw62NYQEAMDEBACwSZ0DPt6SyjEuO1a8zRAAMLIeN/dfJkGwYE0595sF06xMSAAAG6OABQDYqo7lvndQqbzTZR+RNI2IAACGZTJiukGu7n0fDH/P2wMBAFu8ZhACAMC26iyWL5PsBCIBABgOLl3R1xYdTyQAAFvDq48BANtz2XglMQAADBeTc10BAGzbTIQQAAC2xaxF/jzJ9ycSAIDhY+O7lvo+xAEAsDUUsAAA2yTJx68Qj54DAIaZ56qvIAoAgK2hgAUA2Cbm4jEPAMDwc6eABQDYKgpYAIBtm19ITDAAACOBL0gAAFtFAQsAsE1cmk4UAAAj4JXd7sxLAABbxIUCALBVnQM+3qQXEQkAwAjY7b7+oQJhAABsCQUsAMBWeZL6BrsrJf+g3P9X8nvJCADslCck/ULSmQp0hKTPp36dyYU8pg4A2KKQEAAAtiaQv9JT/HyT/tzTlr9Q0oWSNGexv6gcVacH7kfIdKSv32A+IlMAsAmuR2Ra6KY/ufm1EydFf+k2S576z52lSiRPt4kbXhTyvyQLALA5FLAAANsi7f2vFm78f+ZOtYclXbXhj95f8nGRxYdboiMkvXpDe3clbQAaUCJpsbvdEljyp6ol11/c1rxsS/8gXhsuDMfEcZpzA5ezkTsAYIuMEAAAtjyrcOssxY9L2j29iY0d19cW/mRb//4M99wuA+XJuSR3iJsfYtIRLr1MPDoPoP6slHSruW5IArstV87dMG+aPb69v6SzWPmLpJemeBxDLRbudn7BhkgpAGBTWIEFANiijmK5XRbsnmYbLMj9eXv+/gKzqqRFG/7Ml9av0mry+JUuHap//XkBGQZQQ2JJd5rbzUmgm5M4vmX+lObiMJ1pb5H8pSkeW9OaauVAPWvFLQAAT6GABQDYsiD3CnmKm6O4Hulttft39tdcWrCVkq7d8EeS1LFk3X4WRtMlf7m7DjHp5ZKeT9IBZEAsaZFkt7klt5nrNo+iO/om2uBIfJgpudllp6Z5wElOrxQFLADAZlDAAgBsZVKjV6bcgFtH6lf3TRlzr6R7JV3+1M+6lvo+Sa56SJD4IW46RK7pMu1NTwAwgmJJRXO/LTHdFrjdFo4Nb5+7j60drQYE8luqKe8usmEj9wvoDgCATaGABQDYMve0X23+59H8sJ7J9pCkh7Rhg3hJ6hzw8fLqy839IJcOknSwpEliTy0A2+8JSXeY7E735E5z/TVpiu4eqZVV2+olhXz/ilL8hFLc71AyNnIHAGz+KkEIAACbM2ehR5Vx8UpJzSleqd7cW4h+k7XYnHyH75pvrkyrSgdbEBwk9wNNOsilPeg5ACQlZhqQ6w6X7nCzO3OV3J3zptqKrDa4o1j5jUlvTDNmYyrhbhdMs9V0HwDAs7ECCwCwWeVdy5NNQXOKTfBqHGZyP5RLDrY1km7d8OdpM5f5vlG1emAin+ayKSafJmmypLH0KKAuJZLdK/liSYtNviRxLcqPjRaN5iOAw+QWpVvACtZFlWkb2gEAwDNQwAIAbH4mEeYO8jQ3cJfdM3+KPVZLMZs/ye6TdJ+kX27885nLfN8wiSe7fJopmCL5VHdNkfQ8ehpQE2Iz3eOuu820NHFblLNkycrmaOmC8bauHg4wJ7slkafbCNeBooAFANgEClgAgM3PI9wPSrcByW31EsuNClv/t/HPZ9/jL4yr8RQlXjCzNrkKMrVp/R5beXohMOoelFQys5K7F2VWynm1+GQlv2zBNCvX84FXo9xtVonTbYTZAXRBAMCmUMACAGzJwSnPZP5a7wG+aH97VNKjkn6/8c9nuOfGloYmuOUK7t5mFrS5e5tkBZOP5xoO7ATXIzItl3lJbkUzK5mSUlM5KjXy/kt9E+2RjmLlYZNelNpZX6KABQDYJG5+AQBbmuQdnObrPqwBClibs8CsKumeDX+esYn9nIUexS3aqxpWXmQe7C/5/ua2v+T7S7a/5BPFi1rQ2AYle0jyeyS7x+2p/03uycVRsWeyrSJEm3W7pLemd9mhgAUA2DQKWACATTp5wF+gJN471UZ47g4y8Vxzp1tF0kMb/jznMcvTFnnL2qA8MQhzExNPJprbBDO9xKXxkvaVtLekgEiiZq1fQXW/tP6Pu+5TYPcrSe7NK1o+t93+QZB2jEl/UYoFLEkvPHnAX3BJq/2NbAAANkYBCwCwSVESH5TyVr5/65lsD5GJ7bfhEai7Nvx5jjkLPSrvOvhiBeF4C2yCEh8vs/Fa/2jiyyS9mCgida5HZHal5Pe72X2S3++q3j9OTQ+c32ZDBGikwm5/sZQ3cg+q8YGSfks2AAAbo4AFANikxHWQpfgQmkt/JQsjY8MKrns3/Ll+4//WOeDjlcR/kbQnkUKKqoHpvfPawj8SitGOfOV25dKdIpj5AaKABQB4Fh4fAABsZgJh01K+QP2FLIy+3la7391mSikvwUCDn4D0H/PaIopXKeib3LxC0uPpXn8C9sECAGxqfgAAwKb4lDQ/PZHdSQ5SmsC2h1fLdV7Gmxlv+IPtV854+36/ujU8mzSlxMxlKa+AdT+QRAAAno1HCAEAm5NqAcus+ldSkJ7VcXhWSxQfKekVGW1iokBH9bZGN3Ys992TQeXC3NBuShRVw6AlkDVZol1ktksiNUnJ2MAVumx3uXJm2k2myN1aZEmzuY15eu4sjZOU2+izIpNanjG/lloki/71gyRnZuM2OReXYmlTb73zdSYNPuenpiflSp7141UmxYlsjUnlp/+tazAJtM7kZXOtSSxYF7jWSv6kTGuU+FpZssqtadWYstbFzcrFSXyru9oymtd/VD08acNbOJEW1+2SXpdiC6bJ3WTGSlAAwNMoYAEAnqNrqe/jindPsQnrJjyQL5KJ9CyYZuWu4uD7XLnbJe2WwSbmlegns0s+/aKJ9sCGnz1G5rbA3TpL8eVSZotXLrPZ89vsQZKVeiLS3si9ZXb/4H4XScvJBgDgKTxCCAB4jqrFU1Juwt3dRxmPh6Wsp635Hjf7QIab+MKqx5efXvImsrV1nQPx5yW9O6vtc+mbvYXwSjKVgVxY9Y6025DkIh4jBAA8AwUsAMBzmPnUdCeytogsZENfIVzgsu9luImHrkkq3ydTW9ZVqrxRri9k9pwj3TbWwrPIVDY0PZkvSqqk2YYkcTZyBwA8AwUsAMAmJpNBuvtfyZeQhQyJcv+uDL8V0s1O7uwvf4REbVrHssGCu36kZ+7rlSWrlVTff37BhshWNsydbhVJA6leB4wCFgDgmShgAQA2VRJItYDlZhSwMqRvog26JydKWp3ZRpr9d2ep8hqy9UynLfIWq+Z+Imn37KbOPtgzubmfbGXOopQ7BgUsAMAzUMACAGxKqps8u+LFpCBb+tqblrrZaRluYiTXj2cu833J1lMDyW1dWJknKbOFAJf19RTCS0lWJpOzOOXPL3S7M1cBADyNiwIA4BlOvsN3lfSiFJswuLa16V4ykT19hfASyeZmuIkvyFXjK+c85LuQLamzFH9SZu/JcBPvzrfkPkymssrS/iKh+Z579BLyAAB4CgUsAMAzRM2VVkmWYhOWLjCrkolsarHcR026LcNNfGllNZu6n9Jfeb2kszPcxNU5Je+Zu4+tZVRldJKQq6b+Mg2L4wKZAAA8fW0iBACAjXkQpDxhcB4fzLDzCzZkcXicpMey20o7sau/8v8aNUczl/m+gekHksLspsg+dFFbE3vdZdjKoXxRUpxmG3LmFLAAAE+jgAUAeKYk7QkDG7hn3byptkKyDkme1Ta66atd/fExjZabjuXenEviKyTtldU2mtsFvYXwfxlJ2bZgmpWV8psIZUYBCwDwNApYAIBMTRiMAlZN6G0LfyHp6xluYk7ml84aGGxtqOFbqX5HrukZbuIdq3bJfYIRVBs85TcRuosCFgDgaRSwAADPnjKkOuF3q1LAqhETHgw/69IfMzz53iNJcj99f8nHNUI+OorlMyTvymr7TPpnLonftWC8rWP01AaT0j4fU8ACADyNAhYA4Nmz/jQnDNXV5fwASagN3UdZnI/D98n1SIabeUBe8Q9nuOfqORdd/fExJjs3y2cWN+u8aPKY5Yyc2mHyZSk3Yf96H7sAgG1HAQsA8LQZ9/sYmV6Y4hT3gQ37rqBGzJ1qD3ugE5TyZs9b7lc6Zmyp+j/1moPZxaEpbn6ZpCxP9M/tLYRXMmJqS+KWdgEr37JM+5AJAIBEAQsAsJFd15YnSLLUGmDG6owa1FeIfi/XF7LcRpef3tVf/nC9xb6z5HvFyv1S0u5ZbaOZbohWhp9hpNTgRMHDZamP3Wq8H5kAAEgUsAAAG080g2BCyi24hyzUpt628BxJP89yG93svI6BypvrJeanl7xJHv/E5BOzG3Q9Eifhe+dOtwqjpPb0tOthSanuWRbIJpIJAMD6awIAABuYpz0RdgpYNdt5zC0JT5K0OMOtDC3RjzuWDB1YDyFfo+r5ko7McBNjBXrf/HZ7kAFSu+NaUrorY80nkAgAgEQBCwCwkcSNFVjYYT2TbZUl1XdLWpnhZo61nP189j3+wlqOdUepcqa7fyDLbXT5J3oL0R8YGTVvWbr9yPYjBQAAiQIWAGAjlvo33QkFrBrXM7m5X2YzJXmGe/p+1Wr8izkP+S61GOOO/vgt5jo72630H/S15b/JiKh9nnIBS+b7kQUAgEQBCwDwrIl9uh8fUcCqA72F8EqTvpbxWfn0eHXcJ3erpdh2FMsvNfMfKctvHDTdFa+LPsBIqBcpP9rtrMACAKxHAQsAsLF9U/zsVb0F+zspqA+rCuFnJV2T6Wm5NKOrGH+xVmLasdz3tvUb5bdktY0m/TNR9V2XHGxrGAV1woOU30To47vdmbMAAChgAQDWm+Gek7R3alOUtDcKxrBaYFatVsMTJL8303Nz0xc6ivGJmR+f9/sYq8Q/k2x8hpuZmOzkiwvNyxgB9aSa9srY6N579QLyAACggAUAkCSNKWpvpfhYkkn3koX6Mn+KPRaY3i1pXYabaSaf1zlQOTyzLXS3lnWVeZIOzXK+3fQf89rCX9Lz68sucf6B1PtWtfJiMgEAoIAFAJAkRUp7gmAPkoX6M6+Q/4uZZX0/pGYl+nlH/9DkLDauoxh/WbITMh7DX+zXGv4nPb7+XDDNVkt6Ms025DyggAUAoIAFAFgvCYIXpdsCf4gs1KeeQnipyc7PeDP3lOWu7ljue2epUZ2l8ofMdFaWA2emokfhyd1mCb29bqX7BYMn+5ACAAAFLADA+klokrwk1c+XP0AW6teqQu7fZfpVpseAfKLF8f/NWea7ZaE9ncX4bXL7VtZTW1Xy7r6J9gS9vH659EC6n2+swAIAUMACAGyYIJilugIr4RHCurbArBqUw5MkG8j4TP3AShz/9PSSN6XZjI7+8isk/6GkMMPRSiQ78eJC0yJ6eH2z1M/PFLAAABSwAAD/miCk+oiGW8IjhHVu3jR7PLHqOyWtyvhs/ag1SeX7crc0Pr5j2WDBzK6WtGumw2T6bG9b+At6dv3z1FfIOo8QAgAoYAEAnpqNprv3j4V5VmA1gIsLTYvM7CRJmd4vyc1O7irFXxntz519j7/QquGvJT0/25n0H/S0hl+lRzfI5UGe9vl5b7IAAKCABQBYP0FxvSDFj1/DHjqNo6cQ/lzSF7LeTpfO7CiWzxitz5vzkO9SjeOfSb5/xkPz16glmi0zpzc3zJThwZTH4gvIAQCAAhYAYMMEwfdK67PNxOqrBtNbCL8s+Q+y3k6T/XdnKT5+pD9nhnuusiq+TNJhGQ/JowrCt8/dx9bSixvp+pA8kO441PPTeqQXAJAdFLAAAE9NEfZMbXLkYv+rhutu5lFLNFvS7Zm/V3K/pKO/8uqR/JCWger3ZHpHxmNRNtfxva12Px24sVSDKO1zdHTifdqdTABAY6OABQDQjPt9jFLdMNofJguNZ+4+traaC98l6dGMN7U5MF15Smlo2kj88o5S5Ytyn531fLn7R3raoz/RcxvP4CQ9ppT3rQvXDu1FJgCgsVHAAgBoTFmpTgzcgsfJQmOaP8nuSxIdJ2koy+10aY/A7Vcz+/3Fw/l7O0rlLnN9Met5Mtn5fe3579NjG9MCs6qkJ9JsQxjk2AcLABocBSwAgMwrqRawgsT/QRYa18WToxvkdoqkjG8KbuPDIP7d7Hv8hcPx27pK8dvN7UJJWd/b5zf7Ppj7OD214a8UKX/RYKzAAoAGRwELAKDA7flpfr6bswKrwfW2hz+SdHbW2+mutmo1/sX7Sz5uZ35P10DlKHf/kaQw44d8d9nC93QfZTG9tNGl/EWDJRSwAKDR5yyEAADgie2R6rzEgsfIAnoL4Rckvyz7A0bT80n8q5Pv8B3aN66jv/wKT3SlpOaMH+k/Equ+89KCraR3wqXH0v18250sAEBjo4AFAFBgSaoTg8ScAhYkM/comiXp5uy3VYeHY+Kfnl7ypu35ZzOXDLaZ2S8kjc34EQ6a6e0XF5qX0TGxYXg+lu7nazeyAAANPmchBACAxCzdiUGVAhbW65togx6F75L7ihpo7htWe/yD7ut8mx4D7Bzw8blccI2krG9G7WY2u6cQ3USPxFNMlu4jhAkrsACg0VHAAgDIlO432x4k7IGFp/VNtEcU+FskPVkDzX3XihdXLpL7FjdiP3nAX6AkvkayfbN+QG76Uk8hvJSeiI0lSbqPECaWsAILABocBSwAgCxJdwWWhU2swMIz9BaaFnug90mqgc3D7ZSuUvWbm/uvc5b5bmES/1pSe+aPRFrQ1xr+Bz0Qz+kbqT/qzQosAGh0FLAAAGl/s13dbz+xSTSeo681+rXLP1ELbXX56V39le5n//zkO3zXSjX+laSX1cBh3JRE4UyZOb0Pz2YW/DPVSYtpd7IAAI2NAhYAQKZUV2Ct7jZLyAI2pa8t/02ZfbsW2uqmL3aWyv/+1P+fscjzuTHxTyS9qgbOAsviIHxn30QbpNdhkz3EtSbV8eVs4g4AjY4CFgBASvGNaC6tJfzYktWtuY/JdWVNNNbt3K5SedYM91xLFF9q0htroNWPVavxWy5ptb/R27DZrh14qudql+1KFgCgsVHAAgDIpTFpfbbJ1pABbMkCs2o0NjzRpVtroLnmbhe2FONrJB1fA+0dTBK9Y/6U5iI9DVvs2FVP9Vxt8l3IAgA0NgpYAACZlNrEwOWswMJWzd3H1uY9fKukUg00NyfTUTXQTjez2RdPjm6gh2HrvTr1c/UYkgAAjY0CFgBAkqW4AotHCLFt5rbbPxKrHiOJR92GY+y5PtlTCC8lEtim/hInaa+WZQUWADQ4ClgAAHmaj2YYBSxsu4sLzcsC92NF4XNnB96FPe3RucQB2yzfnPaYC2cs8jyJAIDGRQELACBL89EMpxCB7TOvPX+rmZ0gqUo0dmTI6ZerC7kPEwlsj/w6pb5f4R7NPEYIAI2MAhYAQJKa05tNswcWtl9PIfy5zD9JJLZzuEm35lvC9ywwo/iH7fKCqVq7vgulJ66INxECQAOjgAUADT+jdVOKBSy3gAIWdkhvIf8/kr5JJLaVLasG4bFz9zHGHLZbt1kiaTDNNiQ+yCOEANDAKGABQKNPSn6vXMpNGCQL2FETCuHHZf4jIrFVjyYWv+mSVmMDfOyMVFfueWg5UgAAjYsCFgA0uMdekm4BK3AlZAE7qtssiZ6MTpb0G6KxWatk/paLC83LCAV2Uqrna49FAQsAGhgFLABocE+sVZjqbChId08V1L65061iSTjDpNuIxnOUzXR8byF/O6HAcJyy0/zwXGghKQCAxkUBCwAafTayS7rfaJsoYGHn9Uy2VaGHb5bUTzT+NbzN7OSeQvR/hALD1afS/HBWYAFAY6OABQANzvMpF7CcAhaGx9x2+0cuiY9x6WGiIZn5/+sphD8mEhhGrMACAKSGAhYANLiWwXQLWC6ngIVhc9HkMctVTd4k6YkGD8XZPYX8efQIDPspO0XVRBSwAKCBUcACgAa3Lpf6tYACFoZV35Smu9z0LklDjRkB6+kthJ+nJ2AEztZVggAASAsFLABocFZJ+bXoFLAwAvoK0e9ldpLUcBPuqyY8mDtVZowrjMAFI+U9sHK8tRYAGhkFLABocM15xanOh9gDCyOktxBe7u4fUuMUSf+wekz43u6jLCb7GCGpjiVLWAEGAI2MAhYANLhwMOUVWCYjCxgpfe3575vrk3V/oKaFZQvfvmC8rSPrGEFRqp9edQpYANDAKGABQIP7+7h0C1gmayILGEk97dG5kv6rXo/PTMVcLnzbpQVbSbYxwsak2tdDVmABQCOjgAUADW6PR5X240bNZAEjrbct+rxM59bfkfn9cRC+4aL97VGyjHo/XxsrsACgoVHAAoAGt88haa/ASsaQBYyG3tbwky7rq5sDcj0SBMnr5k+y+8guRlq3e6CUHyFMIjZxB4BGRgELABp9UmKWSCmuwjJjBRZGq6/5mkJutqTLa/5QpH96krxxXmvzAInFaHjo4fRXy5o3DZIJAGhcFLAAAJKU3sbPCY8QYvQsMKtGK8MTJV1dw4exVq63901puouMYrRU/5n+ubpa0VoyAQCNiwIWAEByrUnto008QohRNXe6VaKWcIak62tyuJq9r6c9+hOZxKj2u1z6Bax1LRSwAKCRUcACAEhmaU4KWIGFUbdmjUJ56i8w2LHh6v6pE1f4HmQRoztpGEz7jbHJgpeIRwgBoKGvRQAAyFMrYLlYgYXR1bHc9857/AeZjqrRQziyaSi+fnbJX0I2MVoquWCXlJuwTmZOJgCgcVHAAgDIleZjGTaWDGC0zBoYbLVK9QZJL63xQ5lW9cqNnaWhqWQVo3KmToLnpdwEHh8EgAZHAQsAIEtxYmDyPckARsMpA+VDkiR3g+T718nIHS8Prj9laeUIsosR722BpVvAcqeABQANjgIWAEByPZnip4+bscjzJAEjqWugclSQ2O8kvaDODu15QaDfdpbi48kyRvYykaT7ZYPZP8kCADQ2ClgAAHnKE4Ndd9HzyAJGSkcxfrcnulrSuDo9xCa5/7CzWD6VbGOkmKe9AksUsACgwVHAAgAoMH881XlJXOYxQoyIzv7yR0y+QPX/tsucZN/rKlbOIesYEZbyFw1GAQsAGn7OQggAAJ7yN9uhBxSwMNyd2jpLlS/L7PxGut9x6cyOYvzd7us8pBNgmIfUHum2wJ4gCwDQ2ChgAQDkaa/AcqOAhWEzY5Hnu4qVi+X6dCMev8k/uOLF8dVzlvlu9AYM36Qh7RdupHudAgBk4VoEAGh45kGqK7BS3xwYdWPWIn/erlF8jZud3OCheEO5Gv9x5jLfl16BYZL2XoVPkAIAaGwUsAAAMvPH0vx8l72ALGBnnVIanJRE8Y0m/RvRkEw6KKjGN3ctLU8nGtj587ReknIL/kEWAKCxUcACACiJk4fTnWnbeLKAndFRKh8WeO5GSe1EY6OhJb3IA7u+oz9+H9HADnM3Samu5nMLHiIRANDYKGABAGRh/pFUP998AlnAjuosxceb2+8ksZJv05rN/LKu/ko3ocAOjbEBPV/SmFQbkSSPkAkAaGwUsAAA6m3VPySVU2uAi316sEM6iuUz5P6j1CfX2Wdu+mJHf3zRnIUeEQ5sj8QqqZ+jwyB6mEwAQGOjgAUAkMxc8kdTbAErsLBd5iz0qKM/vshk53E/s11DfVZ5XPwL3lCI7eo31SDtx7z9ybL+RiYAoLFxwwcAWD87kKX57XbLzCXOmwixTWYt8ufF4+JfmfksorH9THpjpRrfNHPJYBvRwDb1GUvSXoH1+IJpViYTANDYKGABANZPUFypPp4RhRUeI8RWnVIampZE1Vtdej3R2ClTcrncLV398TGEAttwhUh3BZaJDdwBABSwAABPTxBWpPnx1STgMUJsUVcpfnvgwU2STyIaw2J3N7+qo1Q5c8Nb5oDN2S/VT3ctJwUAAApYAID1zO9N9ePNW0kCNj15desoVc50959KGktAhlXOXOd0DlR+MOch34VwYDOmpvz5FLAAABSwAABPXxLuSfPTXTaNHODZOpZ7c2exMt9c53DfMpID0N5bWR3f2LFk3X4EAxvb8NbKVL9gsJS/YAEAZGS2QggAAJJUrVZT/Ybb5BSw8AyzS/4Si+PrZXYS0RgVB1suXNi5tPI6QoGnVHYrFyTl02xDkgT3kgkAAAUsAIAkqaWavyflJkztdue6BEnSrGLl36oe3y7XdKIxqvZUoF93lMqnEQqsl5uaehMsuZc8AACYKAAAJEkXTLPVkv6eYhN2XT4wNJFMoKNYPj2RrpW0V40ewiqZnSzp7hptf2Ru3+nsL19y8h2+Kz2y0XnqBayKRfeQBwAABSwAwNPMVEzz83MKeYywgZ22yFu6iuUfmOxbkqIaPYzHzfSm3kL4vx6Fr5Z0fQ2fEE4Kx8QLTykNMS4bWuoFrAcvLdhK8gAAoIAFANh4xro4zU9PEj+AHDSm2cWhKeui+FaXva9mp/my5Z6rHtZTiG6SpL6J9sTqMeGb5LqyhlMzOfDgps7++L300gblqb9gYzFJAABIFLAAAM+QpDpRsMAPIgeNp7M/fm9Vwa2SptTsHF+6Mx/njuib1Fza+OcLxtu61W3hcWb2/RpO0ViZ/7CzFJ8/Y5Hn6bGNo2upj83AuFxCJgAAEgUsAMAzJuG2JOUGvIosNI7u6zzsKlbOkfkPJbXU8KHcnFTD182dag9v6j8uMKv2FMI5bjqrtk8Q/pGxUXzj7KXr2KuuYWYK8aGScil3PFZgAQDWX5YIAQDgaRamPFGwfWeX/CUkov7N7PcXr9gn/oNLZ9b4ofx89ZjwdfOn2GNb+4t9heirbv5hSUmtHqxLh1SD8M9d/fEx9OL656bDU2+DGwUsAIAkClgAgI30TtIDklLdLDdR9XAyUd+6ipWjcxb/RRmYHO8MM/v+6kL47gXjbd22/pu+Qv4Cmb1X0lANH/qebv6Ljv7KV+Ys9IgeXdcOS7sBuThcRBoAABIFLADAM2fkLumONJuQuPMYYZ3qvs7Drv5Kt0u/kbRXTQ8V6as9rblTF5hVt/ff9hbCy930ZklP1vI9pJnOquwW39ixbLBA765D7ibXoak2QbZ83jR7nGQAACQKWACA584YFqZcGDiCJNSfU0qDk+59cXyDm75Y4/cfidxP72mLztpQ8N0hfYXo9+b+GpcervHzxXSr5m7r7I9PoZfXl9ml8mRJz0u5g91OJgAAT6GABQB4BgvstpSb8NIZ9/sYMlE/OkvxSYHnbjfplTV+KGtdNqO3Pf/t4fhlPe35O3Jx+CpJd9d4XMbKvK+zWL5szjLfjR5fH2K3I1O/HrluIxMAgKdQwAIAPEOSVNOeMES7rouPJBO1r2upj+3qL8+X+yWSxtX44TwauB/V1xb+ZDh/6byptqJs4RFa/1hljbMTKtXKXzsHKuxjVwfM7M0ZmKmwAgsAsNFlAQCAjfS15fuV8t48Jr2VTNS2rqXl6R7Et7nZyXVwOCXPVV89rz1/60j88ksLtnJ1IXyrm32n9kNl+ynRH7r6K90z3HOMhNq0YXP+16fdjigJWYEFAHgaBSwAwLPmn+aS/pJyIyhg1agZ7rmOUuVMD+xGSbW/ubfpdx6Fr+yb1FwayY9ZYFbtK4QfMdcnJCU1HrXQTV8cOxD/gQ3ea1OlJX61pJQfB7Vlc9vtH2QDAPAUClgAgE25Id2P99aupYPtpKG2zF66bmJLKf6tuc6RFNX68bisb3U5PKZvoj0xWp/Z0x6d627HSVpb8/FzHWHV3B0dpcqZ3e7cc9aSnN6S/vjT9SQCALAxbiYAAM9lGZg4WO5tJKJGuFtXsTynGoR3SnpNPRyRub7UV8h1LZhm5dH+8L728GfmfrikB+oglmPMdc6KYnw9q7FqaQSkX8CSJRSwAADPQAELAPDceUM1vFFSnO78iX2wasGsxT6hcyC+1mUXSmqpg0MactlJPe1R94bHaVPR056/o5oLj5Dprvo4qehwq+Zu7yiVT5O7MXKya/bSdRMlTUl/lkIBCwDwrEsDIQAAPGfyPNlWyfTXlCe8R87p9+eTjezq7C/PTsL4TrleVyeH9Ji73tDXFl6WhcbMn2T3lRUeqbp4Q6EkqcXcvtNViq+ZtdgnMIKyqRqEJ6beCNcjI73vHACg9lDAAgBsWpL6Y4RR2SonkIjs6Vrq+3QWK7+U2fcljauTw1rqueqr+tqjTK36uLRgKyc8GL7NZOfXS/9x6fVJGN/VWSyfymqs7DHTzAz0kj+SCQDAs1HAAgBsbhbzu/QvUnYKicgQd+vsL89WEN8tZWCPnOE6LOmXUS48LKsrPrqPsrinLfyo5F2Shuok7GMl+17XQHz9rIGhAxhc2dBVqrzKXW0ZaMo1ZAMA8Ny5AQAAmxCvy12X9mTZpUNmLh06iGykr2PZYKGrFF8js++7tEcdHdq31hTCd8ydZE9mvaG9bflemR8u+X31Enx3HZEkwV86i5VvnrbIWxhpaecjG18aVMPo/8gGAODZKGABADbpkoNtjTLwGvNcLphJNtIzZ6FHHaXKmVbN3eXS6+vo0AbN7ZTetuiMBWbVWml0byF/uyyaLukPdZSLUNJH10XVOzoGKm9m1KVjxiLPS358Bppy9/xJdh8ZAQA8GwUsAMDmmV+dehtcJ3Vf5yHJGH2dpcprKuPiu8x1jqSm+jkyvy8wP7ynPZxfi63vLdjfWyx8k7vNq68e5/tbol91FsuXdSz3vRmBo2vXqHq8pD0z0JRfkw0AwKZQwAIAbFbOPQsTiReueHF1BtkYPbMW+fM6i/E8ua6T1F5nh3d9HESvmFfI/6WWD+L8gg31tYez5X66pEp9pchOsEq8pLNU/tAM9xwjchS4m8k/mYWmJE4BCwCwaRSwAACbdVFb0xLJ7kl9biU/i7eVjbxu96Cjv/yBJIqXbtgwvM5ibheuroRHX9Jqf6uXI+ptz39bpjdI+nuddcfd5XbBrqX49q6BylGMzpHVsSx+k6SXpj5CpX+ujcPryQgAYFMoYAEAtsjlV2RgUnNQZ6n6VrIxcmb1l1+5ohTfaGZzJe1VZ4cXu+ms3rbwgwumWbnectdbiP6Qs/Dlkv5cb8dm0kGe6HedxcpVXcXB/RmpIxTnRGdl43pjP6vHMQoAGB4UsAAAW5lR+IKMNOQzJGP4dQ74+K5i+QeJ2c2SDq3DQ3zIXEf1FaKv1nMeLyrYA6vHhK+RrKdOD/FtrtyizlLly7ytcJjPAcXyoZJek5GJyRVkBACwOTyOAQDYMnfrLFXukWy/1JtiOqqvEP2epOy8Gff7mJbB+JNynSlplzq9y/ldbOEJ9fTI4LboKpY7XPades2rSw+b26cntOUu6TZLGM07p7NYuUrS2zLQlCdWV8IXsgILALA5rMACAGylCGAus0x8K26JzmYvrJ2d/bt19sfvbVlbWSLXl1SfRQ6XdPbq1vCNjVa8kqSetnyfV5PDJPXX5SlJepHM+1aU4oUd/fFbGNQ7rqs/PkbZKF7J3K+ieAUA2Mo9AAAAWzarv/zKxOyWbLTGu3rb8r1kZft1DFTebInOlvTyOj7MxwPZzHlt4S8bPd9dS32s5yrfl9t76/pm1nSDuT4zry36I6N8251e8qbVHt8lqZCRWcmbewvRb8gMAGDzlwoAALZBZ7GySNLUDDTlsWo1bJ8/xR4jK9umo1Q+zBL7skz1/ja3203VGT1tzfeQ9X/pKpbnuOxbkprq/FCvtcQ/3TM5v5Csb8N5ob/yGTOdnZHmPLi6EE5YYFYlMwCAzeERQgDANjFXVjaH3jMMqv9BRrZu5tKhgzqLlavM7aZ6L16Z2wUtFh5O8eq5etryc9391ZLfW+eHerQHdmtnsbJgdnFoCpnfwrlhme9rpiy9GKOP4hUAYKv3e4QAALAtTh7wF4RJ/ICkKAPNqbr7q/ra838mM8/V0T802cw+L9n7VP9fVq122al9beFlZH7LZi3y5yVR3Cfp2AY43Krcr1Cgr/YW8reT/X/pdg9WlOJfS3pDRprkQVBtm9faPEB2AABbQgELALDNOouVn0h6V0aaU7IkPKRnsq0iM+t1LS1PTwI7y9bnqBFWWd8tS97bW2haTPa3tVTg1lWMP+7rHx1rapCj/o2bzuENphvOE8XKJ136Woaa9Ifetui1ZAYAsDU8QggA2J6570UZak7BrXIBWZG6BipHdRQrv/HA/mzScQ1wfXeZfduj8BUUr7aTmfe0R+e6/DBJSxrkqN9krus6i5WbO/rjd3a7N+z9b2ep8hpXZva92tAljfM4AGDbrhmEAACw7WUDt85SvERSe4Za9cnetugbjZiLroHqse7+aUmHNdCR/12yrt628BcMyJ0z5yHfpbK6+g3JP9hg94SL3f286mB02SUH25pGOejZS9dNrAbhrZKen6ET2X0THowmdR9lMSMSALA1FLAAANuls1T+kDxT35gnLpvR1xb+pBHiP2eZ71auVmaa7DRJkxus+/3Go7Cjb6I9wkgcPh2l+FhznydprwY79CclXeyefLevvWlpXZ83FvuLKmH1j5K3ZqxpjfkFBABgh1DAAgBs30ToId+lsjq+X9LzMtSssgd6R19r9Ot6jfvMpUMH5YLcaZK/X1JLg3W7IZl/urc1Ok9mzigcfh3LfW+rxH2S3tSAh+8yXSfZd6Mnc1fOnW6VOsztNZIOyFjTVnsUju+baE8wAgEA24ICFgBgu3WWKl+W69MZa9Y6dzuxrz38Wb3EecYiz7dE1ePM/MPuOqJBu9sSl5/Y15b/KyNvhLlbR6nyUZOdI6m5QaPwkJn6qkouu7jQtKjWD6arOLi/K/w/ySdlsHnf6m2LzmDgAQC2FQUsAMB22/CN/jJJu2SsaVW5f6y3Pf/tWi4inNIfH54zO9HN36NM7Vcz6rcpF0YtuY/P3cfWMupGz/rVfsGlyt6KndEditKdJl1azYU/nD/J7qu19neVKm9016UZPYcMVj1snd9uDzLiAADbfGdICAAAO6KzVPmGXP8vo1PPy8ZUolMvmGarayeeQ1PlwYkuO9HkExu6c7kescBO7SmEP2ekpaNjuTcHlbjbpU9IyjV4OBKX/hTIf1AJop9c0mp/y3ruLI6/INenspo7k53f0xZ+lJEGANi+6wcAADvg5AF/QZjE90jaNZMNdF/hCk7raw+vzmoMZy4dOijIBceY672SXkavkiS/LKhEp8+bZo8Ti/TN6i+/MjHrkTSNaEiSEplud9evZH71mtbozwvMqllpXMdA5c2W6H+U7Rc8DFoSTuqZbA/RnQAA24MCFgBgh3UVK+e4dGamG+m6ToG+2luIfpN6vJb6WFn1aAU6xt2PkfQSetHTeXrEZR+qpz3M6sXpJW9ao/gLvn5FT0hEnuExyX/jFvzaFd94caF52Wg3oNs9uHeg+lZz/3+SXlMDMWPvKwDADqGABQDYYXP6/fkViwck7VYDzf2L3L4ZxLmrRmt1z4krfI98JT5UrkNN+je5jpSUp+c8m19WrUYfnT/FHiMW2XXKQPmQwK1XrgOJxmb93aVbA+kWmW5JwvDWkXjLXvd1Hq4YH79Sid4l+Xsk27dG4vOELGzrLdjf6SoAgO1FAQsAsFM6+isfN9O5NdTkWK7rLfCfm/m1uSfy/XOnW2Vnf2lnyfdyVSZJerlJh8rtUEltXGu36FFz+1BPe/hTQlEbZizy/K5R/DmTzpIUEZGtcskfkGyZuy0z+TLJ7jFPllkS/X3drlpZ2VcrN/cY4mmLvKWc1+6VJG4PAm8zD6a4fLKkwySNrb2Zh3+8t5D/H7oFAGCHLiOEAACwsxPalii+U1J7jR5CWdISl99tsqUm/0diwWNW9cc88MdV9apC2zVwa3Gz3ZVoVw+SXQO3fV2apH/9GUdv2K55/Q+q1eh0Vl3Vplml8ssSt15JBxONYTEoaY1kT8p9F5l2qcNzytJoZXjQcHxhAABoTBSwAAA7raM/fouZ/5JIYBs8ZG4fYdVV7Zuz0KPKuPhTkj4raQwRwRYnHW5v6WkPf0UkAAA7fC0hBACA4dBRrPzCpLcSCWxG1WQXDFnuc5cWbCXhqB+zl66bGAfh+Yx/bI5LV/S1RccTCQDAzqCABQAYFjP7/cU5i++WtDvRwLP8RfIP9bblbyEU9aujFB9rSXK+zCYQDWzksVwYTrtof3uUUAAAdkZACAAAw2F+uz1o8jOJBDbypMs/troQvoLiVf3rK4RXRWOjqeb6ktbvLQfIZR+leAUAGA6swAIADONMxa2zFP9K0psIRsP7hYLwtN5Wu59QNJ6ZSwbbwlzuApdeTzQa+zzQ2xYdSxgAAMOBAhYAYFh1LFm3n+XCv0rajWg05K3FgMw/0luIfkMsGpy7dZYqHZJ9TdLzCUiDpV96OAzDl7H6CgAwXHiEEAAwrPqmjLnXZLPWz1/QQNaY9AWPcgdSvIIkycx72/K9HoUFmc4VjxU2kqqZTqB4BQAY1lsLQgAAGAmdxcp5ks4gEnXPTbrc4vCT86baCsKBzZm5zPcN48p/udlJ3IPW+UnB9dm+9ujLRAIAMJy4eQAAjIgZizzfEsV/lHQo0ajTSar0RzP/995C/naigW3V1V85MjGda9IriUZdunpCITy22ywhFACA4UQBCwAwYjoHfLyS+GZJ+xCNurp9WObSp/rawp8QC+wQd+soVU8wJV+RbF8CUidple6sWPjqSwu2kmgAAIb9DpQQAABGUmep/HK5/UFSC9GoeavNdW6SD8/pm2iDhAM7a8Yiz+8aVT5ksi+JFz/UNJceTnLhYfMn2X1EAwAwEihgAQBG3Kxi/NZEfqWkHNGoSUMmm+uW+8/egv2dcGC4dZZ8L3n8KUmnSdqFiNSc1TJ/DY8TAwBGEgUsAMDoTFCL5VMl+y7XnppSkaxHQe7s3la7n3BgpM2+x18Yx/FZJp0qaQwRqQlrlejY3snR7wgFAGAkMYkAAIyarmJ5jsu+x/Un8xKTrrCg+pl5rc0DhAOj7eQBf0GUxB936aOikJVl60x6e09bdC2hAACMNCYQAIBRRREr0xKTroir1c/Nn9JcJBxI20aFrDMkNRORTKF4BQAYVUweAACjrrO//BGZfYvrUGYkcr88Z959UVvTEsKBrJm5zPfNVaufkfwUUcjKwgTin256V28h+gPRAACM4vUHAIDR11WK3+PuFzMZTdWQZJfKquf2FpoWEw5k3ckD/oKwGn9YptMkPZ+IjD6XLQ9VfSvFbgDAaKOABQBITWexfKhkP5f0AqIxqlZK6stZ+PWLCvYA4UCtOb3kTWuS6nvd/CxJU4jIqPlzLgyPvWh/e5RQAABGGwUsAECqTikNTgo8d6WkaURjhLmvsEDnNZejiy6YZqsJCGpdt3twX7H6DgX+/9x1BBEZwUmD2fdXNefOWDDe1hENAEAq1yJCAABI25yHfJfK6ur5kncRjRFxu2TfmPBgbkH3URYTDtSjjlL5MJM+Jrd3ScoTkWGzyt3m9LWHPyQUAIA0UcACAGRGVyl+v7t/V9JYorHT1pn75ZLN7WmP/kQ40Cg6S76XJfFMN82WNJmI7DiXblWuelLfpOYS0QAApI0CFgAgU2YNDLZ6kvueS68nGjt0Zb/L3b9fbor+97IJ9k8CgkbW1V850gP/gNxmSBpDRLbZKpd/fk0h+vYCsyrhAABk4zYXAICscbeuYvVkNz9XvGlsW6yR7Mduydy+Qv5mwgE8U8dy3z0oV97vZrMlvZSIbNFVCsIP97ba/YQCAJAlFLAAAJk1c4nvmctVv7xhb6yQiDxDIukGmf8gCqLL5k6yJwkJsHUdS4YOVC6YYdLx4g2GG7tFiT7TOzn6HaEAAGQRBSwAQOZ1LR1sT4Lc2Sa9u8GvXS7XTW7+48Sjy+e324P0DmDHzRoYOiCpBjNkmqFGLWaZ7pLs872F8Ep6BAAg25csAABqZbLZX35lYnampHdKChrksF3SLTL/sSy6nMd6gBE6v/yrmPVuSQc0wHnlVy6d11cIr5WZ0wMAAFlHAQsAUHO6ioP7u3JnSOpUfb6xcLWk30t+TRBHV86baivIOjCK55ilvo+serSUHJ2YHW3Si+riwFyPuOmHQVL9Xs/k5n4yDQCoJRSwAAC1PMkc61Z9t8xPknSUpFyNHkpV0p9duiYnXZtbGd40d7pVyDCQDbMGhg5wt6MTt6NNeo2klhpq/hMy/7nJLl3VGv6WtwoCAGoVBSwAQF3oWur7eFA5XrK3SPo3SWMy3NxBSXfI7M+W6HdJPndd30R7giwC2TdnoUfx2MrUJNAhQRIc4uYvl3Rwhs45iUy3y/XrJNGvJz4c3tJ9lMVkDgBQ6yhgAQDqzoz7fcyuQ/FrzHW0XIdKepmkXVNqzqBLd5rsNrdkYZDotn0fihYxoQTqR/d1Ht7zovLUMLCXS8HL3bxVrv0k7aeRLWzFkpa7dGcg3ZKY/hxUw9t6JtsqsgIAqDcUsAAADTG5vG+fyrQk0CGBW5tLBZdaTSoM0+RynWQPSv6gZMvkPqDAStVqtdi8Or+ExwGBxjX7Hn+hVyoTPAj2k/sEN9tXnjxPst3l2l2mXSQbJ0nyJCcLNjzi52tNGnJpnZn+4W6Puvxvkv9dHixTGJfy/2y6l/MLAKBRUMACADS095d8XC4e2tsst1eQs+dLGmue7OKSudnuT/29wP1JSYlbsDZw/TNO/Ikgl/yzGucfnT/FHiOSAAAAAAAAAAAAAAAAAAAAAAAAAAAAAAAAAAAAAAAAAAAAAAAAAAAAAAAAAAAAAAAAAAAAAAAAAAAAAAAAAAAAAAAAAAAAAAAAAAAAAAAAAAAAAAAAAAAAAAAAAAAAAAAAAAAAAAAAAAAAAAAAAAAAAAAAAAAAAAAAAAAAAAAAAAAAAAAAAAAAAAAAAAAAAAAAAAAAAAAAAAAAAAAAAAAAAAAAAAAAAAAAAAAAAAAAAAAAAAAAAAAAAAAAAAAAAAAAAAAAAAAAAAAAAAAAAAAAAAAAAAAAAAAAAAAAAAAAAAAAAAAAAAAAAAAAAAAAAAAAAAAAAAAAAAAAAAAAAAAAAAAAAAAAAAAAAAAAAAAAAAAAAAAAAAAAAAAAAAAAAAAAAAAAAAAAAAAAAAAAAAAAAAAAAAAAAAAAAAAAAAAAAAAAAAAAAAAAAAAAAAAAAAAAAAAAAAAAAAAAAAAAAAAAAAAAAAAAAAAAAAAAAAAAAAAAAAAAAAAAAAAAAAAAAAAAAAAAAAAAAAAAAAAAAAAAAAAAAAAAAAAAAAAAAAAAAAAAAAAAAAAAAAAAAAAAAAAAAAAAAAAAAAAAAAAAAAAAAAAAAAAAAAAAAAAAAAAAAAAAAAAAAAAAAAAAAAAAAAAAAAAAAAAAAAAAAAAAAAAAAAAAAAAAAAAAAAAAAAAAAAAAAAAAAAAAAAAAAAAAAAAAAAAAAAAAAAAAAAAAAAAAAAAAAAAAAAAAAAAAAAAAAAAAAAAAAAAAAAAAAAAAAAAAAAAAAAAAAAAAAAAAAAAAAAAAAAAAAAAAAAAAAAAAAAAAAAAAAAAAAAAAAAAAAAAAAAAAAAAAAAAAAAAAAAAAAAAAAAAAAAAAAAAAAAAAAAAAAAAAAAAAAAAAAAAAAAAAAAAAAAAAAAAAAAAAAAAAAAAAAAAAAAAAAAAAAAAAAAAAAAAAAAAAAAAAAAAAAAAAAAAAAAAAAAAAAAAAAAAAAAAAAAAAAAAAAAAAAAAAAAAAAAAAAAAAAAAAAAAAAAAAAAAAAAAAAAAAAAAAAAAAAAAAAAAAAAAAAAAAAAAAAGrX/wdrsw7gq2kmHQAAACV0RVh0ZGF0ZTpjcmVhdGUAMjAxNy0xMC0wOVQwNDozMTowOCswMDowMCLKfdkAAAAldEVYdGRhdGU6bW9kaWZ5ADIwMTctMTAtMDlUMDQ6MzE6MDgrMDA6MDBTl8VlAAAAAElFTkSuQmCCGydJ8iQnCzY84udrTRpyaZ2Z/uFuj7r8b5L/XR4sUxiX8v9supfzCwCgUVDAAgA0tPeXfFwuHtrbLLdXkLPnSxprnuzikrnZ7k/9vcD9SUmJW7A2cP0zTvyJIJf8sxrnH50/xR4jkgAAAAAAAAAAAAAAAAAAAAAAAAAAAAAAAAAAAAAAAAAAAAAAAAAAAAAAAAAAAAAAAAAAAAAAAAAAAAAAAAAAAAAAAAAAAAAAAAAAAAAAAAAAAAAAAAAAAAAAAAAAAAAAAAAAAAAAAAAAAAAAAAAAAAAAAAAAAAAAAAAAAAAAAAAAAAAAAAAAAAAAAAAAAAAAAAAAAAAAAAAAAAAAAAAAAAAAAAAAAAAAAAAAAAAAAAAAAAA=" parent="1" vertex="1">
          <mxGeometry x="-130" y="301.59999999999997" width="168.1" height="118.79" as="geometry" />
        </mxCell>
        <mxCell id="HsBqYYypXnQ4gRw45o31-10" value="Service" style="rounded=1;whiteSpace=wrap;html=1;" parent="1" vertex="1">
          <mxGeometry x="550.12" y="570" width="120" height="41.5" as="geometry" />
        </mxCell>
        <mxCell id="HsBqYYypXnQ4gRw45o31-12" value="" style="shape=image;verticalLabelPosition=bottom;labelBackgroundColor=default;verticalAlign=top;aspect=fixed;imageAspect=0;image=https://images.ctfassets.net/gt6dp23g0g38/5DqlQtFKecFlkqQ8YGDT2p/aa945b648f44dd872e9a1b89f7d203ef/springboot.png;" parent="1" vertex="1">
          <mxGeometry x="550.12" y="574.9966666666667" width="20.7915" height="18.675" as="geometry" />
        </mxCell>
        <mxCell id="HsBqYYypXnQ4gRw45o31-13" value="" style="endArrow=classic;html=1;rounded=0;fontSize=15;endSize=6;strokeWidth=3;strokeColor=#C73500;fillColor=#fa6800;edgeStyle=entityRelationEdgeStyle;entryX=0;entryY=0.5;entryDx=0;entryDy=0;flowAnimation=1;" parent="1" source="Jx5W27o9Ek6RV-WZzhhY-122" target="HsBqYYypXnQ4gRw45o31-10" edge="1">
          <mxGeometry width="50" height="50" relative="1" as="geometry">
            <mxPoint x="173" y="478" as="sourcePoint" />
            <mxPoint x="549" y="585" as="targetPoint" />
          </mxGeometry>
        </mxCell>
        <mxCell id="HsBqYYypXnQ4gRw45o31-14" value="/service" style="edgeLabel;html=1;align=center;verticalAlign=middle;resizable=0;points=[];fontSize=15;" parent="HsBqYYypXnQ4gRw45o31-13" vertex="1" connectable="0">
          <mxGeometry x="0.2804" y="-3" relative="1" as="geometry">
            <mxPoint x="-31" y="-27" as="offset" />
          </mxGeometry>
        </mxCell>
        <mxCell id="HsBqYYypXnQ4gRw45o31-15" value="" style="group" parent="1" vertex="1" connectable="0">
          <mxGeometry x="720" y="580" width="60" height="50" as="geometry" />
        </mxCell>
        <mxCell id="HsBqYYypXnQ4gRw45o31-16" value="" style="shape=image;verticalLabelPosition=bottom;labelBackgroundColor=default;verticalAlign=top;aspect=fixed;imageAspect=0;image=https://upload.wikimedia.org/wikipedia/commons/thumb/b/ba/Database-postgres.svg/1448px-Database-postgres.svg.png;container=0;" parent="HsBqYYypXnQ4gRw45o31-15" vertex="1">
          <mxGeometry x="16.75660668568938" width="31.330071273071113" height="44.26930642860679" as="geometry" />
        </mxCell>
        <mxCell id="HsBqYYypXnQ4gRw45o31-17" value="" style="sketch=0;aspect=fixed;html=1;points=[];align=center;image;fontSize=12;image=img/lib/mscae/Docker.svg;fillColor=none;container=0;" parent="HsBqYYypXnQ4gRw45o31-15" vertex="1">
          <mxGeometry y="31.8132107858429" width="22.179011236776947" height="18.1867892141571" as="geometry" />
        </mxCell>
        <mxCell id="HsBqYYypXnQ4gRw45o31-18" style="edgeStyle=orthogonalEdgeStyle;rounded=0;orthogonalLoop=1;jettySize=auto;html=1;shape=link;flowAnimation=1;exitX=1;exitY=0.5;exitDx=0;exitDy=0;entryX=0;entryY=0.25;entryDx=0;entryDy=0;" parent="1" source="HsBqYYypXnQ4gRw45o31-10" target="HsBqYYypXnQ4gRw45o31-16" edge="1">
          <mxGeometry relative="1" as="geometry">
            <mxPoint x="485.31214684756577" y="599.090332383561" as="sourcePoint" />
            <mxPoint x="791.8963447725458" y="592.9583454753787" as="targetPoint" />
            <Array as="points" />
          </mxGeometry>
        </mxCell>
        <mxCell id="HsBqYYypXnQ4gRw45o31-27" style="rounded=0;orthogonalLoop=1;jettySize=auto;html=1;exitX=1;exitY=0.25;exitDx=0;exitDy=0;entryX=0.5;entryY=1;entryDx=0;entryDy=0;strokeWidth=3;fillColor=#1ba1e2;strokeColor=#006EAF;flowAnimation=1;" parent="1" source="HsBqYYypXnQ4gRw45o31-10" target="Jx5W27o9Ek6RV-WZzhhY-142" edge="1">
          <mxGeometry relative="1" as="geometry">
            <mxPoint x="830" y="639.5" as="sourcePoint" />
            <mxPoint x="830" y="381.5" as="targetPoint" />
          </mxGeometry>
        </mxCell>
        <mxCell id="HsBqYYypXnQ4gRw45o31-28" value="" style="shape=image;verticalLabelPosition=bottom;verticalAlign=top;imageAspect=0;aspect=fixed;image=data:image/png,iVBORw0KGgoAAAANSUhEUgAACWAAAAPWCAYAAABkrqNIAAAABHNCSVQICAgIfAhkiAAAAAlwSFlzAAAOLAAADiwB+ZvuEAAAABl0RVh0U29mdHdhcmUAd3d3Lmlua3NjYXBlLm9yZ5vuPBoAACAASURBVHic7N17kN1nYeb55/2dluQLWAYb4guO8S3Yal+wWrIBycaAZyaX2UlmEzuVSQ0zYEsyIeWEZFNTk8nWKrM1tUU2wxCyJLQMJgPJTGKTTVKTbCZkN1AzwY51GeNLyw6gSECwwY5t+SJLlvr83v3DhnAxoEt3v93nfD7lrnarLPdXVaeqW+c8/b4lAAAAAMCceP0HZ17e1+6cYR2+utRyZkpOSS2npPSnpJRXpObkF/7T41Jz/Df85pKnk8wm6VPyWGoe+9r7lL9L33+xTnS79z9X98y8c/KZhf6zAQAAAPDiSusAAAAAAFhqrrzlnlcNs+zS0tdLU+plSbkoyTlJTlqghL9Lsrsk99WUe0up9w1KPn3njZOPL9DnBwAAAOAFBlgAAAAA8B2c/77Prjj5hOfWdMNuXS11XZI3JDm1dde38YWa8qnUekcp+ctXn7zqvtuvL8PWUQAAAACjzAALAAAAAL7J1PQDlwxSf6CW/EBSX59kReumo/R0kk+U5E8PdeVP775x1edbBwEAAACMGgMsAAAAAMbedbfVwZ69D7wptV6X5AdSclbrpnmys9T8SWp/29abLtneOgYAAABgFBhgAQAAADCeNtfuijN3rqt9+fGUel2SV7ZOWmC7asnv1r77vR2bLrqvdQwAAADAUmWABQAAAMBYufKW+76n1vIva8qGJOe17lkkdpbUjyyf7bf85U9d+kTrGAAAAIClxAALAAAAgLGw9gMzbyldbqrJDydZ1rpnkXo6Nf+51PobW2+6+J7WMQAAAABLgQEWAAAAAKNrc+3WnjbzQ6Ur/6YmV7bOWWI+lb6+e9umyT9OKbV1DAAAAMBiZYAFAAAAwMi55sO7j9t38NmNKXlXkle37lnSau5OV9697UsX3Z7NpW+dAwAAALDYGGABAAAAMDKmprcvG3Qn/EStdXOSc1r3jJiZUvPLWzeu+pgTsQAAAAD+ngEWAAAAAEtfrWXtB3f+ZGo2Jzmvdc4oK8ldKfnFrRsm/6J1CwAAAMBiYIAFAAAAwJJ25S0PTPW1vi+pb2jdMl7KH2di9me2vf3Sv2ldAgAAANCSARYAAAAAS9La98+clon8ckpuTNK17hlTB1PygeXd4Jc+dcOFT7eOAQAAAGjBAAsAAACApeX56wY3pOZXkqxsnUNSks8nddPWjRf/WesWAAAAgIVmgAUAAADAkvG633zg1cNBf0uSa1u38CJKbi/Pde/Y+tMXPdY6BQAAAGChOJodAAAAgMWv1rJmeuanh4P+/hhfLV4119Xl/X1rP3D//9Q6BQAAAGChOAELAAAAgEXt8ls/+4qJ2UO3JvUft27h8JXko8O6/6Ydm9Y827oFAAAAYD4ZYAEAAACwaF1xy8yba81Hk5zRuoWjsrMr/U/cteGSe1uHAAAAAMwXAywAAAAAFp/NtVt7xswvJ+UXk3Stczgm+2vKpu0bV320dQgAAADAfDDAAgAAAGBRWfehB1/63HD4kZL8SOsW5lDNlj77f3rHpjWHWqcAAAAAzCUDLAAAAAAWjSu2PPB9ffo/LMlFrVuYF/+9K/11d2245CutQwAAAADmigEWAAAAAIvC2i07r03q7yc5qXUL82p3X4c/uGPTpQ+2DgEAAACYC13rAAAAAABYs2XnP0/qn8T4ahyc05XBHWs/sPPq1iEAAAAAc8EACwAAAICm1m7Z+TMl9T8mWd66hQXzsnT142tv2fnjrUMAAAAAjpUBFgAAAABt1FrWTt//H5L63iSldQ4LbkVq/U9X3LLzhtYhAAAAAMfCAAsAAACAhVdrWfvBne9NKT/bOoWmulrrLWunZ25uHQIAAABwtAywAAAAAFhYtZa1Wx749dQY3ZAkJSXvXTN9/7tahwAAAAAcDUe7AwAAALBwai1rPzizJbXc2DqFxaeW8q7tG1a9t3UHAAAAwJFwAhYAAAAAC+aKLTvfbXzFt1Nqfc8V0zs9PgAAAIAlxQlYAAAAACyItdP3/68p5d+27mDRG5aan9i6afL21iEAAAAAh8MACwAAAIB5t3bLzp9K6vtbd7BkPFdKfnDrhsm/aB0CAAAA8N0YYAEAAAAwr9Z+YOb70+W/JJlo3cKS8lTtyrrtN666v3UIAAAAwHdigAUAAADAvLnyAzOr+i53JFnZuoUlafey4ezr7njHZY+0DgEAAAD4drrWAQAAAACMprXvnzmtdvl/YnzF0TtndjDx++e/77MrWocAAAAAfDsGWAAAAADMuanp7cuyLB+rydmtW1jaarL+Zccd+vXWHQAAAADfjgEWAAAAAHOuy3G/kmRd6w5GRd2w9paZt7WuAAAAAHgxpXUAAAAAAKNlzS0zP1xq/iCee2JuHahd3rD9xsm7W4cAAAAAfD1PggEAAAAwZ678wM4L+q5uT3JS6xZG0meWDwZrPnXDhU+3DgEAAAD4KlcQAgAAADAnrtn8iYna1Y/G+Ir5830HZ4e/1joCAAAA4OsZYAEAAAAwJ549/ZW/VJMrW3cw4kretuaWmR9rnQEAAADwVa4gBAAAAOCYTU3vXN2V+ldJlrVuYSz8XQ7lkm3vnPxy6xAAAAAAJ2ABAAAAcEyu+fDu47pSfyfGVyycU7Ms060jAAAAABIDLAAAAACO0b7Z/b+Y5MLWHYydf7Jmy/0/2joCAAAAwBWEAAAAABy1NR968DVlOLwnyYrWLYylhw8tO7jq02+7fG/rEAAAAGB8OQELAAAAgKNTa8lw+JsxvqKd0ycOLf+3rSMAAACA8eYELAAAAACOytotM/8yyYdbdzD2+q50V9y14aIdrUMAAACA8eQELAAAAACO2Ovf88XjU+PkIRaDrq/9v28dAQAAAIwvAywAAAAAjtjwxKf+VUrOat0BL3jjFdM7f6R1BAAAADCeXEEIAAAAwBG5/EMPnjExHH4myYmtW+Dr7HriwPLJz918wXOtQwAAAIDx4gQsAAAAAI7IxLDfHOMrFp/zTl5xcEPrCAAAAGD8OAELAAAAgMN2+Qd3nj3R188kWd66BV7EwxPPnHTenT931v7WIQAAAMD4cAIWAAAAAIdtova/FOMrFq/TD5341A2tIwAAAIDx4gQsAAAAAA6L069YIpyCBQAAACwoJ2ABAAAAcFiW9fVfx/iKxe/02Zc8/bbWEQAAAMD4MMACAAAA4Luamv7rU2vy1tYdcHjqz2Zz9dwnAAAAsCA8CQEAAADAd9WV4U1Jjm/dAYfpgjVn7PzHrSMAAACA8WCABQAAAMB3NDW9fVlSb2rdAUeipLyrdQMAAAAwHgywAAAAAPiOuu74H09yZusOODL1mrVbZl7bugIAAAAYfQZYAAAAAHxnNRtbJ8BRqeXG1gkAAADA6CutAwAAAABYvK7Y8sD31fQPxvNILE1P9nX/GTs2rXm2dQgAAAAwupyABQAAAMC3VUv/thhfsXStHOT4H2kdAQAAAIw2AywAAAAAXtQ1mz8xkZq3tu6AY1FL3ta6AQAAABhtBlgAAAAAvKj9p5/65iRntO6AY/Tmyz/0oMcxAAAAMG8MsAAAAAB4UX0Z/FjrBpgD3WB2+D+3jgAAAABGlwEWAAAAAN/iutvqIKk/3LoD5kIpMSYEAAAA5o0BFgAAAADfYs/eB96U5JWtO2COXOUaQgAAAGC+GGABAAAA8CL6f9q6AOZQt2w4/CetIwAAAIDRZIAFAAAAwLeq5ftbJ8Bc6pN/1LoBAAAAGE2ldQAAAAAAi8vqD86cP+jz2dYdMMee7uv+U3ZsWnOodQgAAAAwWpyABQAAAMA36Gp1UhCj6KWD7vjXtY4AAAAARo8BFgAAAADfoPTFAIuRVGv9h60bAAAAgNFjgAUAAADA39tcu5Ssb50B86GkXNO6AQAAABg9BlgAAAAAfM2aVz2wKsnLWnfAfKjJ2vPf99kVrTsAAACA0WKABQAAAMDXlL5/fesGmEcrVq44+NrWEQAAAMBoMcACAAAA4O/VYoDFSCupb2jdAAAAAIwWAywAAAAA/l7Jla0TYD6VUl7XugEAAAAYLQZYAAAAACRJrvnw7uOSvKZ1B8yrmstaJwAAAACjxQALAAAAgCTJ0wf3r0oyaN0B86rk/Ne/54vHt84AAAAARocBFgAAAABJkkH6S1o3wAIYHDrpqQtbRwAAAACjwwALAAAAgCRJLeXi1g2wELpajA0BAACAOWOABQAAAECSpCYXtW6AhVBTPdYBAACAOWOABQAAAECSpCSvbt0AC6LWV7dOAAAAAEaHARYAAAAAX/W9rQNgQZRydusEAAAAYHQYYAEAAACQqem/PjXJS1t3wIKoTnsDAAAA5o4BFgAAAACZ6HonAjFOTrvmw7uPax0BAAAAjAYDLAAAAADSD4dntG6ABVSenX3u9NYRAAAAwGgwwAIAAAAgGZRTWyfAghoeOqV1AgAAADAaDLAAAAAASGqMURgvXfGYBwAAAOaEARYAAAAASfLy1gGwkPriMQ8AAADMDQMsAAAAAFIMsBg3vROwAAAAgLlhgAUAAABAas2JrRtgIXWleswDAAAAc8IACwAAAICkZHnrBFhINWVF6wYAAABgNBhgAQAAAJCSGKMwVqrRIQAAADBHDLAAAAAASI0xCuOl6z3mAQAAgLlhgAUAwNdcd1sdvOE373ll6w4AoIllrQNgIdXOqW8AAADA3JhoHQAAQDvXbP7ExP4zT7usr3V9Sl23Z+/Ot5TBxO1JbmrdBgAsrJrSl9TWGbBgSi3D1g0AAADAaDDAAgAYI1PT209Ijl89KHVdTbl2X7IutT8+SbzeCgDjrSQHWzfAQqqlPte6AQAAABgNBlgAACNs3YcefOnBYX9lqXV9LVmX5KokK2pK6zQAYLGpOehbBMZKNToEAAAA5oYBFgDACLnylvu+px+WK9J165J67cHh8PIkXfViKgDw3ZT+YCywGCOlFgMsAAAAYE4YYAEALGFT0/ed15XuqtRcXUqu6mvOT5e4TxAAOGKley7V9xCMD1cQAgAAAHPFAAsAYAlZe+u952Y4uLbUrK/PXyf46iRJMbkCAI5R3z+R4gQsxkdNHm/dAAAAAIwGAywAgEXqutvqYM/enRemZF2Sa1Pzpszm1MTYCgCYF8YojJWuFo95AAAAYE4YYAEALBLXbP7ExP4zT7us1uG1Nd36PXt3rk9ysrUVALAgSveYmTdjpauPtU4AAAAARoMBFgBAI5d+5J4TVxxY9vpS6/pasm5fsj61Py4p8eInALDgSh7zLQjjpAxjgAUAAADMCQMsAIAFcvmtn33FstlD62vtr04pV+VAXpvUQS2tywAAkpL6qP0VY2XQG2ABAAAAc8IACwBgnkxN7zx9kLq+dlmfmnWZPXh5TboUiysAYPEpw/LF2plgMTb233XjxY9kQ+sMAAAAYBQYYAEAzJG1t957bhlOrK99XZeS9UldVRO3CQIAS8IzL6+fP2Fv+iRd6xZYAJ9PKb5TBwAAAOaEARYAwFFae+u952Y4uLbUrK/JGzOb762piQOuAIAlaOb6yYNrt8x8OckZrVtg3pXsaZ0AAAAAjA4DLACAw3DN5k9M7D/ztMv6Wten1HVJ3pzZnJI44AoAGCEln081wGL0lZrPt24AAAAARocBFgDAi5ia3n7CoDv+dX1yVam5el/yutT+hCQWVwDAyCo1n6vJ61t3wHzrS9nVugEAAAAYHQZYAABJJt8/85ITlpXXlVrX15J1Sa6qNSvcJggAjJVa7k+xNmcM1Hp/6wQAAABgdBhgAQBj6Q2/ec8rD5XBlem6dUldn+SKpC6rFlcAwBjru9xvf8U4GJTZ+1o3AAAAAKPDAAsAGAuXf+jBM5bNDtfVLutTs+5QsjpJcZ8gAMDfK4PhfZntWmfAfHvyrhsv/VI2tM4AAAAARoUBFgAwemotV07vvGhYclUpuSo1V2c4PKuW2FsBAHwH295+yRfXbpnZm+Tk1i0wX0pyX4qz3gAAAIC5Y4AFACx5191WB3v27rwwJeuSXJtbdl7Td3nF124TdK0gAMDhK9mRmre0zoD5U7a1LgAAAABGiwEWALDkXLP5ExP7zzztsr7W9Sl13Z69O69N8jKnWwEAzIVyR1INsBhdtd7ZOgEAAAAYLQZYAMCid+lH7jlx2f6Jywelrqsp1+5L1qX2xydxpSAAwByrtd7pAFFGWelmDbAAAACAOWWABQAsOus+9OBLDw77K5Ncm9T1OZC1KVle3SUIADDvZpcdvHPZoeV9kq51C8yDL9y14bK/bR0BAAAAjBYDLACgucs/9OAZg2F/dUl/VWq5+uBwOJlYWwEAtPDpt12+d+2WmQeTrGrdAnOv3tG6AAAAABg9BlgAwIK7/EMPnrFsdriuJtemZH2Gw4uSlK/+AwBAc38eAyxGUE3589YNAAAAwOgxwAIA5t3aW+89N8PBtaVmfZKr63B4djW0AgBYtGopHy+1/kzrDphrZaI3wAIAAADmnAEWADCnrrutDvbs3XlhStYluTY1b8psTk2S2rgNAIDDU/tnP1nK8c8lWdG6BebQzLa3X/LF1hEAAADA6DHAAgCOydT09mUT3YmX1jq8tqZbv2fvzvVJTra2AgBYunZsWvPs2ltm/jI1b2ndAnOlpHy8dQMAAAAwmgywAIAjcuX7PnvS8LiD60pyVZKrk6zpa78iKXHGFQDACKnlvyTVAIvRUeoft04AAAAARpMBFgDwHV1+62dfMXHwudel69YldX2fg1eUZFnrLgAA5tfEcPCx2cHsf8jzS3tY6h494UuP/LfWEQAAAMBoMsACAL7B1PTO0wep62uX9alZl9mDq9OV4nQrAIDxcuc7XvOltbfM/FVqXt+6BY5VTX7/k5vfNNu6AwAAABhNBlgAMObW3nrvuWU4sb72dV1K1id1VU3srQAASKn5WI0BFktfSfn91g0AAADA6DLAAoBxsrl2a8/YeWlqri4lV9Xkqszme2qqi2UAAPgWw5qPdSX/Z5KudQscg0dOfOgrn2wdAQAAAIwuAywAGGHXbP7ExP4zT7usr3V9Sl2XuvMtSV4eFwoCAHAYdmya/MLaLTN/keTa1i1wtGry264fBAAAAOaTARYAjJCp6e0nJMevHpS6rqZbvy/16tT+pCQWVwAAHJVa6q2lFgMslqxB6f9j6wYAAABgtBlgAcAStu5DD7704LC/stS6vpasS3JVkhU1JRZXAADMhZdMnPgH+w49+0SSl7VugaOw9a4Nl9zbOgIAAAAYbQZYALCErH3/zGllIlf1JVcl5Y0Hh8OLk3S1tC4DAGBUffJt5xy4YsvM79Tkp1u3wJEqyYdbNwAAAACjzwALABaxyz/04BnLZofrapf1qVmXZHVNyvN7KydcAQCwULpfT/qfStK1LoEjsHffofx26wgAAABg9BlgAcAisvbWe88tw4n1ta/rUvIPMhyeU90mCABAY1s3XvSZtbfMfDw139+6BQ5XTd0y886Ln2ndAQAAAIw+AywAaOS62+pgz96dF6ZkXZJrU3NNZvOKmpq4UhAAgEWm1PremmKAxVIxW2t5f+sIAAAAYDw4Nh4AGtm994GPJrk/NdOpuS7JK1o3AQDAt7N1w+THk+xs3QGHp35sx6bJL7SuAAAAAMaDARYANFJS17RuAACAw1ZKLaW8u3UGHIZau/IrrSMAAACA8WGABQANTE3vWpnk/NYdAABwJM5eedHvpOavW3fAd1KTP9p+4+TdrTsAAACA8WGABQANDLoDU0lK6w4AADgSt19fhiX1/2jdAd9B7fr+37WOAAAAAMaLARYANNCnTLVuAACAo3H2yyZ/2ylYLFY1+aOtN12yvXUHAAAAMF4MsACggVL71a0bAADgaNx+fRnWrv5y6w54EcNB6f+31hEAAADA+DHAAoAGSsqa1g0AAHC0tt84+btJuaN1B3yjcutdGy65t3UFAAAAMH4MsABggU1N71pZk/NadwAAwFErpZa+/C9JausUSJKSPNPXOP0KAAAAaMIACwAW2KA7MJWktO4AAIBjsfWmi+5M8n+37oAkqSnv3rFp1cOtOwAAAIDxZIAFAAus1qxu3QAAAHOhlMEvJHm2dQdjruZvJp556b9vnQEAAACMLwMsAFhoNWtaJwAAwFzYuuHC3an531t3MN5Kys13/txZ+1t3AAAAAOPLAAsAFlgpmWrdAAAAc+XEhx/51SSfbt3BuKq/u3XTqj9pXQEAAACMNwMsAFhAU9O7VtbkvNYdAAAwVz65+U2ztcumJH3rFsbOU7ODiZ9vHQEAAABggAUAC2gi+1cnKa07AABgLm2/cXJrSfm11h2MnZ+5+4YLH2odAQAAAGCABQALaNh1a1o3AADAfHj8wLJ/neS+1h2Mh5r84baNk7/VugMAAAAgMcACgAVV+jrVugEAAObD526+4Lkkb01ysHULI++R5cPZTa0jAAAAAL7KAAsAFlLJ6tYJAAAwX7ZtnPx0ks2tOxhptdTy9jvecdkjrUMAAAAAvsoACwAWyNT0rpVJzm/dAQAA82nbQ6venZL/2rqD0VRqfnXrplV/0roDAAAA4OsZYAHAAhl0B6aSlNYdAAAwrzaXfqLkJ5PsaZ3CiCm5c5j9/6Z1BgAAAMA3M8ACgAXSp0y1bgAAgIVw542Tj9cuP57kYOsWRsYjE7MT1+3YtOZQ6xAAAACAb2aABQALpNR+desGAABYKNtvnNyalHe17mAkHKql//E73/GaL7UOAQAAAHgxBlgAsEBKyprWDQAAsJC2bVz1GyX5v1p3sLSV5ObtGy75ZOsOAAAAgG/HAAsAFsDU9K6VNTmvdQcAACy0s09e9bNJ+ePWHSxZv7p14+QHWkcAAAAAfCcGWACwACayf3WS0roDAAAW2u3Xl2F3YNlPpub+1i0sLSX5o20PrfpXrTsAAAAAvhsDLABYAMOuc/0gAABj666bL3hqop/4/iS7W7ewZPzVgeNmfzKbS986BAAAAOC7McACgAVQ+jrVugEAAFq68x2v+VJf+3+Q5OHWLSx6962YHf7gvW+9bF/rEAAAAIDDYYAFAAuglBhgAQAw9nZsumRXX7t/lOTx1i0sTiX5XA7lH/7lT136ROsWAAAAgMNlgAUA82xqetfKmpzXugMAABaDHZsuuq8r5YeSPNm6hUWm5m8OdeXabe+c/HLrFAAAAIAjYYAFAPNs0B2YSlJadwAAwGJx14ZVf9XX8uaUPNa6hUXjM103+8a7b1z1+dYhAAAAAEfKAAsA5lmf4vpBAAD4Jjs2rfofqbk2yaOtW2juwdnB4E13bbjsb1uHAAAAABwNAywAmGel9qtbNwAAwGK0bePkp5O8KcmXWrfQSCnbZyeWX333DRc+1DoFAAAA4GgZYAHAvCtrWxcAAMBitW3j5MzsYHBFkk+3bmHB/fnyrnvz3W+/wCloAAAAwJJmgAUA82hqetfKJOe27gAAgMXs7hsufGj5YHB1kj9r3cKC+a2+7v+hT91w4dOtQwAAAACOlQEWAMyjiexfnaS07gAAgMXuUzdc+PQTB5b/cEk+2rqFedWXWn5p28bJt+3YtOZQ6xgAAACAuWCABQDzaNh1a1o3AADAUvG5my94buvGybemZFMS45zR83Sp5Ue3blr171qHAAAAAMwlAywAmEelr1OtGwAAYKnZtmFySyl5S5KvtG5hznxmUPort25a9YetQwAAAADmmgEWAMynktWtEwAAYCnaumHyv/c1VyTljtYtHKv6u8sHgzV/teGSB1qXAAAAAMwHAywAmCdT07tWJjm/dQcAACxVOzZNfuHEh77yxlLzy0mGrXs4YvuT8rPbNl78E5+64cKnW8cAAAAAzBcDLACYJ4PuwFSS0roDAACWsk9uftPs1k2Tm2vpr03yt617OGwztStXbNu46tdahwAAAADMNwMsAJgnfcpU6wYAABgV2zdc8sm+HndxarYkqa17+LYOJeXdTxxYPrX9xlX3t44BAAAAWAgTrQMAYFSVvk45/woAAObOjk3nPZlk09oP7PyddPWDSS5o3cQ3+HRfyw07Nq36H61DAAAAABaSE7AAYL6UrG6dAAAAo2jbTav+27OHsjq1vjfJbOse8lRJfv7VJ69aY3wFAAAAjCMDLACYB1PTu1YmOb91BwAAjKqZd04+s23Txe8q6SaT/GnrnjFVS/LRHMprtm6cfM/t15dh6yAAAACAFlxBCADzYCL7V/cpLiAEAIB5tnXjRZ9J8oNXbNn5T2utv5qSc1s3jYOS3DWs+Zkdmybvat0CAAAA0JoTsABgHgy7bk3rBgAAGCdbN676gz77L0zJpiRfat0zwnaWmuu3blj1euMrAAAAgOcZYAHAPCi1X926AQAAxs2OTWsObdswuWXimZMuKMnPJ3m0ddMI+Wyp+cltD626ZOumydtTSm0dBAAAALBYGGABwLwoa1sXAADAuLrz587av3Xj5HueOLD8rFLKv0jymdZNS9inSyn/4sSHHlm1ddPkf8rm0rcOAgAAAFhsJloHAMCoee2H7z45h3Ju6w4AABh3n7v5gueSfOS62+rv7HnygR9Lrb+QZKp11xJQk3y8lPzK1g2Tf9E6BgAAAGCxM8ACgDm2fHb56pqU1h0AAMDzbr++DJP8XpLfu/KWB6b6vt9YSv5ZTV7Sum2ReSI1t6fkfds2Ts60jgEAAABYKgywAGCO1ZrVrRsAAIAXd9eGi3Yk2XTl+z77Cznu4D+rKf88qa/P+P4QxaGS/Hlqfmvfy/JHM9dPHmwdBAAAALDUGGABwFyrWTO2L90AAMAScdfNFzyV5ANJPnDlLfe8qq/LfjSp1yV5Q0Z/jNUnuTMpty8bHvrPd7zjskdaBwEAAAAsZQZYADDXihOwAABgKblrw2V/m+TXkvzaFbc8eE6t/Q/U1B8syZuSnNA4b26UPFZr+XiSPx1OLPuvd7/9gkdbJwEAAACMilH/aT4AWFCv/fDdJy87tPzx+BrLElaS9umssQAAIABJREFU6a0bJ29q3QEA0No1H9593LOH9r2xlnJNqVlfkzVJjmvddZieSskd6esdpQ7+37NffuHW268vw9ZRAAAAAKPICVgAMIdWHFx2eV+MrwAAYBR88m3nHEjyZy+85fz3fXbFySc8tya1e0NJfW1qLklyYZJlLTuTPJtkpib3ptS7Sy2fevXJq+77+sHV1oZxAAAAAKPOAAsA5lBfylTrBgAAYH587uYLnkvyqRfekiSTt80sP/HxelE/yKqknFNSz0ktr05yTpIzM3cnZu2ryRe6ZHetZXdK3ZPS/02pE/efffKFu775dKttc/RJAQAAAPjuDLAAYE7VKbcPAgDA+Ji5fvJgknteePsWl37knhOX7Z84JSmnDkr/itRyUpKkKyfV1EFqmai1DkuXmpqDpWZfkpTUv0tXH+tmlz+24rjlj71wGteLcroVAAAAQFsGWAAwp8ra1gUAAMDice9bL9uXZF+SL7RuAQAAAGB+dK0DAGBUTE3vWpnk3NYdAAAAAAAAACwcAywAmCOD7sBU3D8IAAAAAAAAMFYMsABgjvQpU60bAAAAAAAAAFhYBlgAMEdKXw2wAAAAAAAAAMaMARYAzJWSNa0TAAAAAAAAAFhYBlgAMAempnetTHJu6w4AAAAAAAAAFpYBFgDMgUF3YCpJad0BAAAAAAAAwMIywAKAOdCnTLVuAAAAAAAAAGDhGWABwBwofTXAAgAAAAAAABhDBlgAMBdK1rROAAAAAAAAAGDhGWABwDGamt61Msm5rTsAAAAAAAAAWHgGWABwjAbdgakkpXUHAAAAAAAAAAvPAAsAjlGfMtW6AQAAAAAAAIA2DLAA4BiVvhpgAQAAAAAAAIwpAywAOFYla1onAAAAAAAAANCGARYAHIOp6V0rk5zbugMAAAAAAACANgywAOAYDLoDU0lK6w4AAAAAAAAA2jDAAoBj0KdMtW4AAAAAAAAAoB0DLAA4BqWvBlgAAAAAAAAAY8wACwCORcma1gkAAAAAAAAAtGOABQBHaWp618ok57buAAAAAAAAAKAdAywAOEqD7sBUktK6AwAAAAAAAIB2DLAA4Cj1KVOtGwAAAAAAAABoywALAI5S6asBFgAAAAAAAMCYM8ACgKNVsqZ1AgAAAAAAAABtGWABwFGYmt61Msm5rTsAAAAAAAAAaMsACwCOwqA7MJWktO4AAAAAAAAAoC0DLAA4Cn3KVOsGAAAAAAAAANozwAKAo1D6aoAFAAAAAAAAgAEWAByVkjWtEwAAAAAAAABozwALAI7Q1PSulUnObd0BAAAAAAAAQHsGWABwhAbdgakkpXUHAAAAAAAAAO0ZYAHAEepTplo3AAAAAAAAALA4GGABwBEqfTXAAgAAAAAAACCJARYAHLmSNa0TAAAAAAAAAFgcDLAA4AhMTe9ameTc1h0AAAAAAAAALA4GWABwBAbdgakkpXUHAAAAAAAAAIuDARYAHIm+uH4QAAAAAAAAgK8xwAKAI1BLnWrdAAAAAAAAAMDiYYAFAEfGAAsAAAAAAACArzHAAoDDNDW9a2WSc1t3AAAAAAAAALB4GGABwGEadAemkpTWHQAAAAAAAAAsHgZYAHC4+rKmdQIAAAAAAAAAi4sBFgAcplrqVOsGAAAAAAAAABYXAywAOHwGWAAAAAAAAAB8AwMsADgMU9O7ViY5t3UHAAAAAAAAAIuLARYAHIZBd2AqSWndAQAAAAAAAMDiYoAFAIejL2taJwAAAAAAAACw+BhgAcBhqKVOtW4AAAAAAAAAYPExwAKAw2OABQAAAAAAAMC3MMACgO9ianrXyiTntu4AAAAAAAAAYPExwAKA72LQHZhKUlp3AAAAAAAAALD4GGABwHfTlzWtEwAAAAAAAABYnCZaB8BicelH7jnxpGfK8q9+PFuWrRyuOHRYI8WJfrB3cHBYv/rxodnjh3fdfMFT89EJLLyaurp1AwDAUrH+N+592Tf8fWp2cFJXukGG/f5++fBAkszm+KdPPLB/9pnjh/XTb7t8b9NgAACWts21W//K+1YmyaFlZXk/qCcmSe0nThjUsiJJhqU+V7rZZ7/5ty57rj7T1XLoiVMH+2aunzy4sOEAMLe++fXuJNm3fOKkiW528PW/1g2XvSxJ+toPMzH8hte0VxzIE1//8emnXvLU7deX4Xw1wyhxnRJL1uRtM8uXPz04dXl/6NSa7tQ+eXlqTiopL03tT0opJ6XmpJScnJKTUstJSV2RmpckWZbywvvkxCTLv/NnO2azSZ5Osq8kB2ryZEn21+RASfbWmgNJnk3JU0k9UJJn+lr2dsnjtebxOpHHhymPn1C6xz91w4VPz3Mr8E3Wbpn5TJILWnfAQinJ9NaNkze17gBgcZma3rVyUJ+9oO8G53c159Xk9FLqq5KcluS0mqxMcvIxfIqDSfa98P6xJI/VF96XkkfT5+9S8lj6+li6+lhf85XkuS/s2LTm0DH/4QAAWDTe8Jv3vPLQYHB2Tb631HJmSV6eklNqyctTc0pKOSW1nprk5UlOmuNP/2yS55LsL8mzNXkyyROp5amkPpnUJ0vKk33qk6Urj2aYh+tE+cryQ4ceueMdlz0yxy0AjIlLP3LPiYODy07thjllUPpXpJZTUnLKC1/3Tqq1nphST6opx5XkJUme//daX5KSl5bk+Pr8r8+nr77evTfJMyl5JjXPpGRvqXm6Pv/xvpL6ZK3dU6Xky33XP9L1g0eXDcrDXuNmHBhgsbjUWqa2PHDaoA7P7LvujJR6VlJO72pOr8mpSTk1qacm+Z48/+T+ODqU5PGaPF6Sx1PzeLryeFIfTp+HS/LwMHk46R9evu/kh+78ubP2tw6Gpey1H7775GWHlj8eXzMZIwZYAGOu1nLl9M6L+i6Xl5rLaslrk1ya5/8ettgMS/K3NWV3at2d1N3pyu5a6u5hmdh999tf83BKqd/9fwMAwEK5ZvMnJp4+/ZTzSze4uOvLa2rJ2Un93iRnv/B2fOPEozWb5JHUfCWlfKmm7k6tu7vS7ampu/t63O4dm857snUkAAtkc+0uP+uvT+tmh2d1XX9m6uCslHpWreWMpJ6WlFNK6ilJTklyXOvcBXAgNY+m5OGkPJJaH03Jl5PylZq6u9Zu94HZfvfMOyefaR0KR8uLySyoqenty+rg+LMn+npeTXdeTT2vJK9KcmaSs5KcnudPpWLu7E3yUJIvp+ahlHy51ny+K/2emm73c8fN7rn3rZftax0Ji9UVt8y8udb8f607YCEZYAGMl+tuq4PPP/7gFf2gf1Nq3lCS1+f50wRGwdNJ7k3qPSnlnlry6Trcf/+OTWu+5foZAADm3tT0feeVrru41KyqKZeU1FVJLsr830qxWD2RZHeSB1Jzfyn9/SnLZrbe+Jo9fnAAYGm57rY62PPMfWfn4OD7SpcLasnZ6fOqlLwqXvc+Fo8m2Z2a3emyO8numrK7L3V3Ge7/vJPQWcwMsJhz191WB194/IFza5eL+5Lzu1rPq8l5qTk3Jd+bZKJ1I9/i0SR7UrKn9NlTS9nz/NJ4uPvAywZ/M/P/s3fnUXKWZd7Hf9dT1Z10JwQCsiUgRIGEdBISuqqaEJCAG6IoLoFXEZElhMXBhVF4FZ0gLqgzUTMCqaqEOMw4YnBm3EBc4VUQSDpg0v1UJ0YEZdzGhbAkhO6u53r/ABzQhHQ6VXXX8v2c0+dIL/f9DZ7Q3VVX3ffpXYOhA4FQsoX47yV9JnQHUEsMYAFA88teGx+gdr1eib1a5idp964ObDRll35m8nXuWp2KUj968Z7Tfnrz6VYOHQYAANDIjrtu/cSnolSPp9Rjrh5JPWqewf5qe1zSgEt9kbTO5fckvu2nPMkMAOHNWbFhUioZOsLcDje3w2U6IpGOMOmlat2B4lCG5NooKTZZn6S4rHLf2t/OeFCLLQkdBzCAhVFbsMpTDzxWmpIu24wk8ukmdcn17KtXxoTuQ8UM6+kp4w0mbZDsZ2X5hqStfeP95x7+h9BxQLVl8/FNMp0RugOoJQawAKA59RTXHVROUgsisze5dKykKHRTHXnMpDvl9v8s0o86fv373jsWnzgcOgoAAKCe9SwrHV42P8kimyv3HklTxfNOlfSkSWvddK+7391Wbrvn7oum/jp0FAA0q65r4/GdbcksKTVb0myZ5sh9qqQ9Qrdhp7bKrKTE+yTFkZI+H0qvXf2uI/8UOgythR+EMSJdq+L28Y9GMxMl3XLLSH60pC61xn202LE/y7TRXAOJe7+5rU8svW7toql/DB0GVEq2EP9M0uGhO4BaYgALAJrHvBUb9hgaHn6Tm71D0nwxdDVSW+T6oUX29aFU2zd48QkAAIB07PXr9htMp14ut5dH0itcOiR0U8txPSzp+272XffU93ksHgBG59jr1+03nErNkTTb3ebo6YGrw8XjJs3mZy6/xzy6R+Z3H7rX9D5OQEc1MYCFv9Gd722TOmdGlnSbrNvNuuU+SxyhiJH7raT1Ll9nsvWRJX3DyVMDHJeMRjN75f17tQ21/1l8v0SLYQALABpfT7Fvlnt0saQzXRofuqfBlSX9xKSvebr8tTXnzvpF6CAAAIBamL/49vSWSfvPl/nJcr1C0izxOFk9SWR2nyX+Xbfou4lv+QmPwQPA3+paFbd3bk4ybql55n6cpIykSaG7UHsmPeGyXsnvdume9vLwPT+56Kj/Cd2F5sEPynj6FdHl4WPdonlyHS95TlJn6C40nUG5Ypn1mmu1PFnT+bs/xFzrgXqWK8YnuesHoTuAWmMACwAalLvliv2vlaLLXToudE6zMuleuS1vS0dfueu8aY+H7gEAAKikWTeuG9e+LXVyJHuDS6+TNDF0E0bscZO+49LNiT/5rbWLMltDBwFACMddt37iYCp9rJvP09OPj2TFrU7YEddGM33PE//u1rLdHl/S9UToJDQuBrBaUHe+dGBKfpxHOk6u4yQdJSkVugstaauk+yX1SlpjitasXjhtk8w8cBcgScoUS+8390+H7gBqjQEsAGgw7pYrDpzm7h+WaU7onFZh0hOJ9JUoiVasvvDIu0P3AAAAjFZ3fuOLomj4VLlOk/RKSR2hm7Dbtsp0i0urPHnyVoaxADSz7nzpQDO9IpLPc9c8maaLqwQxOkMy3S2373nk350yYfparizErmAAqwV053s7zTpOMOnVevptWugm4AX8WbKfyP2uRLpzj/bO3jvOmbItdFQzm7/ywbFb/HGOWt0OG04tcekNoTuAWnPZly09fGXoDvyvZGjwd/X8YOm8FRv2GLTBfUN3oEk9mdq65pKu34XOqEuLPcpOHlgg9w9Jmhk6p6WZ7nbX1b0XdH07dMpozVmxYVLaBnlFMFpOMjTmsbWLpv4xdEcj6ymuOyhJWXvoDjS/ev+9qNHMXfJwx/Aej7/e3c965rmDdOgmVM0Wub5lsps6f/v7b3ErBYBG153vbYts3LGy5GS5TtbTh40w94Bq+LNMP5D795T229acO/Ph0EGob/yHqBm5Wy4fz0pS0atM/upnTrkaEzoLGKWnJFtr7nclpjvd0z/hgdHK6s7Hx0WmH4fuAADsWOLRrLWLjuwL3bEjmUJ8rkkrQnegaT2aePowfgZ8vkyh/80m+5h4gU29WeNmi3sXTr81dMiuyhZKt0s+P3QHUHt+3ZoLZlwSuqKRZQvxejEIjJqwO7bu5a+OT+8aDF3SsNwtmx843iN/h0lvkbRn6CTU3G9ktkKpcpEnkQE0ku58/OIo0rMDVy+XNCF0E1qOS7pXrq+mkug/7rnoyIdCB6H+8IqGJtGd7+2MojEnS6nXa3np1R7ZAebc4oamMEbyY910rEnvNxv2bD6OFemHLv1wOD34/356zpzNoSMBAKiiLS+ZOK20NnQFEM6ekQ1fKek9oUPqQXd+/bTIUkv19NUwqD9Zc79W0pTQIQAANB+f3/mIlkk6N3RJo8kVN0xxHz5XxdLbFelQXpnf0ibJ/cMajj6Yzce3emTLen995G1abEnoMAB4rgWrPPXLR0snJK7XmnSypOniqW+EZZKOkemYcir5TLYQ95rbV71t+Ktrzp31i9BxqA8MYDWw465bP3GwLX1q4v5Gk14tV4f4zoPmZzLNkGuGSZe2DbWXs4X4PpffHkk/3Da2fOf6dxy1JXQkAAAVdB/3zAO6qDvf989rF818IHRIKF3XxuM72vzDJnuPJK55AgAArcl0Tq7Qv3H1BTM+FTql7i32KDN54GS5X+xefo1kUegk1JWUTKea+6nZSaWHvBgXxw6Vr7/z4lmPhA4D0LqeM3S14KHNpTdJ2o+hYdQpk5R186yGU5/KFuL7JH01Suyr9144fVPoOITDAFaDmbNiw6T0cPIGmb/pKekEubfxjQctLiUpa7KsSx8Ysy09mCnEd0Xy7yjRbasXda2XGZOJAICGZbLe0A1AHWiPLPqEpDNCh4SQKfa/1VyfkWxy6BYAAIDQXPaJTKH/570XzPiP0C31qDu/8UUplc91K10o51ROjMih5vr4U+nUFdlifG3b8PBnf3LRUf8TOgpAa2DoCk3iaElHJ5F/IluI18i0PHqy/aZ7Lz38sdBhqC0GsBrAcdetn7gtlTrdTGepXJ4rE69UAXas3aQTXXaiIl2TLZZ+q3x8myL7Ttr8e3ef3/Xn0IEAAOyKxJI1oRuAOrGgOx8vWbuo697QIbXSU+zb3z26wV2nhG4BAACoI5HJbswt6/vl6gtn8oKVZ/QUB7rdk3e7hhe4NDZ0DxrSHnJdMZRKX5otxMV0Of2Zuy+a+uvQUQCaD0NXaHJZubLJ2MEl2Xy8SpYsX3PBzJ+EjkJtMIBVp7rzvW1mHa+JpLOekk41aUzoJqBBHSjTOXI/Z9hVzhbie0z+zcj8G/csnDkQOg4AgJ1JzBjAAp5mkekzkl4WOqQWMsXSKYn7DZL2D90CAABQhzo9ir6RvaGvZ825Mx8OHRNSdln8ckW6PPHklaFb0DQ6Jb17ODV8Ya4Qf1GW+tTqhdMeDB0FoPFlVmyYGg2Xz3toc+kdkvZn6ApNbpxM50jROdlCXHL35a62f127aOofQ4ehehjAqjPZQn/WZWeZ9FZJL+LeNKCiUpLmuWxe2e2abCHeJNM3VLZvHLr3kXfdfLqVQwcCAPBXHrnvvOkP6PzQGUDdOD5TjN/Qu7Dr66FDqmXukoc7yuMf+7S7XyKJxyIBAAB27EANR9+ct2LD8XedN+3x0DE1tdijzKT4jSa7XFI2dA6a1hiXFsnL52XzpbwN2T+sfteRfwodBaCxzF3ycMfQ+MffYubnq1w+3o3HOtCSppvZEtPwJ7OF+OuSFdcsPPIHMmMcpMkwgFUHZq+8f6+2oTFnu3yRpCP5rgPUzOFyXabIL3vo0dKfsoX4m25285N7+vfj07sGQ8cBACCpl1/CgOcz1zXzF99+yx2LTxwO3VJpPcW+WcP+2L9L6grdAgAA0CCOGiwn/75glZ/WCi+u7FoVt4971M7ypPR+yaaG7kHLSMv8Em/3t2ULpasS33rd2kWZodBRAOpbthDPltv5w/bYmSbtJR7hBKSnbz07XfLTs8VSSYX+z6Wf2PPf7n7fwU+GDkNlMIAVULYQz5bsYg352yQfx+AVEJBrH0nvNPd3dm7WI9lC/HWGsQAAoZmL6weBvzVt66T9zpe0LHRIJeXy8dsS1wpJY0O3AAAANBZ/3UOPxP8o6b2hS6plwSpPPbS5dJY26x9cfihnhyCQiZJ/LlLHRbl86bLVi6bfEjoIQH3pWbppQnnM4FstsvPlnhGvKwVeyHTJCsPjH/tEttC/TEN27ZpLun4XOgq7Jwod0GoOW7ppTC4fvy1bKN0l6X7JF0oaF7oLwPNM1NPDWLd0btbvsvn4hkwhfk3Xqrg9dBgAoNUYA1jAdri0uOvaeHzojopwt2yh/2o3/ZsYvgIAABgds/dk86WLQmdUnLvl8vGChzaX+iWtlHRo4CJAMk11829lC/FtPcvi6aFzAISXWbFharYYX5eMHfyNmZbJPRO6CWggL5LsSrXpwWwxvi5X3DAldBBGjxOwamTOig2T2obLl7gNnu/SfuKcRaBRTJTpHJPO6dysR7L5+Gtuutn9ye9zzDIAoNosGuoN3QDUqf072/R+Sf8QOmR3dOd7O1PF0r+47C2hWwAAABqe+dKefN8D9y6a+d3QKZWQKZZOsWLpajcdHboF2IFXJ5HWZQvxZx7Z1n7Vzy89/KnQQQBqyN16Cv2vTCx6j8rlkyXOZwR201i5LnKVF+YK8Zct0TX3XthVCh2FXcMJWFXWne97abZQKqTL5V+46YOS9gvdBGDUnh3GujWyjt9nCvHybGHgBC12/lsKAKiG39678Kj/Dh0B1LHLuvOlA0NHjNbc6zdOjqzjRy4xfAUAAFAZ6cSiVdlC3BU6ZHd05+OeXCH+sbnfIjF8hbqXlvR/J44Z7M0t6+PEG6AFdOd723L5/rOzxVJ/YtF3JL1GDF8BlZR26awkUl82H9/UnV8/LXQQRo6hgSrpKfbNyhRK/x5ZtPGZawbHhG4CUFETTTpPSu7ITSr9IlOMP5ZZsWFq6CgAQFPh+kHghY2LTFeFjhiNzPLSjOHU8L2SukO3AAAANJk9JX3z2OvXNdwLobvzpQOzxdIXI9PdLh0XugfYJaYZHkV35/Lxxw9buonnw4Am1J3v7cwV4r+LrOPnbvZFSVxBClRXJNMZkaX6M4X+f8nesP4loYOwcwxgVVi20HdstlD6ZuLRT03+Vkmp0E0AqsulQ8z1ISuXN2QL8b2ZfPyu7vzGF4XuAgA0OHeuHwR2ys9ttBMOcsv6j7LEb5c0OXQLAABAk5oylE5/bf7KB8eGDhmJw5ZuGpMr9F8emW+U+9niFBE0rrSbPjhxzGBvT3GAF5sATWLeig175PKlD0XW8ZBLSyW9OHQT0GJSJnuHhlMbcoV4Wfba+IDQQdixdOiAZpEp9s03jxZLOkHy0DkAwsmZKWcaXpItxN92+Y2bt4351s8vPfyp0GEAgAbjxglYwM6lJLtG0qmhQ0aiO1862iP/rlz7hG4BAABoaq65Tww9eYPcz5RZ3T5gn13Wf6pFg0tcdljoFqBiTDMST+7JFONPefLkVWsXZYZCJwHYdV3XxuM72/R3g0n5MhmPYwB1oM2lRdamM7P5/k8n2vZPaxdltoaOwvNxAtZuyi3rPypbiG81j26XdELoHgB1o03S60321b06njo/dAwAoPEkluYELGBE/HWZYt/80BU7ky30ZyPz7zN8BQAAUBsmf2u2WFocumN7jrl+4NBsIb5VkX3DJYav0IzS5vpQZJ13dOdjTssBGsisG9eNyxRL7+9s0y8kfYLHMYD64tJ4mX00so6fZYvxOVrszPzUEf7PGKXsDX0HZ/Nx3iNbK+k1oXsAAADQRFy/WLto6h9DZwCNwjz6bD0/2PD09Rt2m6SJoVsAAABazIczhdJZoSP+YrFH2WJ8QZJK+sTzCmgJfmxkWp8p9L85dAmAFzZ/8e3pbDG+YMy29CZz/7SkfUM3AXhBk+W6ITuptCa3bGBu6Bg8rW4foK5X3fmNL8rm+z+r4WiTTBdISoVuAgAAQJMxcfoVsGtmZybHZ4SO2J7csv6jEk9+KGnv0C0AAAAtyExezCzvnxc6pKfYNys7qXSPXHmXxofuAWpoT5PdnC3En6jnF84ArSxXKL1xy4H79cuVl3Rg6B4Au+Roj5I7M4V4+ZwbNjE4GRg/6IzQ3CUPd2QLpSsjG35AZu+RNCZ0EwAAAJrWmtABQKMxt48ftnRTXf2elr2h72CP7BZJE0K3AAAAtLAxlth/ZW9Y/5IQm89f+eDYXD7+eOJRr6RsiAagDpik/5ubVPpmd/6BPUPHAHhabtnA3GyhdJfL/1OmqaF7AIxaZNJ56eHBjblCfKHcLXRQq2IAawRy+dJrh8c91i/51eKBcwAAAFSZW8IJWMCum7L32MFLQkc8qzv/wJ4ajm6RNDl0CwAAALSvD6e+NXvl/XvVctPufNyzZWjrOjd9UFJbLfcG6pFLp0Tadm93fv200C1AK5t7/cbJ2Xz8rx4ld0l+bOgeABUz0aXrc8XSj44p9h0ZOqYVMYD1Auas2DApV4hvdPNvyRTk1TEAAABoOcmYqG1t6AigEbl0Ze4LA/uE7ujO97ZFtu1mSTNDtwAAAOBpJh3ZNtT+ta5VcXu191qwylO5Qv/lkenHko6o9n5AQzFNjSx1d0++/8TQKUCr6VoVt2cLpXcPp4YHZHq7nj6dDkCTcem4skfrsoXSNfV2Y0CzYwBrO7rzvW25fOkD6XL5Zy6dFboHAAAALWXDXedNezx0BNCgJnp7ckXQAnczG7tc0iuDdgAAAGB7Tuh8RP9czQ1yxQ1THto88COXXSNOvQJ2ZK/E7LZsIT4zdAjQKnL50ms7H9GA5J+TtEfoHgBV1yb55RPHDPZmlsdzQse0Cgaw/kp2WellkXXc7+afkjQudA8AAABai8u5fhDYPe865vqBQ0Ntni2WrjDZO0LtDwAAgJ0wXZArxO+rxtK5Yukd7uWfcp0TMCLtkv41ly99KHQI0MzmXr9xcq4Q38yNT0CLMs2wRPdmC6Ur5y++PR06p9kxgPWMnqWbJuQK8QpFfoekrtA9AAAAaFFua0InAA1ubDmVfCzExtllpZdJ+miIvQEAADByLn0mU4hfX6n1Zq+8f69sPr7J3f9F0oRKrQu0AHPzj2UL8efkzlVoQAUtWOWpbD6+dDg1XHLpLaF7AATVJvnVWyftd2dmxYapoWOaGQNYknry/Sf62MH1Lp0r7roFAABAQC4xgAXsvrf2FAe6a7nhnBs27avI/10SryQDAACof1EkfakS17H0FPtmtQ+1r5HpjEqEAS3q3dli6YYFqzwVOgRoBpnlpRkPbS7dLdPnxWAwgGe41GPl8n25fOn80C3NqqUHsOYuebhVo9R9AAAgAElEQVQjm+//bGL2fZcOCd0DAACAlje0R3vnutARQBOIEk8+XbPdFnuULg/eKGlyzfYEAADAbnFpvCX6xpwVGyaNdo1MoXRW4tHdLh1WyTagRb3zoUcGVnWtittDhwCNav7i29O5fOlDlnivpGzoHgB1qdPNi9lC/JXu/AN7ho5pNi07gNVT7Js1NP7xe2T2HrXwvwcAAADUlfV3nDNlW+gIoEmclCmWTqnFRpnJpSvkOrkWewEAAKCiDkoPl78168Z143bli+Yvvj2dLZSuMfmNkjqr1Aa0HvM3dW7W1w5bumlM6BSg0WSWl2Zsmbz/3W7+MUn8HQKwM6dHtm19Znn/vNAhzaTlBo/mL749nSnG/5B41GvyWaF7AAAAgGeZ1Bu6AWgmlvinqn2FRWZ5/zxzXVXNPQAAAFBFpjnt29L/psU+oudLsjf0Hbxl0n4/lvzyaqcBLeo1e48d/AonYQEjtNijbD6+whJfK/dM6BwADeXFltjt2Xx8aeiQZtFSA1hzlpcO2TJpv7vMtVhSW+geAAAA4HncGMACKsk045ePDryzWsvPX/ngWCvbCknpau0BAACA6jPptNyBpWt29nnd+fg4DUdrJR1TgyygZbn0ho7N+kp3vpfn8oAXkL2h7+DspNIPZfqkJIYWAYxGm0yfzxbif+vO93Ky625qmQGsnnz/ienEV0vKhW4BAAAAtsei8urQDUCzcfeP7uqVMiO1ZWjrR2SaWo21AQAAUFtuen+uEF+4o4/n8vGCyPRdSfvWMAtoWSadFqnzpmqfagw0qkyh/80ajn4q6YTQLQCawpmRdaw9pth3ZOiQRtb8A1juli2UrkzMvi9pv9A5AAAAwA5s7fj1H0uhI4AmNGnMtrb3VnrR3LL+oyT9faXXBQAAQDguLc0V45Oe/063bCH+iJu+IqkjTBnQoszf9NDmeGnoDKCedOd7O7OFeKXJvipp79A9AJrKtLJHP+nJ970qdEijauoBrJ6lmyZki6X/kPxqNfmfFQAAAA3v/jsWnzgcOgJoRia/PHttfECl1luwylOeipaLq+0BAACaTZu7/itbiLskqWtV3J4pxl+UdJUkC1oGtCy7OFuIrwpdAdSDzIoNUyPruEfSO0O3AGhaeyUW3Zor9F8eOqQRNe1QUm5Z/1HJ2MH7JL0xdAsAAAAwAr2hA4Bm5dJ4tfmHK7XeQ5tL75V7plLrAQAAoK5MMOlrucLAEZ2P6nsme0foIAD6SLZQujh0BBBSthi/PSqXeyXNDN0CoOmlXHZNttB/7fzFt6dDxzSSphzAyhbjt3tkP5H00tAtAAAAwAitCR0ANDdbmFmxYerurjL3+o2T9fQJCAAAAGhSLh3mSkpyvSx0C4Bn+dJMsXRK6Aqg1uavfHBstlAqyPWvLo0P3QOgldjFWybtd2vP0k0TQpc0iqYbwMoV+i+X60ZJnaFbAAAAgJGKElsdugFocm1WLn9ydxcpp4Y/Kn7fBAAAaAWp0AEAnicVuX8lW4hnhw4BamXOig2Ttg5tvUPyhaFbALSsVyZjBu/qKa47KHRII2iaAaz5i29PZwrxcpddI+5iBwAAQGPZfO+iI38eOgJoAW/szsfHjfaLs4W4y6WzKxkEAAAAABiZZ07/+eYzJxMDTS1b6Ds2XS73utQTugVAizPNSDz94+78+mmhU+pdUwxgdV0bj98yab9vmHRe6BYAAABgl5nWysxDZwCtIDJ9Ru6jfNGOXSNOQgAAAACAkA4aTg3/5/yVD44NHQJUSy5fOl+KfijpwNAtAPCMQ6ModWdu2cDc0CH1rOEHsHqKfft3ttvtkl4TugUAAAAYpTWhA4AWckxmeenNu/pF2cLACZK/rhpBAAAAAIBdktsyuPW60BFApS1Y5alsMf68mxcljQndAwDP49rHo+R72ULpFaFT6lVDD2B15/temnj0Y7lnQrcAAAAAo5cwgAXUkCX6VNequH3EX+BusuSTVUwCAAAAAOwK0zmZfPyu0BlApcy6cd24hzaX/lOuS0O3AMALGCf5LblC6Y2hQ+pRww5g9RRLx0RRdK+kw0O3AAAAALsjSaLe0A1ASzG9ZNxmLRrpp+cKA6fIxfHaAAAAAFBHzLQkV4yPD90B7K45KzZMGrMt/SNJrw/dAgAj0O7yr2SLpTNCh9SbhhzAyi0bmJu4f0eufUK3AAAAALvp92sXdf0qdATQalz6SHf+gT1H9Lnm7692DwAAAABgl7W568tzbti0b+gQYLR6in2z0sPleyQdHboFAHZBm9y/lMv3nx06pJ403ABWT3Gg26PkFkkTQrcAAAAAu8+4fhAI40WRbbt8Z5+UW9aXkXRCDXoAAAAAALtucro8eKMWe8M95wl05+OeRNEPZTo4dAsAjELKzW7IFEpnhQ6pFw31w0h3vnR04sn3JE0M3QIAAABUhjOABYTz3u58/OIX+gRPRR+oVQwAAAAAYBRcJ+cmxZxcjIaSK/S9LjLdzo1PABpcZPKV2UJ8ZuiQetAwA1jZQn82Mv+BGL4CAABAE3Gz3tANQAsbG5mu2tEHszesf4lcb6plEAAAAABg17nsY9lC37GhO4CRyBRKZ7mi/5LUEboFACogJemLuXy8IHRIaA0xgNVTHOiW7LuS9grdAgAAAFRS+/AQA1hAWO/ILes/ansfsOHUe/X0AwgAAAAAgPqWlqIbu66Nx4cOAV5ItlB6t8n/RVI6dAsAVFDaTV/KLus/NXRISHU/gPWcawcZvgIAAEBTMemXP7noqP8J3QG0uMgj+9Rfv3PWjevGSXpn7XMAAAAAAKP00s52/2zoCGBHsvn4Csk/J8lCtwBAFbQpsq9kl5VeFjoklLoewOrOr58WRf5dce0gAAAAmtOa0AEAJEmvzhRLr3zuO8Y+1fZml3jlNAAAAAA0ErfzW/30DdSnbL7/wzJ9MnQHAFRZhyL/RrYQzw4dEkLdDmDNvX7j5JSlbpNrn9AtAAAAQHU41w8CdcLcP63F/pffkd397JA9AAAAAIBRimz5nBs27Rs6A3hWttB/tcw+GroDAGpkT5m+3Z3ve2nokFqrywGs2Svv32s4Nfxtlw4J3QIAAABUjRknYAH1Y3Zu8sDbJak7H79Y0vywOQAAAACAUdovNTz0+dARgCRlCv2fkuzK0B0AUFOuAyKLvtNqA9F1N4DVtSpubxtu/7qkmaFbAAAAgCpKysnYtaEjAPwvT/xjc5c83JGSnaU6/H0ZAAAAADAyJn9rrtD3utAdaG3ZQnyVyT4QugMAAnlpujz49blLHu4IHVIrdfeAcudm+4JcLwvdAQAAAFTZz9YueumjoSMAPIfp4OFxj73b5WeFTgEAAAAA7B5XlJ+98v69QnegNWWKpfdI+kjoDgAIyjW3PP6xG7XY6242qRrq6g+ZK/RfLvnC0B0AAABA1bl6QycA2A7TVTJNDZ0BAAAAANhtk9qG2z8ROgKtJ5OP32Xunw3dAQD1wKW35A4sXRO6oxbqZgArVyi90WX8EAQAAIBWsSZ0AIDtag8dAAAAAACoENeinmLpmNAZaB2ZQnyumZaG7gCAeuKm9+eKpfNCd1RbXQxgZVZsmOryL6pOegAAAIBqiyJbHboBAAAAAACgyUVJ4tctWOWp0CFoftll/aealJdkoVsAoN64+/W5Ynx86I5qCj7wNG/Fhj1ULv+XpAmhWwAAAIAaGYoe32Nd6AgAAAAAAICmZ5rz4KPxhaEz0Ny683GPIvuypHToFgCoU20ureoprjsodEi1hB3AcrfBcnmlSUcG7QAAAABqydV/9/sOfjJ0BgAAAAAAQCswt09050sHhu5Ac+pZFk+PTLdKGhe6BQDqmuuAxNNfn7vk4Y7QKdUQdAArWyhdLunNIRsAAACAmjPrDZ0AAAAAAADQQiZE8o+HjkDz6SmuOygx3SZp79AtANAgjh4a/9g/h46ohmADWLllA3NlujrU/gAAAEAw5gxgAQAAAAAA1JLp7MzyeE7oDDSPeSs27FH2tltkOjh0CwA0EpPOy+X7zw7dUWlBBrBmr7x/L4+SL4k7cAEAANCKXKtDJwAAAAAAALSYyBJbEjoCTWKxR4Pl8r+ZfFboFABoRG62LLes/6jQHZUUZAArPTTmOklTQuwNAAAABLYt8Sfj0BEAAAAAAACtx+dnl/WfGroCjS83aeAfJb0+dAcANLCxHtmqeSs27BE6pFJqPoCVKcTnmvyttd4XAAAAqBM/XbsoMxQ6AgAAAAAAoCVF9unufG9b6Aw0rmwxvsDl7w3dAQBN4IjBcvn60BGVUtMBrDnLS4eY9Nla7gkAAADUE5fWhG4AAAAAAABoYdMi61wYOgKNqSfff6JcXwjdAQBN5Mxcvv/s0BGVULsBrMUepRJfKWlCzfYEAAAA6oyZVoduAAAAAAAAaG1+ZXe+tzN0BRpLdz5+cWL2FUmcoAYAlWT2hZ5lpcNDZ+yumg1gZSYPXGrSibXaDwAAAKhHHqU4AQsAAAAAACCsAy3qvCR0BBrH/JUPjo1MX5W0b+gWAGg2Lo1PIv9So18RXJMBrOwN619i7h+vxV4AAABAHXus9+Gpm0JHAAAAAAAAtDqTX96zdBM392BEtgxuvU5SNnQHADSxbGQdV4aO2B01GcDy4fT1kjjGEwAAAC3NpbVabEnoDgAAAAAAgJbn2sfHDL4vdAbqXzZfukimc0J3AEAL+GBu2cDc0BGjVfUBrGwxfrvJX1XtfQAAAIB6F7l6QzcAAAAAAADgaW5679zl8d6hO1C/MsvjnMw/F7oDAFpE2qPkhvkrHxwbOmQ0qjqANXd5vLdc/1TNPQAAAIBGkURaHboBAAAAAAAAfzGhXNaloSNQn7rzD+xpiW6S1B66BQBayLQnhrZcFTpiNKo6gDWc2DWS9qvmHgAAAECjSA9HnIAFAAAAAABQR9z0d/NWbNgjdAfqTxRtK0qaEroDAFqNyS7rzsc9oTt2VdUGsDLL4zmSn1ut9QEAAIAG84d7LjryodARAAAAAAAAeJ69h8rDF4eOQH3JFeIL5VoQugMAWlQqMn2x0a4irM4AlrtZon+WlKrK+gAAAEDj4fQrAAAAAACAOuSy93XneztDd6A+9BT7Zrm0JHQHALS4aVuGtnwodMSuqMoAVnZ56UxJ86qxNgAAANCg1oQOAAAAAAAAwHbtF6nj/NARCG/+ygfHJh59WVJH6BYAgH3gmGLfkaErRqriA1hzlzzcIdc1lV4XAAAAaGiJcwIWAAAAAABAvTK9Z8Eq53afFrdlcMsnJU0P3QEAkCS1lz26Xu4WOmQkKj6ANTz+sfdImlzpdQEAAICGVjZOwAIAAAAAAKhfU375SOlNoSMQTq4YnySzS0N3AACe54Ts8tI7Q0eMREUHsI67bv1ESX9fyTUBAACAhud6eM0lXb8LnQEAAAAAAIAdc9P7QzcgjO78A3u6a6WqcIAJAGA3uf5xzg2b9g2dsTMV/QbyVDr1QUl7V3JNAAAAoPFx+hUAAAAAAEADyGYLfceGjkDtRbbtWkkvDt0BANiuvdPDQx8PHbEzFRvA6imuO0jSuyq1HgAAANA0zHtDJwAAAAAAAGAkoveFLkBt5fKl0ySdGboDAPBC/LzufOno0BUvpGIDWEnSdoWksZVaDwAAAGgenIAFAAAAAADQIE7rzsechNQiZq+8fy83vzZ0BwBgp6KU+eflbqFDdqQiA1jd+dKBMj+3EmsBAAAATcaH2p7iBCwAAAAAAIDGkEpJi0JHoDbahts+I2lS6A4AwM65dFxmefx/QnfsSEUGsCLpQ5I6KrEWAAAA0GQ2/fScOZtDRwAAAAAAAGBk3LTwsKWbxoTuQHVlin3z5XZe6A4AwMiZ22dm3bhuXOiO7dntAay512+cLHO+MQEAAADbY+L0KwAAAAAAgMay795jBt8cOgLV053v7Yw8Kkqq26usAADbNXnMtvRloSO2Z7cHsIbTw++VNLYCLQAAAEDTcdma0A0AAAAAAADYNW66OHQDqieyzo+4dFjoDgDArjPp/T3Fvv1Dd/y13RrA6s4/sKdcCysVAwAAADQbT5wTsAAAAAAAABrPvJ5i36zQEai8nmXxdMnfF7oDADA6Lo1P3D4SuuOv7dYAVsqevFDShAq1AAAAAM2mPNQxfH/oCAAAAAAAAOy6skfnh25A5SWR/llSW+gOAMDusAuOKfYdGbriuUY9gNWd721z2bsqGQMAAAA0E5fF699x1JbQHQAAAAAAANh1Jp05f+WDY0N3oHKyhfhMSSeF7gAA7LZ02aOrQ0c816gHsFJR51slHVTBFgAAAKCpROL6QQAAAAAAgAa29xNDT54WOgKV0Z1/YE+Z/jF0BwCgYt6UWR7nQkc8a/RXELpfXMEOAAAAoBmtCR0AAAAAAACA0TP5uaEbUBlRtO2jch0QugMAUDFmrqtCRzxrVANYmeXxHJd6Kh0DAAAANJOy2+rQDQAAAAAAANgtL5+zvHRI6Ajsnu78+mlyXRS6AwBQYa6Tc8X4+NAZ0igHsKysv6t0CAAAANBknto20ftDRwAAAAAAAGC3ROnEzw4dgd2TstQ/SWoL3QEAqDx3fSR0gzSKAazjrls/UaYzqhEDAAAANAuTfhqf3jUYugMAAAAAAAC7x6Sz5G6hOzA6uWJ8kkunhO4AAFTNK7KFgRNCR+zyANZTqdRZkjqr0AIAAAA0DXfrDd0AAAAAAACA3efSYZkVpWzoDuy6Bas85a7Phe4AAFSXK/mH0A27fgWh6ZwqdAAAAABNxZSsCd0AAAAAAACAyrBEbwvdgF33y82lhZJmhu4AAFSXSSdmlvfPC9mwSwNY2UI8W9LsKrUAAAAATcONE7AAAAAAAACahumMBas8FToDI9d1bTzepcWhOwAAtWFluzzk/rt6AtY7qxEBAAAANBOTnjh0r+kbQncAAAAAAACgQlwH/OqR/peHzsDIdab9vZL2D90BAKgR0+u68wPBTj0c8QBW16q4XeJoTQAAAGBn3HTfzadbOXQHAAAAAAAAKqdsdmboBoxM7gsD+8jsstAdAICasihKrgi1+YgHsDr/7K+WtG8VWwAAAIDm4FodOgEAAAAAAACVZbLT5q98cGzoDuyctydXSNozdAcAoMZcZxy9PD4sxNYjv4LQ7PQqdgAAAADNw6w3dAIAAAAAAAAqbsLWwSe5hrDOzb1+42RJl4TuAAAEkUol/t4QG49oAGv+ygfHyvT6ascAAAAAzcAUcQIWAAAAAABAE3L5m0M34IUNR8MfkdQRugMAEIq9M/eFgX1qveuIBrC2DD9xiqQJVW4BAAAAGp/pT6vPn/pQ6AwAAAAAAABUgekN3fnettAZ2L5jrh84VKZzQncAAILqVHv5/FpvOrIrCD06o8odAAAAQHNw9crMQ2cAAAAAAACgKvZOa8yJoSOwfUkquUISA3IA0OLc7ZJaD0zvdADrsKWbxkh6TQ1aAAAAgMZnxvWDAAAAAAAATSxRxDWEdainuO4gl94ZugMAUAdMB5t11vT79U4HsPYaO3iSpD1q0AIAAAA0PJevDd0AAAAAAACAKjKdpsU+spuGUDNlT39A0pjQHQCA+mDy99Zyv5H8YPD6qlcAAAAATaIcpdaEbgAAAAAAAEBV7Zc7YENP6Aj8r55i3/4mnR+6AwBQV3KZ5XGuVpulX/Cj7mbF0qk1agEAAAAa3a/vP2/ab0JHAAAAAAAAoLo8Sk6VdHfoDjwtUfR+SR2hO4A69JSkX0r6raQhkzYnsiFzf1zSnjJ1uLSHuQ6R6RBJqaC1QIVZWRdKWl2LvV5wAKtn+YajE2lyLUIAAACARmdSb+gGAAAAAAAA1IDrVEkfDJ0Bae7yeO9yokUeOgQIy+X6mSK7x9zvSSLvK1v6wfvPnfpbmY3or0fXqri9c7MOl2meXC+XdJKkF1U3G6gy0/857rr1l9158axHqr3VCw5gJe6vqXYAAAAA0DTcuH4QAAAAAACgFZhm5IobpqxeOO3B0Cmtbsh1oUnjQ3cAATwl2ffMk69qKPWt1e868k9/8xnnjXyx+PSuQUnxM2+F+YtvTz8xeb/XWqLzZDpFnI6FxtSxLRW9U9Jnq73RC19BaP5KMSoMAAAAjIipzAAWAAAAAABAi/CkfKqkpaE7WtlhSzeNMQ3+XegOoMY2yPTZJBn7lbWLXvpotTa5Y/GJw5K+LunrmRUbplpSvlqut0iyau0JVIOZXSj3z430NLjRinb0gXkrNuwh19xqbg4AAAA0EY9SEVcQAgAAAAAAtArTqaETWt3eHUNvl+uA0B1ALZh0pyk5dc1vpnetWdhVqObw1V/rPW/axjULu073SMe4NFCrfYEKOSJbHHh5tTfZ4QDW4NDwfElt1Q4AAAAAmsQv7j6/68+hIwAAAAAAAFAzx8+6cd240BEty90S98tCZwA18N8ue+vqC7qOX33BzG9psSWhQnrP71rd9sSEbpmWStynhkaS7MKFnKOzwwEsj+yV1d4cAAAAaB7O9YMAAAAAAACtZczYJ9vmh45oVbli/2tNOjJ0B1BF7tKSp8YOT+u9YPpNoWOedff7Dn5yzcKud0s6V9JQ6B5gZOy0465bP7GaO+xwAMukk6q5MQAAANBU3Lh+EAAAAAAAoMV45K8K3dCqEkXvC90AVNEf3ex1vRd0Xbb+HUdtCR2zPWsu6Pqim71WUl32AX9l7FPp9FurucF2B7ByXxjYR9L0am4MAAAANBU3TsACAAAAAABoNYleHTqhFWULcZdJJ4buAKpkTWTDc3oXTr81dMjO9C6c/j0leoukwdAtwE6Zzqnm8tsdwErak3mSrJobAwAAAE2kvLXs94WOAAAAAAAAQI2Zps5ZXjokdEbLMV0SOgGokh+2p1Ivv3fhUf8dOmSk1lzYdZvLzpbkoVuAF+Se6c4PzKzW8tsdwIpcx1VrQwAAAKAJbYgv6XoidAQAAAAAAABqL+3OKVg11J1/YE9znRW6A6g0k74+rq3ztXedN+3x0C27qveC6TdJ9unQHcDOpMyrdgrWdgew3HR8tTYEAAAAmhDXDwIAAAAAALQq16tCJ7SSSNvOdml86A6gwn64ZS+dfsc5U7aFDhmtcb/5/ZWSfhy6A3ghLn/bglWeqsbafzOANXfJwx2Sjq7GZgAAAEBzMgawAAAAAAAAWpVpvhb7dg++QIW5m6SLQ2cAFeXqT3zsm+LTuwZDp+yOOxafOJy43m4St0Wgnu3/q0f6X16Nhf/mB4Fy5xOzJbVXYzMAAACgGXnkvaEbAAAAAAAAEIhrn9wB8czQGa0gs3zgFTJNDd0BVNAf1JacsnbRSx8NHVIJaxd1/Spx/0joDuCFJFHqbdVY928GsDzyXDU2AgAAAJrU4Oat7etCRwAAAAAAACCcJBWdGLqhFZh8YegGoILc3M5Zc+7Mh0OHVNKUiV1L5bo/dAewQ+5vfOZ2wIrazlGYnq30JgAAAEDTMlv/80sPfyp0BgAAAAAAAMKJ3OeHbmh2uS8M7CPX60N3ABXj/vnVi6bfEjqj0m4+3cqRkitCdwAvYMLQHo+9ttKL/u0AlitT6U0AAACAZuXO9YMAAAAAAACtzqWXabFv5/ALVEx7crakMaEzgArZ8MhTY5p2SOneRTO/K9kdoTuAHTFXxa8hfN4PAbNX3r+XTEdUehMAAACgia0JHQAAAAAAAIDgJnYfODA7dEQzc+m80A1AxSR6V7PfrOBRcmXoBuAFnNKdf2DPSi6Yft4/DKdnS7JKbgAAqG+Wss1K/PuhO+rU0ZL2Dh0BBPBrSQOhIxpFpOjO0A0AAAAAAAAIL2U+X9J9oTuaUW7ZwFxXMj10B1Ahq9Zc2PWD0BHV1nv+jLuyhfgeSceEbgG2Y0xk214n6UuVWvB5A1iRRzO9UisDABpC7/nT+yW9MnRHPcoW4h9IOil0B1B7duuaC6ZfELoCAAAAAAAAaCSJdLykJaE7mlKUnB86AaiQbZENXxY6ombMPif3m0JnADvwZlVwAOt5VxC6bGalFgYAAAAAAAAAAACAVmHSsXLntqEKm3XjunGSTg/dAVSCS8V7Fx7136E7amXcr3//H5Ja5s+LhnPyM99jKuJ5A1gmn1WphQEAAAAAAAAAAACghezXkx84LHREsxmzLX2aS+NDdwAVsK2tnP5U6IhaumPxicPmujF0B7ADHWOfTJ9SqcX+dwDr6WnsrkotDAAAAAAAAAAAAACtJIl8XuiGZmPS20I3AJVg0vK7L5r669AdtZakUwxgoW7509cQVsRfBrCyK/umMDkMAAAAAAAAAAAAAKNkDGBV0rHXr9vPpVeF7gAqIBmO9PnQESH0njdto0n3hu4AtsdMr5275OGOSqyVfvZ/+HBqKhcSA1X3mKTH5Bp0sydMPvRXHze59nrOP02QlJK0lyT+igIAAAAAAAAAANQxd2MAq4KGU+kz9JzntIEG9p37zu/6eeiIgFZJ6gkdAfw1l8YP7fH4iZJu3d21/vLNylyHM94BjJqb9CuXfia3n8m0Sabfmfw3VrbfPTXmqT/89Jw5m3dng3krNuyxVdojGh6cYKnUBEtsgrlPdLN93XxfS2xfRb6fXPtJ2vc5bwAAAAAAAAAAAKgBk6blvjCwz+p3Hfmn0C1N4szQAUAlmNu1oRtC8nT5axpO/VPoDmC73E9VJQewJDtC8t1dD2gV/2PSjxKz1ea2eutQsja+pOuJam5413nTHpf0uKTfjPRrulbF7Xv8KZo0FCUHWeQHW2KTZDpY0kGSJst0qFwHVKsZAAAAAAAAAACgxZja/BhJt4QOaXQ9y0qHJ3JOzEHjcz28+rdHfjt0Rkhrzp31i0yhtN7ks0K3AH/NpNfJ/WKZ7dbQ1P8OYJkfsdtVQDNz3e+Rvm7ut675TddaLbYkdNLOxKd3DUp66Jm37Zq75OGOpPOxKW42JZFPkWmKSVMkTTHpMJfG1ygXAAAAAAAAAFB5vzVpi2Vc3/4AACAASURBVEuPSpJc4yW1KVKnXGMkdUgaGzIQaD6eFQNYuy2JdEboBqASTLqpEZ5brjZT8g3JGMBCPToos6I0u1e6f3cWee59uYfvZhDQjP4g9y9Fka+894KZ60PHVMPd7zv4SUmlZ97+xpwVGyalkqEjTNERch0u6Qi5pso0RVJ7LVsBAAAAAAAAADv0mGT3mfuaJNJqRam+8dGYX95xzpRtO/vC7LXxAUlah0SmQ9zsELm/xMwycj9KUlsN2oGm4qZc6IZm4NICCx0BVEBZdlPohrqQRN9T5FeGzgC2x8r+OlViAOuwpZvGSIMvrkgV0AxMv/PEP+3all+7KLM1dE5I95837Td6+trDO577/vmLb08/ecD+U8pRMstkXTLNcNcMe3qYM729tQAAAAAAAAAAFfOY3L5v0rejqHzXPb+esXG0p2usuaTrd5J+J+ne575/7pKHO4Y7HztBKb1e0hvlOqAC3UAryIYOaHS5wsARroSTctD4XBvXLpp+X+iMerB1b7+nc7O2SBoXugX4G2anSrp6d5ZIS9KeY7YdJEVRRaKAxvakpKvTj0/43DMnQ2EH7lh84rCkTc+8/cez7+9aFbd3btZ0SV0yzZDbDMlnSDo0TCkAAAAAAAAANI0+l39b5t/25Km71i7KDFVzs2ceJ79N0m3d+d53p9RxmpveLWleNfcFmsCLcsUNU1YvnPZg6JCG5b5AHH+FZmD6z9AJ9SI+vWswW4jvlPTq0C3AdmSy18YHPPPChFFJS1Iqig5xr1wV0KB+WI606L7zu34eOqSRxad3DUr66TNvfzFvxYY9hpOkK/Fkpp45MUuumZL2CxIKAAAAAAAAAI3A1e+Rvhwp9eWQwxzPDHvdLOnmTLF0iiX+KZlmhOoB6p0ryUliAGuU3PwtoRuASkhct4ZuqCcmv91lDGChHpm32Ssl/etoF0hLkru4fhCtzCX79JrfHPnB0R7PjJ2767xpj0u655m3v5izYsOk9NBwt5l1u1m3zDMcYw0AAAAAAACgxf1Kpq9Fim6894Ij14aO+Wu9C6ff2p3v/V5KY9/nsv/P3r3HaV6Xh92/vr979owCnjgo4AEE5mYXcHcWOUTXxNgkjalplD5NH2mM7IxKHtPYk+3Tw6ZP2ydpG5PYou4sYiFtn4rmpG1OpgFTI7CzK3K4ZzFoFEFUlKOwLDtz/77PHyzGIHuY2Zn7e9+/3/v9es3LZY6fGYEd9r7muv5VRKws3QTDJ09ExEdLV4yiCz40e0Yd+bzSHbAEHnzO1++/6fCv1h45OjdFeEie4VRFPvoBrAgDWLTWkznlt+3a2v3/Soe01S1vP+u+iLgvIj759PMmrr79lDTX2ZhTvTFS2hQ5NkbEC4tFAgAAAAAsv8dTxEejrq7a+Y6zbywdczgHNmL98sT0npsi1b8ZOZ5fugmGSo7NpRNGVV3ZfkUz5Eh/eMO2182X7hgmdX58pkpr5uMvZ1VgaOSIN0TOKVJa1A3Bp/6mTvmUyI7o0jr9SPVP79q63t3dITPzs+vviYh7IuJ3nn7exu29U6uq3pTqamOd0qaU8kb/QQ8AAAAANMDnUsSOtG/lf7v53Wc8WjpmoWYmz/70xu23X1Cl6lMR8bLSPTBEzottuXJ9ZVHeVDoAlkJK+VOlG4bN7qlNeyeme7dFxKtKt8CzOGFix+y5MxGfX8wbPzWAldMpS5oEwy+nnN6xc9Lw1ajYPdX9akR8NSK++//Zqz+456X9sXxBRL4oIl0UOZ8XpqUBAAAAgOH3eOT4r1VVTd+8dfhODC7U7qn1X3r1B/f8YL+q/zRSeMwJnvKcC07c84qbI+4qHTJKNm6fPenA+UYYef0U/7t0wzBKETPZABZDKuX0hjiqAayIE5cuB0ZBumrn1PhVpSs4Oje98+yvRMRX4sAN9Q3X3rpuzROdzXWqLn5qKCsujIjjyhUCAAAAAPwV90WO/zjWiekbL+8+WDpmKd30zrO/snH7bW+oonNTRBxbugeGQV3l88MA1oJ0Iv56jnC6iSa473OXd79YOmJI9UoHwMHkKr8hIv7dYt7WABZt9JWVnervl45g6d122bmPR8T1B54ituVq00v2jKecL8o5X1xFuihHnF40EgAAAABoo89Fil/de2xc17u0u790zHLZPbXhzk3TvctSxO+EAQqIiDgvIq4rHTFKcspvLN0ASyLbfnVQKXqRS0fAQeS45ML33bPmxvec8sRC33TsLdflzlcenn3BcnTBMMoR7/qzt5/1ndIdDMC2VO+KuCOeepqOiLhgx+0n5LpzYa7yJRFxUeSYCGcLAQAAAIDl8Yc51b+0a+v6G0qHDMquye4nNk33fjVFvKd0CwyB80oHjJIL33fPmvl49PWlO2AppBR/VrphWKWoezmq0hlwMKv6z3n0woj4k4W+4dhXvjX7wlgRnWWIgmG0c9dk9/dLR1DOzVvXfzOe+umr34l46mzhqn0rLoyI10fk10fE+RF+xwcAAAAAjsofVyn985u3jt9UOqSEFY8995/1j3n0J1wkAANYCzG/9pHXR6S1pTtgSdTVrtIJw+rmreu/OTHd+1ZEvLB0CzybnOO1sZgBrGpl/aI6mzWgJer8r0snMFwOnC384wNPsfk/7Xl+vbK/JUX8YET6wYg4q2ggAAAAADAqco743ZzT/7N7avxzpWNKuvE9pzwx8aHeO6J66s9docVOmriyd+LMFd1vlA4ZCVX1xnCXjGaY76fHby0dMeRmI+K1pSPgIF4XEf9yoW9U9aNzwjLEwDC6d2aq+z9KRzDcdv7c2Q/smjznN2cmz7liZrJ79nyn8+Ic6bKI+M8R8dXCeQAAAADAEMqR/igiXrVrsvuTbR++etrMO7r/K0X8XukOKK5jC9YRyTlF5B8rnQFLIUea3T21aW/pjqGW0x2lE+AQLti4fdeCNzKOpZyPX44aGDYp4nciJWPzLMgtbz/rvoj4jQNP8aqreqdX/fihKsWP5ojXR8S6ooEAAAAAQEm3Vrn+RzdPrf+j0iHDKKX6n+Rc/UhEOMVCa+VOWh8Rf1C6Y9ht+vCebkS8uHQHLIWU8+7SDSOgVzoADmFlldZeFLGwba5VzmEAi3ZI8dulExh9n7u8+8VdU93tOye7b1q3Yu0Loo4fjcgfSBF3l24DAAAAAAbmaynnn5m5b/xVhq8O7uat629LEb9VugNKShHd0g2joKrzG0o3wFJJKWx3OpyUZksnwKHklLcs9G3GqpSPy5GWIQeGytyDT6z8s9IRNMsNb3vZvnjqp1b+ICKu2Lh9z/oq6r8eKX48Il4dEZ2igQAAAADAskg5rtk5dc41pTtGQl29L6r6zaUzoJiczymdMArqSH8thUM2NEOuw3DR4YzN/0XMW5DJ8KpyvHbhb5PSccsRA0Pmz7/47jOeLB1Bs+2eOvv2manuL81Mdi9J+6sTIsVbI8dHI1ePlm4DAAAAAChh5zvOvjFS3Fi6Awo6O7ZlUwaHcOH77lmTIv9A6Q5YKnUygHU4Lz3mnPsiYr50BxxMjtjUva63ciFvM5ZzHGf/Fc2Xby9dQLvs/LmzH4iI/3LgCQAAmmRfRDzxPX+9LiIW9IcRAAC0S87pgynyhaU7oJC1G0+642W7I75UOmRY1ese/oGIak3pDlgi39k9OX5PTJXOGG4fuzT1N0/3vpYjTivdAgex+phH0qsi4qYjfYOxFPm4cIKQxkt/XroAAABgCH0zIr4aEV+NnO/JEV+tquqByP0Hox57oF6RHszz6YF98/P7eld0HzvcO+te2Tvm+NRfERHx+Mqx545V852Y76ypcxxf5Xx86lTH5xzHp5yPz1Ucn3IcnyMdH5GPj4gTI+LFEbF6WT9jAAAGbv/qud9avW/sAznimNItUEJKVTcMYB1UP1V/zaPVNMhdkZJ7mkcgP/VnUgawGFp1nS+OhQxg5UjP8RsaTZdzfrh0AwAAQCH9yPHFSHFHRN6To+pVdb1n7ap1X7jhbS/bt5Qf6BlDWg8t5n1s/k97nl+vzidFjlOriJPqyC9JdZwcKZ0ckU+LiNMjwk9GAwCMkNsuO/fxienexyPiZ0q3QBEpzomIT5TOGFYpxxvsC6ExcvpK6YQR8tXSAXBo6aKI+JUjfe2x5A8taYEqqu+UbgAAABiIHH8RKe+MnHZFTjN7+/lzR7K9algcOOf9QETccbDXufCDX3jxfKc+PaV8eo58espxeo44PUWcbqsCAMCwSv81Iv9M6QooIUV0SzcMq4s+eOuL5pKvD82RUtxdumGEGMBiuFX5ooW8+lhErF2mFBgaOeVHSzcAAAAsk7si5U9HTjeM9cduuPGdZ36tdNByO/A5fi0iPv3Ml53/4TtP7tR1t8p5fUR0c8T6iBiPiHUDzgQA4HvUee+nq7Tm4Yg4rnQLDFyO8dIJw2r/2NhrUrb/iubIYQDriOV0T7jWyDDLceLG7be/YvfU+iM6IzwWNmABAADAKHk8cvxJjvifOeL3d091/bTg97jl7WfdFxH3RcSnvvvMbbmaOPX2l+Z+Z31EdFPEeVHHxkjx8lKdAABts3tq09zEjt7vRY6fLt0CBZwROadIJg2eKdVpiwEMmiSn/JXSDaMiRXzVP/0Mu5Q6F0XEEQ9g2YBF8yU/6QwAAIy0b0WO304p/9baFes+fcPbXravdNBI2ZbqmYi/iKeefvfpZ194Ve95db/eVKdqY+S0KaW8MUecVi4UAKDp0icisgEs2mjdxEfueMlMxD2lQ4ZPfm3pAlhKKduAdaRS1b8n56p0BhxGnoiI3ziS17QBi1bItQEsAABg5DyYI65LdXz8pc8bv+Fjl6Z+6aCmufHy7oMR8UcHniIi4vyr73phpz83kSJeHTlfnCI254hjylUCADTHWMqfms9RR4RHW2mf+c6ZYQDrrzj/6rteGPP7u6U7YCmtmu8bwDpC+cmxr8XKunQGHFKKmDjS1x2LFGvCXjcaLvnDcgAAYDTUEfGpSOkjDz2x4ne++O4znoyImCkc1Sa3/OwZ34qI3zvwFFu2XT/2nZNO2NBJ+eI60oUp50sixSllKwEARtONl3cfnJjufT4iXlW6BQp4ZUT8cemIYdKZf/I1ESmV7oAl9Mhn3rXhodIRo2Lnt896aOLk2X5EdEq3wCGc172ut7J3aXf/4V5xLLK/mWmBlP3hOAAAMMy+HBH/Ocbqj8z87Ho/ET1Ebtj2uvmI+NyBp/8YETFx9e2n5PnOlpTz6yLFloh4WcFEAIBR8ydhAIs2SvnM0gnDpoq0xZ4QmiRHsv1qIbalOqZ7D0XEC0qnwCGsPuaRan1E7D7cK46FaUJaIZ1RugAAAOAZ5nKkj1cpX7Xza+M3xLZk5/qIODAk9xsHnuL8q2ZPW9Gvt+Sqel3k/NKicQAAQy5H/EmK+AelO2DgchjAeoY60muSU000SMrZANbCfTsMYDHkcq4n4ggHsMaWPweKO710AAAAQEREingsp7i6ruNXdk+Nf7V0D0fvlsvH746Iaw48AQBwCDmv/mxK++qIqEq3wIC9snTAMLng/Xc9t4793dIdsKRS+kbphFGTIr5tDJMRMBERHzrcK1XhG1za4dSN2790bOkIAACg1b6WcvrH/bz6JTNbuz+/e6pr+AoAgNbZPfWKRyLiz0t3QAGnbfnIl1eXjhgW/TVzF4RLTTRNyg+UThhBvmYMvfzUANZhVeE3Ntqhk9K+15aOAAAA2idH7Ek5/8ze4+LlO6fG/92BB5wAAKC9Urq5dAIUUO2bf+xlpSOGRcr5wtINsNRSjm+Vbhg19VMnCGHYnX0kQ9QGsGiNlPPrSjcAAADtkSLujhRTx9x3/4adU+dc07u0u790EwAADIU6DGDRSnXdeXnphmGRI11cugGWWh3JANYCpUgGsBgFY4/195592FeKiBwRafl7oLCUfiQifqF0BgAA0Hj35hz/uo4nrt49uWmudAwAAAydVO/y0BStlLIBrIiIbblKMbu5dAYsvWyYaIFyigdSLl0Bh1fltD4ibjnk60SEn8ClLc6amL79otIRAABAYz2Yc37PuhVrz9g11d2+e8rwFQAAPJs67+tFRL90BwxazgawIiI2vWTPeEQcV7oDlloygLVgvmaMipzz+sO9ThUR/kCY9kidydIJAABA48xHTlem/dUrd02d86s3vO1l+0oHAQDAMNs9tWlvRHypdAcMXEoGsCIi1fWFpRtgOXT6HScIFyhHPFi6AY6QASz4K3K+9Pyr73ph6QwAAKAx/jhX6fyZqfGf2/lzZz9QOgYAAEZFiritdAMMXA4DWBGRI11QugGWw3fq2janBaoivlO6AY6QASx4hjVj809uKx0BAACMvhTx2Mxk94d3XT5+R+kWAAAYNTni9tINMHApXh45p9IZpaWITaUbYBns613Rfax0xKipU/iaMSpO3rj9Cy841CtUkWP/oGpgOKTJjdtvO6t0BQAAMNpyRC7dAAAAI+zO0gFQwNqN03tOLB1R0oXvu2dNRIyX7oAll8P5wUUYy7UNWIyMsZg75BYsG7Boo7Eqdd4f23JVOgQAAAAAANqoStWXSjdACVXqv6x0Q0n71z26ISJWlO6AZfBI6YBR1O/YgMXoqCMdZgArxfygYmCI/PCmF+/5+6UjAAAAAACgjZ4c22cAi1bKKZ1WuqGkFDFRugGWRRU2OS3CXJr3dWN0VPkwA1hOENJSKed/s+mq3ubSHQAAAAAA0Daff9v5D0fEQ6U7YNCqHKeWbigpRbyqdAMsi2yT02Icd/fDvm6MjJQPswErpXh8UDEwZFakOn578447W73qFQAAAAAACvmL0gEwaDlXp5RuKMwGLJrq0dIBo+iGba+bj4h9pTvgSOSIc2Jbrg728ipHPDzIIBgyJ+fc/9TElb0TS4cAAAAAAEDLOENIC+XWbsDauH3X2khxVukOWBYp2eS0eM4QMirWbTzpjoMu+KkiG8Ci9V4RY/F751991wtLhwAAAAAAQIsYwKJ9UntPEI5VazdExFjpDlgWtROEi5YNYDE6Oqmz4WAvq3JyXxsixfljc/tvuuBDs2eUTgEAAAAAgDZIOTlBSBu1dgCrjnzQB61h5KXsBOEiZdvDGCE58vqDvaxKkR4ZZAwMrRQvr6v8vy/YsWdj6RQAAAAAAGi6FLUNWLTR8Rd/+M7nlI4oIeU46IPWMOpysgFrsVLKj5dugAXoHuwFVeTsBCH8pRPqXH9mYnr250uHAAAAAABAk+3vVDZg0Ur7+/1WbsHKKWzAorEqZ/QWL8f+0gmwAK842AuqHE4QwjOsjsi/tnm6d+2Ga29dVzoGAAAAAACa6PTnnn1vhAddaaE6TimdUIQNWDSYDVhHZV/pAFiA0w/2gipVyQYseBY54q2r9o3tumDH7KtLtwAAAAAAQNN87NLUj4hvlO6AgevESaUTBm3i6ttPiYjjS3fAckm1AaxFswGL0XLs+Vff9cJne0FV1X0bsODgzqpz/sym6d6vbNy+a23pGAAAAAAAaJhvlg6AgctxYumEQcv9ju1XNFqd4snSDaMq+doxYlbsn3/WLVjVfIx9fdAxMGI6KeI9VVrz+Ynp2deXjgEAAAAAgMbINmDRSieUDhi0VOcNpRtgOVWRDREtUg4DWIyW3Klf8WzPr9b05+4ddAyMqDMi8qcmpnsfP/+q2dNKxwAAAAAAwMirsg1YtE8LN2BFFTZg0WjJGb1FSwawGDGpjmffgPWZd214KCL2DrgHRtlPjdV5z6YdvX/pLCEAAAAAABwFG7Boo9TCAawcZ5VOgOVUJxuwFis7QciIyekgA1gH/tcWLFiYNSnHtiqtuWtiR29yy7brx0oHAQAAAADAqMk52YBFG7XrBGHOKUW8snQGLKcqjRkiWqza8Boj59lPEEZE5IivDbYFGuPkyLH98ZNedMfm7b23RM6pdBAAAAAAAIyKKsIAFm3Uqg1YG6dnT8kRx5TugOXUtwFr8VLla8eoOfgAVmUDFhydFGfmFNdN7Ji9afP07T9uEAsAAAAAAI5A5QQhrXTclo98eXXpiEEZi9r5QRqvqtP+0g2jy/AaI+eF533kluOe+cynNmAlG7BgiWzOUX1yYsfsrs3bZ99kEAsAAAAAAA4hVzZg0Ur79u1rzRasOioDWDTeXGWIaLFyCl87Rs6q+dXftwXrwAnCbAMWLK1X5ZR/e2LH7C2bdvTeHNtyVToIAAAAAACGTT+vNIBFK81V9QmlGwamCgNYNF7VDxuwFqmq03zpBlioOvLpz3zeU0MhOf3FwGugHc5NOT42cfLs7Zt3zF72lutyp3QQAAAAAAAMi91Tr3gkIvaW7oBBS1W0ZgNWzgawaL41/fl9pRtGVY7cL90AC5UjP/sGrCp17hx8DrTKeM75mq88NNvbND371i3brh8rHQQAAAAAAEPi/tIBMHB1ewawUsSZpRtguT16TLYBa7GSDViMnlTHs2/A2vm1M++OiCcGXgRtk+LMFPnax09+0Z9vnu79XxuuvXVd6SQAAAAAACjMABatk1K04gRh98reMRFxcukOWG4rnpgzgLVIOduAxQhKBxnAim2pzpHuGngQtNfLcsT7V+0b+8rEdO8Xz7/6rheWDgIAAAAAgBJypIdLN8DApXZswFrX+f4TTdBA9e6pTXOlI0ZVlcIGLEbRy5/5jOrpX6SUvzDYFiAiXhAR/2Jsfv89m6d712768J1WsAIAAAAA0Cop5UdKN8DA5XYMYGUDWLTDk6UDRlkOG7AYSSdt2Xb92Pc+47sDWJENYEFBq3LEW1O/PzsxPfvJC3bMvrp0EAAAAAAADIYBLNooteIEYY6OASzawPnBo5AjGcBiFFVPnnDyX/m9/C8HsFIygAXlVRH5x+ucb5yY7n1m4kN3vDFyTqWjAAAAAABg+SQDWLRPzq3YgFVlG7BoBRuwjkKVkhOEjKS5FfMv/t6/rv7yF9WewecAh3BxVOkTm3bs+fzmHbOXda/rrSwdBAAAAAAASy7Ho6UTYOBSS04QRry8dAMMgA1YR6POBrAYSVWdDjKA9Z1jZiPC39gwZFLkDTnna9Y+HF/ePH3HP77kA7cdX7oJAAAAAACWjg1YtNLaiz9853NKRyy7HDZg0QY2YB2FnMypMJrqVJ/8vX/93QGsG99zyhMR0Rt4EXCkTs6Rfmn/WOerE9t72zd9+M4zSwcBAAAAAMDRSrl+uHQDlNDfn59fumE5bdl2/VikOLV0BwyAAayjkCP3SzfAYqR8kA1YERE5Ytdgc4CFyhHHRIrJ1O/3Jnb0rrtgx+yrSzcBAAAAAMDiVTZg0Ur9Tn1c6Ybl9J2TXnBaRIyV7oABcILwaKRkAxajKaVn34AVEZFy2j3YGuAodCLHW+qcb5yY7u3avGP2si3brvdNLAAAAAAAIyVFbQCLVsqp2QNYVa5eWroBBiHZgAXtlPPBN2BFqm3AgtG0Med8zd6TX7RnYnr2XRuuvXVd6SAAAAAAADgS8zZg0VJV3Wn0AFZUcUrpBBiEnAxgHY3Uz3XpBlikg2/AemjfqtvCejwYWTni9Ih85ap9Y1+b2NH79Qt23PqS0k0AAAAAAHBofQNYtFKu8vGlG5bZqaUDYCCyASxoqYNvwPriu894MiLuGGgOsByOjRzvrvPYlzZP967ddNXsOaWDAAAAAADg2XTmxh4u3QAl5Do3ewNWyjZg0QopYq50wyhLVc6lG2CRju1e2Tvm6b+onvnSFDEz2B5gGa3MEW9Ndb5tYkfv9yemZ19fOggAAAAAAL5Xf8Xjj5ZugBJSSs0ewMrJABZtYQDraOSOASxG1roV1XfPEH7fAFad8qcHmwMMQIocPxKRPzUx3fv8punZt27cvmtF6SgAAAAAANg9tWkuIvaW7oCBS9HsAawIA1i0Qk6xv3QDUEad5g8+gJXr6oaB1gCDdm6KfG1Vrfnq5u29bZd84Lam3xcHAAAAAGD4PV46AAYt5Wj0YzQp4tTSDTAQdTxZOmGU1VXYgMXISrl68dO//r4BrN1T41+PHF8YbBIwcDlOzCn+5ZNjnbsndvR+feLq2/0UAgAAAAAApTxROgAGLefmbsC68Kre83LEMaU7YBCSDVjQWimngw9gRUTkFNcPLgco7DmR490xX31x0/Qd11yw4/YNpYMAAAAAAGgdJwhpnwafIOzPZz/4T5vMlQ4YaTnbgMXIyikf/ARhREQKA1jQQitTpMvqXH1+Yrr3BxPTe15bOggAAAAAgJbINmDRQg0+QVhX6eTDvxY0Qx02YB2NVDtByAhLcegBrBX9+Rsi/E0OLZUi4q9F1DdMTPc+M/GhO94YOafSUQAAAAAANFhKBrBonwZvwIqIk0oHwKA4QQjtlXO84OlfP+sA1mffee79ETE7sCJgWF0cVfrExI7Zmc3Tsz8Z2/Kz/jsDAAAAAACOSsoGsGidFA0ewEpxYukEGCAnCI9CqpwgZHSliOc9/euDDlOkHL83mBxgBGzMkX9r4uTZ2zbvmL1sy7brx0oHAQAAAADQINkGLNonRxyzcfuuFaU7lkOVbcCiPVIdT5ZuGGUpG8BihOUjGMCKKj45kBhglHRzztfsPflFezbvmH1797reytJBAAAAAAA0Qd5bugDKeM6xpQuWiQ1YtEiyAeso9KuOASxGV4rnP/3Lgw5gnXbs+Gcj4tsDCQJGSo44Ped81dqH466JHb1JG7EAAAAAADgaOfK+0g1QwljuH1+6YTnkSCeXboBBqavYX7oBKGbtlo98eXXEIQawPnZp6ufIzhACh3Jq5Nj++Mkvun3zjtnLYls++FY9AAAAAAA4iCqcIKSd6qo+rnTD8shOENIaKRvAOhophw1YjLRH6iefF3GoE4QRESk5QwgcibNyztdMnDR76+btvbeUjgEAAAAAYLTknA1g0Uo5VQ0dwIoTSgfAADlBeDTqbACLkVbN5+dHHGYAa1XV+cOIeHIgRcDoS3FOTnHdxHTvxDAfogAAIABJREFUMxMfmn1N6RwAAAAAAEZDirS3dAOUUNW5cQNYG7d/6diIWFu6AwbFBqyjkzo2YDHaqhSH34D1Z28/6zuR4vrBJAENcnFU+dObpmf/cGL6jonSMQAAAAAADLecnCCkpar03NIJSy139r2wdAMMVGUAC9osRT6CE4QRETk+uuw1QCOlyG+ISDdP7Ohdd/5Vs6eV7gEAAAAAYEg5QUhL1XVeU7phqY3NVwawaJXaBqyjkpwgZNTlOPwJwoiIat/K34oIa1+BxUqR4y1jdZ6dmJ79pe6VvWNKBwEAAAAAMGRswKKtqtS4Aawc/ReUboBBSqlvAAva7cg2YN387jMejRyfXP4eoOHWRuR/vHZF3Ll5x+xlkXMqHQQAAAAAwJBINmDRVnlt6YIlV6Xnl06AQUo2YB2VfmUDFqMtpyMcwIqISKn+L8ubA7TIi3PO12zeMfunF+zYs7F0DAAAAAAA5eVsAxbtlHLzNmA9fYoJ2iPNlS4YZSmPGcBitKX6yE4QRkSsve/bfxAR9y9rENAqOeKSOtczm6d7105c2TuxdA8AAAAAACXVHrymnVJu3gBWFU4Q0io2YEHL1dWRb8C6Ydvr5iOnjy1vEdBCKUe8NVbEn09M9/7Blm3Xj5UOAgAAAACgBNtDaKsGniDMThDSLv2OAayjkVJdl26Ao3LgBOERDzvkTr421XHF8hUBLfaciPj3j518wlsv2DE7dfPW8ZtKBwEAAAAAMFAGsGinpp4gTKUjYHCqOk1NTM++sXTHqMo5v6R0Axyd/PyIBQxg7bq8u3Niurc7IjYuWxPQainyhjrHZzdP9/5L7K9+YefPnf1A6SYAAAAAAAYgpfnIuXQFDF4TB7BSfmHpBBikHPHWCL+HQYsd+QnCp6WUPrg8LQDflXLEW/PK+vZN03f8VOkYAAAAAAAGoW8DFu1UNfAE4YEHogGgJY6PWOAAVuc7z/lvEfHgsuQA/FUnpUgfn9jRu+78q+/ykxIAAAAAAA2W62q+dAMUkaN5G7AOPBANAC2xJrblakEDWDe+55QnIudrl6sI4PvkeMvY/P4vTOzoTZZOAQAAAABg2diARVs1cQDr2NIBADBAacPLb1uzoAGsiIg8NvahcMAUGKzjI8f2ienex23DAgAAAABoomQAi3bK0agThFu2XT8W0azPCQAO55jHY92CB7B2vf2sL0TE/1qGHoDD+amx/v7bJj7U+5HSIQAAAAAALCUDWLRUatYGrCdf8qLnRkQq3QEAgzQ/tmrhA1gREVHHryxxC8CRyXFiVPF7E9t72zdu3+UnKAAAAAAAGmBFNT9fugEKadQAVj93nB8EoHVy7q9d1ADWzDu6fxA5blnqIIAjlCLFZJXW7Nz8oTvOLR0DAAAAAMDR2Z8qG7Boq0b9sHnOfQNYALROrhZxgvC7UvzSErYALEY3V+nmienZny8dAgAAAADA4q2cq2zAoq0atQErp/q40g0AMHC5XtwGrIiIlx43/psR8edLmAOwGKsi8q9NbJ/9zY3bv+SnKgAAAAAARlAKG7BorVWxLS9+acbQqTxWA0DrVHVn8RuwPnZp6qeU/t1SBgEsWsp/s0r7dl6w4/YNpVMAAAAAAFiYFPsMYNFaG15+W2O2YFWRDGAB0EJ58RuwIiIePzb/RkTcu0Q1AEfrlXWubtq8Y/ay0iEAAAAAABy5KicDWLRWZ37t2tINSyXnOKZ0AwAMWk6x+A1YERG9S7v7I6d/u1RBAEtgTc75montve0bt+9aUToGAAAAAIDDy6tWzpdugFLGYt/q0g1LJRnAAqCV0tFtwIqIqGPvVSnii0uRA7BkUkxW1Zrf3/yf9jy/dAoAAAAAAIe2olplAxatlfOKxmzAqqvcmHOKAHCkjnoDVkTE7qlNc3Wkf74UQQBLKscP5RX1LRfs2LOxdAoAAAAAAIdw91dswKK1Ur8/VrphqVR1rCvdAACDVtX56AewIiJ2bT37oxHxuaV4XwBLKsUpOdc3bNox+2OlUwAAAAAAeHY3bHvdfETk0h1QQqpzYwawcqTGbPMCgAU4+hOEERGRUk6R/+mSvC+AJZYjjkk5f2JievZdpVsAAAAAADgoA1i0Uj2WluYx22GQsg1YALROjrREA1gRsXPynD/MEdcv1fsDWGKdiHzlxI7e/xs5p9IxAAAAAAB8n7p0AJTQpA1YEWEDFgDtk5boBOF3VendEeFGNzC8crx3847Z67Z85MurS6cAAAAAAADUuTkbsHKEDVgAtNHSbcCKiNh1+fgdOeKDS/k+AZZajnjz4/N7/8eGa2/1HwEAAAAAAMOjXzoASkgdG7AAYJTliCXegBUR8yv2/4uIuH+p3y/AksrxQ6ueHPvUJR+47fjSKQAAAAAARERELh0AJaT5qlO6YakkG7AAaKGUYvWSD2B9/m3nPxwp3rvU7xdgyeW48Mmxzp9c9MFbX1Q6BQAAAAAAA1i0U5XqxgxgRcSa0gEAMHA5xpblnvDM5eP/OVLcuBzvG2CJnTdXjf3pxNW3n1I6BAAAAACg5Qxg0Up1as4GrMixsnQCAAxaiugsywBWpJRziisiYn5Z3j/AUkpxZsxXf7pxe+/U0ikAAAAAAG2VIurSDVBEncdKJyyZZAALgPbJsUwbsCIidl3evSWn+OXlev8AS+ylnRR/ev5Vs6eVDgEAAAAAaKNsAxYtlTtp2R6zLWBV6QAAKGCZNmAd8MSx8a8ixx3L+TEAlkqOOG2szp86/8N3nly6BQAAAACghQxg0UqpXzfnBGHYgAVAKy3vAFbv0u7+3InLImJuOT8OwBI6Y2y+/ycTV/ZOLB0CAAAAANAyThDSSilVBrAAYITlSMt3gvBpuy7v3hKR3rfcHwdgyaQ4M1bEH13ygduOL50CAAAAANAiBrBopbrKY6UblpABLABaJ0Ve/gGsiIh1K9ZsyxF7BvGxAJbI+v1jnU9c+L571pQOAQAAAABoheQEIe2UItmABQCjLC/zCcKn3fC2l+3LufpbEfHEID4ewFLIEZfMr3v0o1u2Xd+knzwBAAAAABhO2QAW7ZSjHshjtsvtwOMpjfhcAGAhUhrQAFZExO6ps2+PHO8d1McDWBIp3vj4SS+6snQGAAAAAEALGMCilZqyAevBlz9vVekGACghRwzmBOHTZibH/2NEfGKQHxPgqKWYnJie/WelMwAAAAAAGi1Fv3QCFJGjEZc4VjxxTCM+DwBYhMEOYEVKOe2vfjYi7h3oxwU4avlfbd7e++nSFQAAAAAAjeUEIS2VUjM2YK3pP+78IABtNbgThE/b+XNnPxBR/Z8RfooBGCkpp7hqYvqOidIhAAAAAAANZQCLVsqRGzGAtb9eYQALgLYa/ABWRMTM5Nmfzin9kxIfG+AorIlIv3vhB7/w4tIhAAAAAAANZACLVko5GjG4NNbZ34hBMgBYhAGfIPweu7aO//uI/N9LfXyARTppvjP/uxe+7541pUMAAAAAABrGABatVKdmbMCaq8s99gwAhZXZgPW0Ou97e0TcWrIBYBE2zh3zyIdKRwAAAAAANExdOgBKSLkaK92wFOqxlEo3AEAhZaeQd09t2jtfpb8REd8u2QGwUCnSZZune+8o3QEAAAAA0CC259BOOTdi+9tYNdeITV4AsAhlN2BFRNxy+fjdEelvR8R86RaAhcgRvzox3TuvdAcAAAAAQEMUf9wKSsgN2f5WdyobsABoq+G4wzszOf7HKad3lu4AWKDVEfHRiz9853NKhwAAAAAANIDtObRSSqkRA1jzdfnlHwBQyPD8JrhzavyqlOPflu4AWKBX7u/3ryodAQAAAAAw8lKMlU6AEnLO/dINS2GsmjdECUBbpaEZwIqI2Dk5/s8i4r+W7gBYoEs3b5+9vHQEAAAAAMBIy04Q0k4p5UZswKrnkhOEALTWcH0jm1Ku8xNvixT/q3QKwELklH/9gg/NnlG6AwAAAABghNmARSulVDViAAsA2my4BrAiYvfUprm5sf1vjohbS7cALMDaXOWrY1seun+vAgAAAACMCH++SivlaMYGrBX1WCNOKQLAYgzlN7Kff9v5D8+PrfzhHLGndAvAkcoRl0ycNPsLpTsAAAAAAEaUDVi0UqqbMYA1V9WN+DwAYDGGcgArIuKWnz3jW500/4aI+HLpFoAjluLfTEz3uqUzAAAAAABG0NA+bgXLqW7ICcKxar4RnwcALMZQfyN789Zz761z/cMRcV/pFoAjtCoirt24fdeK0iEAAAAAACOmUzoASkgNOUG4v1rViM8DABZjqAewIiJ2T63/UkS8ISK+VboF4Ai9qkprfr50BAAAAADAiBn6x61gOeTUjAGslfVcv3QDAJQyEt/Izkx2e3XuvyZswgJGxy+ef9XsaaUjAAAAAABGwVuuy7Zf0Vopp0YMLnXm61y6AQBKGYkBrIiI3VMb7sydzg9GxNdKtwAcgbUr6vwfSkcAAAAAAIyC2Zg1gEVr5RSN2IA131/ZiEEyAFiMkRnAiojY9fazvtDpV5dExJdLtwAcTo5486bp3o+W7gAAAAAAGHbPvfe5BrBorxz7SycshZXVXCMGyQBgMUZqACsi4qZ3nv2VTr/6wcjxF6VbAA4nRfza6e+/a1XpDgAAAACAYfboqkcNYNFaqW7GANbc/BobsABorZEbwIp4agirjnRJRNxaugXgMF55/Oq5f1g6AgAAAABgmK0eW20Ai9ZKnWYMYD3W2W8DFgCtNZIDWBERu6fGv17n1a+NSDeUbgE4tPzejdtnTypdAQAAAAAwrFZ29hnAorX6DdmAtXrsCQNYALTWyA5gRUTsnnrFIw/tW/EjEXFd6RaAQ1iXUv4XpSMAAAAAAIbVvmqlASxaq0r5ydINS+Hlx29sxOcBAIsx0gNYERFffPcZT770uPGfjsgfKN0CcDAp4vJNH77zzNIdAAAAAADDaGV/38g/ZgWLlRqyAetjl6Z+RMyX7gCAEhrxzezHLk39mclzrogUU+E3dWA4jaV+/9+UjgAAAAAAGEb7qxU2YNFaVSc3YgDrgCZ9LgBwxBoxgPW0ma3d6ZTTmyLiO6VbAJ7F39y4vXdB6QgAAAAAgGEzluYMYNFacw3ZgHXAvtIBAFBCowawIiJ2To3/zzpXF6eIu0u3ADxDqlL8cukIAAAAAIBhU+3vrC7dAKVUKxo1gPVk6QAAKKFxA1gREbunzr49pfqCiPiz0i0Az/DaTTtu31I6AgAAAABgqHT6a0onQClV3wAWAIy6Rg5gRUTcvHX9N9fdd/+WiGTbDDBUUq7+aekGAAAAAIDh0llbugBKeXJsvklDS00aJgOAI9bYAayIiBu2vW5+ZnL8vTnSZRHxROkegAN+eGL6jonSEQAAAAAAQ6OubcCitTr7+40ZWsqR9pVuAIASGj2A9bRdk+O/kep8YUR8qXQLwFPSPyldAAAAAAAwLPpVZQCLtsq7v76xMUNLKdmABUA7tWIAKyJi5zvOuXXVfH8icvqt0i0AEfGmielet3QEAAAAAMBQyDZg0VpPxLZUl45YKinnxgyTAcBCtGYAKyLiM+/a8NDM1PhPpZT+bkTsLd0DtFqKHO8tHQEAAAAAMByqtaULoJBGPWaZwwYsANqpVQNYT9u5dfzaiNgcOe4o3QK0WIr/44Idt76kdAYAAAAAQHE5G8CilVLE46UbllZq1EAZABypVg5gRUTMTHZ7e+fjwsjxkdItQGuN1bFisnQEAAAAAEBpKaXVpRughNy4Aaz6sdIFAFBCawewIiJ6V3Qfm5nq/myO+LGI+HrpHqCN8tbudb2VpSsAAAAAAMqyAYvWatYAVgoDWAC0UqsHsJ62a7L7+yv68+eliN8t3QK0TI4T1z6SfrJ0BgAAAABAUSmtKZ0AhTTrZF9tAAuAdjKAdcBn33nu/Tsnu2+KyJMR8WjpHqBFcr6idAIAAAAAQFE5G8CirZo1gGUDFgAtZQDrGWYmz9lR53SWbVjAAP3Apqt655eOAAAAAAAoxwlCWqppA0s5NeukIgAcIQNYz2L31PjXd05235Ry/pmIeKh0D9B8KcfW0g0AAAAAAMVkJwhpq9SoDVi5yt8p3QAAJRjAOoSdU+dcE3MxHhG/WboFaLgcf+v099+1qnQGAAAAAEARyQlC2io3agCrqhu20QsAjpABrMOYuaL7jZnJ7ptzxI+liC+W7gEa63nPWzX3o6UjAAAAAABKSGEDFi2Vo1En++qmnVQEgCNkAOsI7Zrs/n4/PzEekf5eRLO+EQKGRMp/p3QCAAAAAEAJOWJt6QYoIz1SumAppTp5HBWAVjKAtQC7pzbNzUyO/3qV5s9KER8v3QM0S4748fM+cstxpTsAAAAAAAowgEUrpciNGsCyAQuAtjKAtQg3bz333p2T3bfkiL8REV8u3QM0xuqV+1e9uXQEAAAAAEABThDSTjk/WjphKY1VdaM+HwA4UgawjsKuye4nxh57bjfl+MWI2Fe6Bxh9OYUzhAAAAABAGx1bOgBKqKv0cOmGpVU/WLoAAEowgHWUbnzPKU/snOpuq+q0ISJ+u3QPMOryay784BdeXLoCAAAAAGCgUhxXOgFK6NTN2oD1xKp4qHQDAJRgAGuJ3PyO8btmJrt/s87x6oj436V7gJFV9TvzbywdAQAAAAAwMNtyFdkAFu3U7zRrA9Ztl537eETsL90BAINmAGuJ7Z7q3jwz2X1N1PknIuKu0j3ASDKABQAAAAC0xnmnff65EdEp3QElpKr/SOmGZWALFgCtYwBrmcy845xP1vmJbqSYiohvlu4BRkeO+KGLP3znc0p3AAAAAAAMworceV7pBigl7V1hAAsAGsAA1jLaPbVpbmZrd3rvXJyeIr83RTxWugkYCav213M/XDoCAAAAAGAQqv6K40s3QCn9FY8/WrphySUDWAC0jwGsAehd0X1s5+Q5v5zS/NkRaUdEzJVuAoZd5ydKFwAAAAAADELdr48r3QCF7N09talxjxvmHA+WbgCAQTOANUA3bz333pnJ8ck6x+mRYzoi5ks3AcMq//iWbdePla4AAAAAAFhuKYUThLRVE88PRso2YAHQPgawCtg91f3qzFR3qs71WTnytRHRL90EDJkcz3/85BdsLp0BAAAAALDccso2YNFKOeLh0g3LITtBCEALGcAqaPfU+i/tmjzn76bUOePARiyDWMB3pdx5XekGAAAAAIBll9PzSydACSnFt0o3LIfKCUIAWsgA1hDYufWsL89Mdac6qV4fkf97RNSlm4DycpUNYAEAAAAAzZeSDVi0Um7qoFKKB0onAMCgGcAaIjdtXb9nZvKcv13n+pWR4v0R8WTpJqCgHBee/v67VpXOAAAAAABYZs8rHQAlpBz3l25YDjnim6UbAGDQDGANod1T6780s7X78/NVOvPAINYTpZuAItY+b83+zaUjAAAAAACWU4p8fOkGKKKhm6Jyqhs5WAYAh2IAa4jdcvn43TNbuz+/oj//0pTjFyPi4dJNwGDlOm8p3QAAAAAAsJxyCgNYtFNu5gBWp18ZwAKgdQxgjYDPvvPc+3dOdbdV+1aeliK/t6nT8MCzSGlL6QQAAAAAgGVVO0FIO6XI3y7dsBzyfOUEIQCtYwBrhNz87jMe3Tl5zi/v3R8vzSn9Qoq4u3QTsOwuPP39d60qHQEAAAAAsGxSHFc6AcqoGjmAtfOKsx6MiLnSHQAwSAawRlDviu5ju7aO/9ra++4/PeX4OxHx+dJNwLJZc+yq/eeVjgAAAAAAWEZOENJKqWro1ZuUckQ0crgMAA7GANYIu2Hb6+Z3TnX/28xk9/w6xw9EpP8REbl0F7C0UpU3lW4AAAAAAFgO3et6KyPi2NIdUMJ83f9W6YZl5AwhAK1iAKshdk91PzMzOf7GKtXnpYjfCGs9oTFSnTaWbgAAAAAAWA6rH4oTIyKV7oAy1jZ2S1SOdH/pBgAYJANYDXPz1vW37ZzsXjZfpTMi4tdTxGOlm4Cjk5MBLAAAAACgmaqUTyjdAIXM7Z58+aOlI5ZLytkAFgCtYgCroW65fPzumcnu31s53z81p/i/w5pPGFkp8vjG7bvWlu4AAAAAAFhydZxYOgEK+WaklEtHLJsU3yidAACDZACr4T7zrg0P7dra/bd7j4tTU0p/NyJmSzcBCzbWyevOLR0BAAAAALDkOumk0glQyH2lA5ZTTulrpRsAYJAMYLVE79Lu/p1bx6+duW98fdT5JyLij0s3AQtQ1ZtKJwAAAAAALLUcYQCLVkoRXy/dsLzyvaULAGCQxkoHMGDbUj0T8cmI+OTE9O0X5aj+YYr4iTCMB0MtR7yqdAMAAAAAwFJLOb8oIpXOgIHLOb5ZumE5dSLdW0dzLywCwDMZummxmcn1n9012f3J3OmMR6QdEfFk6SbgoMZLBwAAAAAALLlcnVg6AUpo/gasORuwAGgVA1jErref9YWZyfHJFf35U1OOX4wUD5RuAr7PmaUDAAAAAACWXMqnlE6AEnIV95VuWE6nHrvh6xExX7oDAAbFCUK+67PvPPf+iNjWvbL3H9asTJenOr8nUvgPHxgOx05c2Ttx5oruN0qHAAAAAAAsoZeUDoAScjT7BOHHLk39ieneN8I/47RAyvlnUtW5o3QHUJYBLL5P74ruYxHxaxu377qyk9b+7ZzzP4qIbukuaL0V1ZkRYQALAAAAAGiE7nW9lfFwnFC6A0pIOTd6A1ZERKS4J7IBLJovp3zXzq1n7y7dAZTlBCEHtXtq09zOrePXzmwdXx91/omI+LPSTdBqqXaGEAAAAABojHWPdF4cHquiparU/3rphgG4t3QADETdsfgGsAGLI5BSnon4ZER8cuP23iVVFe+OHD8V/qMIBirnMIAFAAAAADRG7teneKSBlsqPHTt2f+mI5ZZyujdHLp0Byy51srkLwLe1LMzuqe5nZrZ2L42IDTnytRExV7oJWsQAFgAAAADw/7N352Fy12W+9z/3r7o7G0sQEUQCBAhJutIJmaSJ4IyCnucoOnq8HA2jnmEMSXcHUWZEfdRn5hnjmWsW9QyPMkchHTGKOoPgMjqDuxCWJHRXdwIJlYBhD/uavTvdVb/7+aPDFrYsXXVX1e/9uq7kSiRX6i2kO91dn/p+G0fik6ITgCBPFufnh6IjKs85AQuZYGnKAAsAAywcmEJnvtjXOeMvU9cpLl0uKQMfJAKxEgZYAAAAAAAAABqJiwEWsuqB6IDqsHujC4BqcFNLdAOAeAywcFD6u/IP9HXmLzDLTZNruaRSdBPQqFw6Xu4W3QEAAAAAAAAAoyLR8dEJQJBsDLDS9J7oBKAa3HITohsAxGOAhVHR2zHt3kJX/vxcOZkiV7ekcnQT0IBazrx83VHREQAAAAAAAAAwKlynRCcAIdzvj06ohubmJgZYyARLdWh0A4B4DLAwqm65YPp9ha58V5Jqpknfk5RGNwGNZKi56U3RDQAAAAAAAAAwKlwnRycAEcxsc3RDNaxcOG27pCejO4BKSxMdEt0AIB4DLFREz+L8ht7O/Hme2CyZrpHk0U1AI7CSHxfdAAAAAAAAAAAH66wl1zfJNCm6A4iQWkauIBzBKVhoeJamnIAFgAEWKqtvUevthY78fDO9TdKa6B6g3llinIAFAAAAAAAAoO5tO+4NJ0pqju4AIniqTJyANcIZYKHxJXZ4dAKAeAywUBW9HfmbCh2tc83sL2V6NLoHqFcuZ4AFAAAAAAAAoO41pc71g8ispKT7oxuqxdwYYCED7PXRBQDiMcBC9Zh5b0frlS1J7lSXLpFUik4C6o9xBSEAAAAAAACAuudKGGAhq3YXnmh9PDqiahIGWMgA9zdEJwCIxwALVbdy4bTtfZ35T6du8yT1R/cAdYYTsAAAAAAAAADUP0+nRCcAQR7UEkujI6rH740uAKqAARYABliI09/VuubEia3zTPq0pF3RPUCdOCY6AAAAAAAAAAAOmtn06AQggksPRDdU07DZ3dENQMU5AywADLAQ7Jr5Vu7tzF+SenmOXGuje4A6cER0AAAAAAAAAACMAgZYyKREytSJUGsfnL5ZHMSARmc6+kNXey46A0AsBlioCf1dM++Y8Mjjp5vrS5IydOwqsH9MmhjdAAAAAAAAAAAHI/+N4iGSJkV3ABFSU7ZOhBq5bvEP0RlAhbXct+P2Y6MjAMRigIWasWLJ2aXervwSpXqPpC3RPUAtcumQs5Zc3xTdAQAAAAAAAAAHanyzT5dk0R1ACLd7ohOqzWUboxuAihvKTY5OABCLARZqTmFx/lflRO2SNkS3ALVo+xuP5RQsAAAAAAAAAHXLLOH6QWRWkpbvim6oOvM7oxOASjNLGWABGccACzVpzaL8XamPPVPSb6NbgFrjuRIDLAAAAAAAAAB1y+UMsJBZuaYkcydgmYsTsNDw3Oyk6AYAsRhgoWb1d528dddE/ancfhLdAtSSplLKAAsAAAAAAABAPTstOgAIsmX1ovzT0RHVllh6R3QDUHEmxsVAxjHAQk0rzs8PnXjE9PkuvzK6BagVnuQYYAEAAAAAAACoZwywkE1m2bt+UNK4pkP+IKkc3QFUlCsfnQAgFgMs1Lxr5lt58sT8+XL9Z3QLUAvcnAEWAAAAAAAAgLrU/o3iMXIdE90BhEj97uiECCsWTB6U6/7oDqDCTj3l0k1joiMAxGGAhbpwzXwr7x5X+rCk/ugWIJq5DoluAAAAAAAAAIADkuP0K2SXSZkcYEmSmzZGNwAV1nTkuMGp0REA4jDAQt1Yd96snRrWn0p6MLoFCGVqiU4AAAAAAAAAgANiDLCQXalld4AleTG6AKi0sidzoxsAxGGAhbpSuDD/qFJ9TFIa3QJEcXlzdAOABmepRScAAAAAAIAGZZodnQBEcdcfohuimGxddANQaWZ+RnQDgDgMsFB3CovzvzfZ16M7gDgJAywAleXWFJ0AAAAAAAAa1unRAUCU3HCS2Wv4Uk+WanD5AAAgAElEQVQYYKHxuTHAAjKMARbq0vjmcf+PXPdEdwARkpQrCAFUGFedAgAAAACACpi3bP3Rkk6M7gCCPN77ielPRUfE2XmHpKHoCqDCpp+2fO3E6AgAMRhgoS6tWDB50BP/2+gOIAgnYAGoLBcnYAEAAAAAgFHnaY6TQZBlmT39SpL6u+YOK+P/DpAJSVOp5W3REQBiMMBC3epblL9KUn90B1B9zgALQKXxfgYAAAAAAIw6N705ugGI4oyP5PLbohuASjPpndENAGIwwEL9MnNZ+o/RGUAAhhEAKsx4PwMAAAAAACrAGWAhs0x2R3RDNHNbF90AVFzKAAvIKgZYqGtpuvs/ZXo0ugOoJje1RDcAaHSctAcAAAAAAEbXnKV9zZLmRncAURIvcwJWwgALGWA66fTujadGZwCoPgZYqGv9XXOH5fbd6A6gmkyWi24A0Ojs0OgCAAAAAADQWHI+Ya6kCdEdQJS0mSsIcyozwEImpJZ+MLoBQPUxwELdS6z8b9ENQDW5eRrdAKCxufyI6AYAAAAAANBgzN8enQBEMWlHYcGMB6M7ovV0tD0m6ZHoDqDi3M6NTgBQfQywUPd6Fs1YL+nx6A6gWty9HN0AoLGZiQEWAAAAAAAYVZ742dENQBSXNsrMoztqRCE6AKg0k8+cs3TdtOgOANXFAAv1z8wlvy46A6gWkzHAAlBZzgALAAAAAACMnrOW3ztWrjOjO4AoJq2PbqgdxgALmZBY7rzoBgDVxQALjcGTG6MTgOrhBCwAFTdmztK+8dERAAAAAACgMewo7XizpHHRHUAUl62LbqgVppQBFrLi/PzVxZboCADVwwALDSFRekd0A1At5pyABaDympLm10U3AAAAAACAxmCe/PfoBiCSW/m26IZakUusIInrGJEFR4/fovdHRwCoHgZYaAxJeVN0AlAtzglYAKrAyy2TohsAAAAAAEDD+NPoACBSsyWcgLXH6kX5pyXdE90BVIXpwugEANXDAAsNoWfRzIck7YruAKrCrBSdAKDxpYmfEN0AAAAAAADq35ylxeMltUV3AGFcm/eMjvAc5xpCZIPrrXOWFv84OgNAdTDAQmMwc7meis4AqsGk3dENABqfuZ8Y3QAAAAAAAOpfYsbpV8g2M64f3IvJGGAhM5JEfxPdAKA6GGChYbhpR3QDUA3uNhDdAKDxmenE6AYAAAAAAFD/XP7u6AYgkrlz/eDeTAywkB2ud81ZWpwXnQGg8hhgoWGYGGAhI8wZYAGoODdxBSEAAAAAADgo8y7ddJhJ74juACJ5Ygyw9lJOB/olDUd3ANWSmF0id4vuAFBZDLDQOEyMUpANxglYAKrA1RadAAAAAAAA6puPG36/pLHRHUCkNC1xBeFe+rvm7jJpTXQHUD1+5txlG8+NrgBQWQyw0Dhch0QnANXgzglYAKriTfOWrT86OgIAAAAAANQxd55sRtbtPOmItk3REbXITTdHNwDVZPIvv+WKOw6N7gBQOQyw0EgOjw4AqsFku6IbAGRD2ZM/im4AAAAAAAD16Y+/ue4Il/5bdAcQytR/zXwrR2fUInNbGd0AVNnxu8vlr0RHAKgcBlhoJIdFBwDVkLoPRjcAyIbEjQEWAAAAAAA4ILubkg9KaonuACK5qy+6oVYNNzXfLMmjO4BqMqmr/fLiO6I7AFQGAyw0EgZYyITEtCO6AUA2uPnp0Q0AAAAAAKBe2fnRBUA8K0QX1Kq15095QtKd0R1AlZkSfefMy257Q3QI0Mhmf3vTUXOXbfi/2pcV/2c1H7epmg8GVMqcpXe+XiqNie4AqsEstzW6AUBmnJ2/uthSnJ8fig4BAAAAAAD1o727mJf05ugOIFqaOCdgvRrzm+U2LToDqLLjhnNN//6hq/2/c0UpcJDcrX35+sleSmabdJqUnCb5bJWG3rTnV9wq6fvVymGAhYbQpOG2VBadAVRFy/DQlugGAJlx6CHP+FskXR8dAgAAAAAA6oj7Ihlfs0fmPb1mYevdWhSdUbss1c1u/BtCJr39vi0b/lnSZ6NDgHoxZ2lfc2Lj8pJOk2m2pNO0bMMsKXf48x91xt5s+5oDrPZlG85NNLyyp2PWg9UIAg5EasnM6DcmoEr85sfbOAELQNWUTe8SAywAAAAAALCPTrl00xglQ3/Bl+yRdS7rkxlvCa+iLL854YAFZNdnTu8uPtDbmf/X6BCg1sy7dNNhacvwaTI/TdLIN1NeUoukmp2GvPYJWO6Xp2qa2N5d3GTSdS5dV2pquX7PvbxATTD5zBp9GwNG2zYtsTQ6AkCW2HslfS66AgAAAAAA1IeJY4c+KteR0R1AOPNCdEKt6+9qu/v07uL9Lp0Q3QJEcOlr7d3Fxwqd+aujW4AoZ1x255vKSfk0Sae5+WxJp6UaOkmqv4Xu/lxBOMWlKZK6mkpDPrd7w3rz9Dq5rkuGxtzQc9GUbZWKBF5LKp1Rd299wIHh9CsAVWXS9Pbu9WcWOttWRbcAAAAAAIAa5262bMPF0RlALUhS64tuqBO/l3R+dAQQJJH0/fZlG6zQ0frD6Bigkj50tec2b7391JLsNLlOM9lsSaeVVDoqum207M8A64XM5DNlNlOmv07HDpVO7y72u3SdZNc17Th05eqLJw2MainwCuZdXmxNpenRHUA1uGxLdAOADLJcpyQGWAAAAAAA4FWd3r3x3T5yPQyQeWWpJ7qhLrh+L2OAhUxrlvsP2pcVxxc68sujY4DRMO/STYeVxgzNtMRnmSezJD/tvi0b8lIyvpEP1jnQAdZLfh+X5kmaJ/kXSods292+rNgj1woz3VBOB27p75q7a5QeC3iRck4f4gZtZIVJT0c3AMgg9/mnLV/717cumM0IFAAAAAAAvCI3fSa6AagR9/Z3tT4SHVEPLEl/75646vCqKWAU5eS64vSlxRN6O1u/JOPZb9SP05fdMVlpOsvNZ8ptluSnpTY0OZFMbpKy88d5tAZYexsj11slvdVdSmzcUHt3seCmFbk0vXFgXLpy3XmzdlbosZEx5vpQdANQPf54dAGATBrXPNzyKUlfjA4BAAAAAAC1qb1749uk9KzoDqAmuFZGJ9SLno62x9q7i7dLaotuAYKZm754+rIN+cErb/sYewrUmrOW3zt21+4dM5TLzUrdZ5lpllyz3MuHPzehzfh2sFIDrL21SHqLud6SWvI3YwaTUvuyYkFuN7r8hjG53M0rF07bXqUWNJD2y4vvkDjOGNlhEgMsACFMurj9G8XLChfmH41uAQAAAAAAtSj9h+gCoFaYMcDaHyb7ncsZYAGSXPrgmMGmGXO/VfxI36L82ugeZJC7tS9fP9lLuRkm5V3WZvJZO4d3naokaZL7yN4q21url1WtAdZLH9d1huRnmPS5oXK51N5dXCvpBlN6Q9nH39TfdfLWoDbUk5z+njdsZIk7J2ABiOHSId6sL0q6ILoFAAAAAADUlrnLNrxb7m+J7gBqRdkTBlj7w/V7mT4VnQHUkGmW6pa5yzb87eTDp19yzXwrRwehMc2+4o5jW0rDM9ySGZLyLrVp2YZWKTfhuUOtGGTss6gB1t6aJLVLancln0lsMJ3bveF2c91k8lXenN5UOL9tc3QkasueT+jOiO4AqsllDLAAhDGpo71741WFzuk3RLcAAAAAAIDa8KGrPXfflg3/GN0B1JAt/Y9MK0ZH1JPmpuTGoXJ5WFJzdAtQQ1rM/Sv3PbPhw3OWFi/o78r3RAehfp3xreLrSmnSJnne5W02csvYDJXLR6SWROc1jFoZYO0tMflMmWa6dKFKidqXFjcr0U0uX5WT39Tz0IzbtcTS6FDEmLO0b7y5fzW6A6i2xBhgAQiVk9IfzP72ptlrz5/yRHQMAAAAAACId/+WDR+XNCu6A6gZplt4DnP/rFw4bXt7d3GVpLdFtwA1xzQ7kVbN7S4uz1lpSU/HrAejk1C73nLFHYfu9vL0xK1NrrzLZ0iaUUr1RmnkryZ79d8CB6FWB1gvZZok10dM9pFUpvZjN2xVd3GVZKskuyn1nYX+rrm7ojNRHWbjLpXUGt0BVFuapAywqms4OgCoQW9qKg9dOWdp3/v6u+byNlJBZy2/d+yO8sApSVmneHO5nxNhAQAAAAC1Zt6y9Uenrr+P7gBqihvXDx4AN7vW3BlgAS8vMWlh6k0fndtd/GZLufTlVRfM4jnDjDpryfVN2457w4mJ26lK06kyO9WkUyVNHSqX32SSnGsDQ9TPAOulDpd0juTnSK7Exg23dxf7XVqVuN1kSXl1T0fbY9GRGH3t3cWPSloY3QFEsCR9JLohW2xYfIACvJTrXYnGXzVnad+fM8I6ODOvvG3C2F25U9JEpySenOymU1x+irlO2Tm86ziTzE3yUvJuSQywAAAAAAA1JfXkXzTyfA2APRJPGWAdgFzZr00TfSW6A6hxY026eDjX9PH2pcUrvSl3Sd/CaXdGR6EyZn9701HJ8NDUXGJTU09PlexUSVN3SifnUrVILhnnWdWSeh5g7a1Z0ptNerObX+yeqL27eK/LbjGpJzH1PDXQvPaui6bsjg7FgWu/vPgOSd3RHUCQdNchOY4VrSbXEOdwAq/A/AOJj7/qrOX3fnTFgsmD0Tm17I+/ue6I4ebmk1JPT5Z0skmnuOkUuU7RoI71ZOTIX7eRwac99x0AAAAAALWrfdn6D8j10egOoMbsLmmwJzqiHvUszm9o7y7eK2lydAtQB8bK1Gnl8qL27uJvJX37mcGWn7GFqD9nXLJ5XHn81lPTnE2RdKrcpyayqS6dqtLQETLJ3WU8aVAXGmmA9XImm3yypA+nLh0xdmjo9O7iWjf1WKoeby7fUjh/5j3Rkdg37ZcX36VEP5E0LroFCPJYcX5+KDoiW5yTfYBXY/6BncO7bpmzdN2f93fNvCM6J8pZS65v2vWmN07ycvkkJX6SlJws85PkOknSSbulI+Tpc7/en/sOAAAAAID61P6N4jFyLY3uAGrQLf1dc3dFR9Qrk6516RPRHUAdSSS9U9I7jxg39NTc7uI1lupHJ76udcU1860cHYcRp/+fjUd6S/kkySabfLK7nSTTZJNOLWnb8ZKZPfecgfH0QR1r9AHW3lpcmifXPDdJpZzau4uPy9Vjsh53vyUZain0XDRlW3QoXqx92YZz5f5dSWOiW4BAXD1VZWYa4oMc4DXNSizXd3p38Qs7J2ppow5FT1u+dmJuaMxJlvhJSWonyfwk18jAaqd0vLzcrETac5YVAysAAAAAQONa4omaN3xb0uujU4AadF10QD3zVNcqYYAFHBDXkSYtVqLF923Z8GR7d/G/XPZr99zv+rumPhmd18jmXbrpsHTs0CRzOzGVT94zrpqskecQJrvSw5699sJlz92AwdMIjSdrA6yX8waZ3uvy98qkdOxQ2t5d3GhST+rqNfM1E5onrOdqnRgzr7xtwpjdua/JfVF0C1ADGGBVHydgAftmgkuXjn9Gf92+rPjFEw9v/fd6e3XNyCtQ0klKfZIldqJck1w6XqaTZDpJwzpSNjKscuPTIgAAAABAdrUfW/ySZOdEdwC1KHUGWAdjwpjxK3YO79opaUJ0C1DnXi/pYyb/mFkpbe8u3irpJkmrmspNK1dfMPWh4L66kb+62DJ+R/k4DTUd54lOSFzHp+bHSZpkrhNkmpRq6HBp5LkDLgrMNgZYL5VIyruUN9P5kmnn8K5Se3exKNcal9aYpWt2j01vW3ferJ3RsY2svXv9mRpIvi3T1OgWoCa4M8CqslQa4gMlYD+YTpLre/dt2fCV05cWv++m7xY688XorFMu3TTmsPFDk5rLPsml493sBJlPktskl4436QRXOl6SlOw53veFb/zsrQAAAAAAkCSdvrT4IZf+JroDqFE7B49Qb3REPVuxYPJge3fx95LeF90CNJBE0h/t+fZXpVxJ7d3Fx2S6XVJRUlGe3p76+GJ/18lbQ0uraOaVt00YO9jyJll6tLveKNcxMh0js2Pl/gaXvcnkR2uL3iDlTMnIuMrtBU8f8CQi9sIAa980SZol0yyTFkiJxgwm5fbu4p0joyxfY5Zbkww2reX6woM394o7plop/UfJP8A7LeB5ZsYAq/o4AQs4MG9002clffb07uL9qfwGM1thZV8zfsyEO0fzZNGRqwFzx+SS3FGpdLRkx1maniCzSRo5wWqSfOgYpVJqL/jAwkd+zIcaAAAAAADsm/bu9We6tFx8Og28PNNNxfn5oeiMemdmP3d3BlhAZR0t19GS3jHy00SJDap9aXGzTJtMeshND5nrYbltLssfaUmbHjzuyFMfrcXbL0aeJ2g5zHI6Um6vl+tIWXqkuR0p05FK9TqZjpSe+3aMBjXBlT7/AuxnP7px3/NTXpmN/ccA68DlJLXK1Gqy/ymlSscOeXt38S651phsjZvWpK5if1frI9Gx9WDeso1z3NOPe7l8now/m8DeUtPd0Q1ZY6YhPr4CDo5LJ5jsPLnO88S0c3hX2t5dfEAj79Mec9dTJj1pboOe+BZJclfJTE2e+oREyXg3HSqlh0o23qWjzOxouR8j6SgNa4xs5HOiZ29Q14uGVgH/pwEAAAAAaDBzv1WcrVTXimvBgFfkMq4fHAXlNPezxEqXi+exgeozTZI0ySXJ93x53VyJpFKupPu2bCi3dxe3yfWMTNslbTNpu7u2S9rq5ltkNpy4b3/2t3S3khJtf7mHG3kYG594OuYFPz9csmTkxz4+kSa46VB3OzyRj3fXBEmHy3SIRj4umaBhjTxBkO4Jl557EbZcTMdRNfzFNbpM0hSZprj8XElKTGrvLj4tqWjShtR1e5JoQ1OpdPuqC2Y9Hpsbb87Suw9PbGC+ZF2pp3Oie4BaZq67ohsyiBOwgNGXSDpRrhOlF7yoxPy5z4tM2rOjMvleLz8Z+WesqgAAAAAAqJY5Sze2WZr+WtLE6BagluUYYI2K/q6pT7YvK94gf/ZkHgA1JCfpCJmOePZ/GBlpjfzYZHuGWy9YPJle9YXSI88C7L2QevYUqj0/8md/nRhToaYxwKqO10n6E5f+xPac0DCca1L7suJTclsv841yu92tvMHTltv7u6Y+GR1cSX/0reIpSdnfa4m9Rz74Vsmao5uAOpA27TjsnuiIzHFxXDQAAAAAAAAya+6y9WeZpz8V4yvgtTx9/OHTbu2JrmgUqf1Y5gywAAB1hQFWJNeRkp8l11mSyzyRWUnt3cUnJK03aZNLd5nsbrPy3QNj0rvXnTdrZ3T2/piztG+85cbOTlKb59I8SW9WquNlxpVAwP5wPbT64kkD0RnZY8O8swIAAAAAAEAWzV12+4fNbbmkMa/5i4HM899cM9/K0RUNo+Q/VbP+j0ZO0wcAoC4wwKpNR0l6u0tvlySXyz3RmMFE7cuKj5rrLnfdJ9NmN3/IynpAiW0uNbU8tPb8KU9UO3besvVHe9mOkSXHyXySu0+V2XRJp0o6QakS5gvAwXHj+sEIpnT4pceeAgAAAAAAAI3rlEs3jTlizPC/yP3C6BagXpglv4xuaCSFC/OPti8r3izXW6NbAADYVwyw6o3rGJeOkemPJcncntt+N5WG1N5dHJTrCZmekvSEy55M5E/J9ZTMB1zJoMwH5Boy105JclOLTBNGfntvTlyHjDxW0uSmQ0d+nI6R2USXJpp0hKSJcr1OpqNTV8tIw56ZlTFWAEabyRhghbBd0QUAAAAAAABAtcxZurEtsaHlkuZEtwB1xE3lX0dHNJxUP5YxwAIA1A8GWI1nrEyTJE2SJJOPzKLs2e/8uZ2Uv3An9ex2Svb8ZVv2gnOr9oyqXjStYmcFVI/7ndEJmeS+jVEpAAAAAAAA9uaJTpyz9O7D+7tO3hrdMhpmXnnbhJbB3N+Z0k9Jao7uAerMmp6OtseiIxpNkpR+knrT18QzkgCAOsEACwDqgasYnZBJlmyTuEQVAAAAAAAAe3F9JLHB+e3dG26W/NrE0t/0PDTjdi2xNDptf5xy6aYxE8cMddigviDp2OgeoB656VfRDY2op2PWg+3dxZsl/Ul0CwAA+4IBFgDUgSRXuj26IZPMt7K/AgAAAAAAwCtokvwsSWelnny1/dgNW7y7uNKklVKyKhlsWttz0ZRt0ZEvZ/a3Nx2VKw9/zNKhT+65VQPAgTL/ZXRCwzJ9X84ACwBQHxhgAUDt29LTMevB6IhMKqfblCTRFQAAAAAAAKgPE016j6T3SKnSsUPe3l28S9Jak6+RJ7d7c2lj4YG2+yJOytpzzeC7zO1DKg29X9IYLvYCDtozhzz4RE90RKNqMv2o5LpU0pjoFgAAXgsDLACofVw/GCVp2ibV1anxAAAAAAAAqB0maYqkKS6bL3OplFP7sRsGtLR4h6Q/uPn9Mj2QuN9vpgd2N5UeuHXB7C2j8eBvueKOQ0ul0tzUkrfI/C0a1FmSxjK6AkaR6zcrlpxdis5oVKsX5Z+e2138pUnvj24BAOC1MMACgFrnDLCiNJWHtgzn+KsSAAAAAAAAo2qcTLMlzTaZ5JLL5C41D7eovbu4TdJml+4z1+NKtF3u28yT7Z74Fnfblri2p+a5xDXGTS1yHSnzo2Q6RrLJck0dKpePk5n2PACACvDEfxbd0Pj8+5IxwAIA1DyeVQaAGufS+uiGrGp57Omnh499g0u8LhAAAAAAAABVc5ikvEl57dlPSSa3kSGVyeU28gUrf/arVrbnO4ZWQDUNeTruF9ERje6Q5gnX7hzetUXSxOgWAABeTRIdAAB4dbnE+qIbsmrP0dHPRHcAAAAAAAAAAGqM6br+rpO3Rmc0uhULJg+69OPoDgAAXgsDLACobeVSumtddESmuZ6ITgAAAAAAAAAA1BZzcf1glVhqV0Y3AADwWhhgAUBt29DfNXdXdESmmZ6MTgAAAAAAAAAA1JS07MYAq0oKi1tvdGljdAcAAK+GARYA1Lb+6ICsc3ECFgAAAAAAAADgBUw9/V2tj0RnZIrZ8ugEAABeDQMsAKhhJq2Jbsg6kzHAAgAAAAAAAAA8x9w5/arKWkrD35U0FN0BAMArYYAFALUsTfqiE+C8igkAAAAAAAAA8BxLk59EN2TNqgtmPW7Sz6M7AAB4JQywAKB2De58XcoVhNFMD0UnAAAAAAAAAABqhFlfz+LWTdEZWWSeLotuAADglTDAAoBaZeotzs9znG4wS40BFgAAAAAAAABghPsPoxOyqqdzxm8l3R3dAQDAy2GABQC1a1V0AKQ05w9HNwAAAAAAAAAAaoKnrqujIzLLzM1teXQGAAAvhwEWANQoS+3m6AZILcMlTsACAAAAAAAAAMiklf1d+QeiO7JsuLm5W9JgdAcAAHtjgAUAtSnN5Xx1dASkVYtnPiGJqyABAAAAAAAAIONSF9cPBlt7/pQnZMZ/BwBAzWGABQC1qbh6Uf7p6AhIMnNJ90dnAAAAAAAAAABCla2kH0VHQEpTXRrdAADA3hhgAUAtcv99dAJe5J7oAAAAAAAAAABAINOKwoX5R6MzIPV3ta6RtDK6AwCAF2KABQA1yIwBVi1x6d7oBgAAAAAAAABAHJNdGd2AF+EULABATWGABQC1p2SDY2+MjsDzEjcGWAAAAAAAAACQUSbt2DnkP4nuwPMmPPz4T+TaHN0BAMCzGGABQO3p6bloyrboCDwvTZwrCAEAAAAAAAAgu64uXpjfER2B561YcnZJ0jejOwAAeBYDLACoPVw/WGM8NQZYAAAAAAAAAJBRZdfy6Aa81HDL0OWSeEE7AKAmMMACgJqT/jq6AC82PG74Tkke3QEAAAAAAAAAqLpN/Z2tK6Mj8FK3Lpi9RbLLojsAAJAYYAFArXnixIkzeqIj8GLrzpu1U64HozsAAAAAAAAAANXlpu/IjBfo1qjEyv+fpMHoDgAAGGABQG259pr5Vo6OwEu52cboBgAAAAAAAABAVaWWS78XHYFX1tPR9phcV0Z3AADAAAsAaoibro1uwMszOQMsAAAAAAAAAMgQl35ZOL9tc3QHXkNz+cuSStEZAIBsY4AFALVj2NOxv42OwMsz6Y7oBgAAAAAAAABA9SRul0U34LUVzp95j1w/ju4AAGQbAywAqB0r+rtO3hodgVdgKkYnAAAAAAAAAACqw6T7Tzhi+q+iO7BvkiT9R0lpdAcAILsYYAFArTD9KDoBr8wGWm6T5NEdAAAAAAAAAIDKc9fl18y3cnQH9k1PR9s6GadgAQDiMMACgNpQbi6V/iM6Aq+s56Ip2+S6N7oDAAAAAAAAAFBxQ0mSLo+OwP5JyloiTsECAARhgAUAtcC0YtUFsx6PzsBrsVujCwAAAAAAAAAAleWyH/d0tD0W3YH907M4v0Gmq6I7AADZxAALAGqAOdcP1gXz26ITAAAAAAAAAACVZakuj27AgTFPviSpFN0BAMgeBlgAEK9slv40OgKvzSVOwAIAAAAAAACAxnZrYXHrjdERODC9ndP/IOn70R0AgOxhgAUA8X7HUcb1wYbVG90AAAAAAAAAAKgcl10S3YCD1FT+e0lD0RkAgGxhgAUAwdz8u9EN2DeFC/OPSnogugMAAAAAAAAAUBEPD0z0H0ZH4OAUzp95j6TLojsAANnCAAsAYm3zdPBn0RHYD6ae6AQAAAAAAAAAQAW4/rU4P8/JSQ1gTKn8JUlPR3cAALKDARYARDK/ur9r7q7oDOyHlAEWAAAAAAAAADSgXTacLIuOwOi4+eMzn3Gzf47uAABkBwMsAAiUpsb1g3XGc35LdAMAAAAAAAAAYHS5dEXvJ6Y/Fd2B0TNwuH9d0t3RHQCAbGCABQBx/tDf2boyOgL755DchH5Jg9EdAAAAAAAAAIBRU04TXRodgdFVnJ8fcvP/N7oDAJANDLAAIIhJS2Xm0R3YPysWTB6UuIYQAAAAAAAAABqFy65esyh/V3QHRl/fovxVknqjOwAAjY8BFgDEGNBQwvWD9crsxugEAAAAAAAAAFy7Ix4AACAASURBVMCocHf7p+gIVIiZW5peKCmNTgEANDYGWAAQwexq7pKvY2W/IToBAAAAAAAAADAK3H7a3zV9fXQGKqd3cVufS8ujOwAAjY0BFgAEsLItjW7AgWvaddgqSbujOwAAAAAAAAAAB8e8zOlXGZAMJZ+T9GR0BwCgcTHAAoDq6+9dPH11dAQO3OqLJw1IuiW6AwAAAAAAAABwUH7Zu7itLzoCldf7ielPye3vojsAAI2LARYAVJm5LoluwChw/So6AQAAAAAAAABw4Dzxf4huQPWceMT0bkn90R0AgMbEAAsAqsm1uayBa6IzcPA8p19HNwAAAAAAAAAADtiv+xbNWBkdgeq5Zr6VE7NPSEqjWwAAjYcBFgBU19f7u+YOR0fg4PUtbL1V0iPRHQAAAAAAAACA/eaeiOvoMqino/UWl74R3QEAaDwMsACgeranGvut6AiMEjM36XfRGQAAAAAAAACA/WT6Ud+ifG90BmIMjS19Qa57ojsAAI2FARYAVInLL+vvOnlrdAdGj0v/Fd0AAAAAAAAAANgv5ZzSL0ZHIM6682bttEQdkjy6BQDQOBhgAUB1DLonX4uOwOjaNaxfSBqM7gAAAAAAAAAA7BuTvntLR9vG6A7E6u3IXyezK6M7AACNgwEWAFSD++X9Xa2PRGdgdBUvzO8w6broDgAAAAAAAADAPtk9nNj/io5AbWgyv1jSY9EdAIDGwAALACpvsNTU9NXoCFSGy/8jugEAAAAAAAAAsE/+de2i1vujI1AbVi/KP+3yC6M7AACNgQEWAFSa2xVrF057ODoDlZGY/1xSGt0BAAAAAAAAAHhVTw43D/1DdARqS1/njB/L7LvRHQCA+scACwAqa6Apzf1TdAQqp6ej7TGXbojuAAAAAAAAAAC8Cre/u3XB7C3RGag9u4b8EybdFd0BAKhvDLAAoKL8X1ZfMPWh6ApUlsn/PboBAAAAAAAAAPDyXNo44ZHHlkV3oDYVL8zvSBP/mKRydAsAoH4xwAKAynky9XH/OzoClTemlP5I0u7oDgAAAAAAAADAS1mqi1csObsU3YHa1bdoxkqZvhrdAQCoXwywAKBCTPqn/q6Tt0Z3oPJu/vjMZ+T6TXQHAAAAAAAAAGAvpl8VFud/FZ2B2rfrcH1R0proDgBAfWKABQCV4Lrn6cGWb0RnoIoS+0F0AgAAAAAAAADgRXYnZbsoOgL1oTg/P5Sk9ueStkW3AADqDwMsAKgAk336roumcCVdhuw63H8q6cnoDgAAAAAAAADACHP9c8/i1k3RHagfe/68dER3AADqDwMsABh91/V2tf5HdASqqzg/P2TSVdEdAAAAAAAAAABJ0t3jW8b/c3QE6k+hM3+1TJdFdwAA6gsDLAAYXeXUk7+OjkAMs3RZdAMAAAAAAAAAQDK3v1qxYPJgdAfq0zMDLZ+S1B/dAQCoHwywAGAUufTN/q7p66M7EKOno22d+IQMAAAAAAAAAEKZ9KPertZroztQv+66aMru1NNzJW2NbgEA1AcGWAAweh7KDbb8bXQEYpkZxxIDAAAAAAAAQJytuXITN1XgoPV3td3t0nmS0ugWAEDtY4AFAKPEZJ/suWjKtugOxMptP/TfZHoqugMAAAAAAAAAssjMPr36gqkPRXegMfR15n8u2RejOwAAtY8BFgCMApN+0dvZ+tPoDsRbffGkAUv17egOAAAAAAAAAMig63oXTefrsxhVhY7p/yDXD6M7AAC1jQEWABy87d6ULo6OQA1JcpdJKkdnAAAAAAAAAECGbM+Vk4Uy8+gQNBgz3z2utFDSbdEpAIDaxQALAA6af7pwftvm6ArUjt6OafdK+o/oDgAAAAAAAADIDLfP3XLB9PuiM9CY1p03a2cpsf8h6YnoFgBAbWKABQAHw/SrQkf+W9EZqEX+5egCAAAAAAAAAMgCl64vPDJ9aXQHGtvaRa33m+nPJA1GtwAAag8DLAA4cFuUSzs5zhgvp9A5o+DS9dEdAAAAAAAAANDgtpQTW6AllkaHoPH1duRvMtd5kvjzBgB4EQZYAHCgTJ/k6kG8moRTsAAAAAAAAACg0rrWLmq9PzoC2dHblb/GzT4f3QEAqC0MsADgwPyg0JH/fnQEaltvR/43MuuL7gAAAAAAAACABvWdQmf+6ugIZE9fR+tXJf9mdAcAoHYwwAKA/bepJZe7IDoCdcDMXfpidAYAAAAAAAAANKC7W3K5i6IjkF0nTsxfJNd/RncAAGoDAywA2D+7E0s+vHLhtO3RIagPfR2tvzCpJ7oDAAAAAAAAABrIcOr6KF+rR6Rr5lu5aedh58p0Y3QLACAeAywA2C/2uZ6O6f3RFag3zilYAAAAAAAAADBK3Oz/7u/K88JXhFt98aSBZKDlvTLri24BAMRigAUA++6nhY7pl0ZHoP70ds74tUy/j+4AAAAAAAAAgHpn0s/6Fk3/enQH8Kyei6ZsS9PcOZKK0S0AgDgMsABg39yRDLZ8TGYeHYI65fqMpDQ6AwAAAAAAAADqlUl3lX3sX/K1etSa/q6pTzaXS2+X687oFgBADAZYAPDatiapva/noinbokNQvwqd+Vtluiq6AwAAAAAAAADq1IBZ+mf9XSdvjQ4BXs6qC2Y9bknuHEkPRLcAAKqPARYAvLpUqf9Fz+LWTdEhqH+5UvI3kgajOwAAAAAAAACg3risq6ejbV10B/Bqejum3WuWO8uk+6NbAADVxQALAF6FSZ8tLJ7xn9EdaAy3XDD9Ppl9NboDAAAAAAAAAOqJub7a19n6vegOYF/0dky7t+x6q6S7o1sAANXDAAsAXoFLV/R25i+J7kBjadp+6D9Juje6AwAAAAAAAADqxK9POKL1C9ERwP7o78o/oKb0bJPuim4BAFQHAywAeHm/cx+4IDoCjWf1xZMG3PSp6A4AAAAAAAAAqHUubUx97LnXzLdydAuwvwrnt202K50taVN0CwCg8hhgAcBL3Zb62A/2d80djg5BY+rryP9Msv+K7gAAAAAAAACAGvZ0muh9/V0nb40OAQ5UT8esBxNL/0SutdEtAIDKYoAFAC92b+p2Dp/QodJKuaRL0pboDgAAAAAAAACoQUNm+tCaRXmub0Pd6+loe2xXSW+V9LvoFgBA5TDAAoDnPem53Dn9Xa2PRIeg8a1dOO1hd30+ugMAAAAAAAAAaoxLOr+3I39ddAgwWooX5nc8M9jypyb9KLoFAFAZDLAAYMQ2S9Nz+hZOuzM6BNnR19naLdmK6A4AAAAAAAAAqBUmfabQmf9BdAcw2u66aMru8Q8//mG5lke3AABGHwMsAJB2KbX39i5u64sOQcaYuZrK50l6OjoFAAAAAAAAAMKZLuvtzF8SnQFUyoolZ5cKna0LTf55jZz2BgBoEAywAGTdLil5d2Fx643RIcimwvltm93UFd0BAAAAAAAAAKFM/1Z4qPUT0RlAxZl5b+eML0v6C0m7o3MAAKODARaALBtQqvcVOqffEB2CbOvryP/IpKXRHQAAAAAAAAAQwaSfTXjo8b/UEkujW4BqKXTmf5C6/pukJ6NbAAAHjwEWgEwyaUfi/p7C4vzvo1sAScrtOOxTkorRHQAAAAAAAABQTS77zdODLeeuWHJ2KboFqLb+rvzN5URnyHVndAsA4OAwwAKQRVtd6Tt7umZcHx0CPGv1xZMGJJ0raSC6BQAAAAAAAACqwrR6YNj/7K6LpnANGzJrzaL8XS1NuXZJP41uAQAcOAZYALLmydTt7YXOtlXRIcDeCp35otw+Hd0BAAAAAAAAAJVnq5KBlncVL8zviC4Boq1cOG174eHWD5rrS5I8ugcAsP8YYAHIDJPuz1n61v6u1jXRLcArKXS1XibXD6M7AAAAAAAAAKCCbmrJJe/quWjKtugQoGYssbS3K7/EpfdL2hqdAwDYPwywAGTFbcO53Jm3dLRtjA4BXkvTzsMWSOqN7gAAAAAAAACA0ebS9bvHls5ZuXDa9ugWoBb1deZ/7rncPEnF6BYAwL5jgAWg4bl0fepj37Z24bSHo1uAfbH64kkDGtb/kPRAdAsAAAAAAAAAjB5bMTCs9607b9bO6BKglvUtnHbnhObxc2W6NLoFALBvGGABaHTfGZiod/V3ncxRragrhQvzjyaWvlcSrwIDAAAAAAAAUP/cfjKhedw5xQvzO6JTgHqwYsHkwUJH/q9c9mFJXNcJADWOARaARuXm+lKhM7+gOD8/FB0DHIiejrZ1SjVfUim6BQAAAAAAAAAOwncmPPLYuSsWTB6MDgHqTV9n61WlxGZKuiW6BQDwyhhgAWg4Ju1w6f29Xfkl0S3AwSoszv9Kss9EdwAAAAAAAADAATH7+0JnfsGKJWfzQlPgAK1d1Hr/rol6m2RfllSO7gEAvBQDLACNZoOlmtfXmf95dAgwWgqdrV+X+9eiOwAAAAAAAABgP5Td/BOFjta/iw4BGkFxfn6o0Nn6eU/8bZLuju4BALwYAywAjcP1/d1jS6f3LM5viE4BRluhM3+x3L4R3QEAAAAAAAAAr2XPTRUf6OuYwdc0gVHWt2jGyqYdh7XJdKkkj+4BAIxoig4AgFEwYGaf7O1svSI6BKgYMy+4f7J92cYWyTuicwAAAAAAAADgZbk2y/29fYtn3BadAjSq1RdPGpD0V3OXbfi1pX65TJOimwAg6zgBC0C9+4OlfkZvB+MrZICZFzqmd8nVHZ0CAAAAAAAAAC/j1iQpndnL+Aqoir6O1l+kGpgm2ZcllaN7ACDLGGABqGN+VUsuN5dP5JApZl54pPUCk74XnQIAAAAAAAAAzzLpe007Djuzp2PWg9EtQJb0d83dVehs/byUvlXShugeAMgqBlgA6o5JO9y1uNA548MrF07bHt0DVN0SS0+Y2LrAZf8enQIAAAAAAAAg84Yku7C3M3/enmvRAAQodLat2jVRsyV9UdJgdA8AZA0DLAD15iZL7Y/6uvJLo0OASNfMt3Jfx/SPuvwr0S0AAAAAAAAAMushS5OzCp2t34wOASAV5+eHCp35/5VYaQo3aQBAdTHAAlAvtpt0QaGj9W09i1s3RccANcHM+zpnfE7SZyV5dA4AAAAAAACATPltYumc3sXTV0eHAHixno5ZD/Z25s9z6d2SeF4NAKqAARaAevDbUmJtvZ35y2XGyATYS6Ez/79d9hFJu6NbAAAAAAAAADS8YZN/vvBw67t6Otoei44B8Mr6OvO/fGawpU2uL0jaHt0DAI2MARaAWrZNpq5CR+s71y5qvT86BqhlfZ2tV0np22V6KroFAAAAAAAAQGMy6X5P/v/27j1Ir/Kw7/jvObuSEBdhYYzBYGzAGKQVNyNxTwO+JB0ndpPM2HVnOk5tI8mOXdK4ndRu2kRJ606d9DJxgwkX48Zp6kY4bZ3gkPgSE8egy0qIi1bICIMMAnERBgECXfY9T//Q2o4xNnCQdLTaz2fmzLAL2v1JM6x23/f7PqdesnLRvE9mSWn73gO8sLsvO3nH6OKR/1R2Nick5ZNJdva9CeBAJMAC9lf/N8PtvNGFI1c59QpenNFFp91cS7m4JIJFAAAAAGCPKskfD+pBZ6y6dN5NfW8BXrqVH5nz2OiiuR9r6+CMknyx7z0ABxoBFrB/qVmbNm8dXTTyS6PvP+3+vufAZLPq0rlrs7M5O8kNfW8BAAAAAA4ID5dafnHlopH3rl580ta+xwAvz+rFp69fuWjkF9KWn04iqATYQwRYwP7i8aT8i0M2P3LW6AdHvtb3GJjMVn5kzmOjC+f+XEn9WJJB33sAAAAAgEmq5Lq2Ds9buXju/+t7CrBnjX5w7jdGF41clJS3JVnZ9x6AyW647wHAlDdekj8cavJbyy6d+92+x8ABo5S6MvnkgqvWrU7q/0ryqr4nAQAAAACTxuZS86srF41c1/cQYO8aXTT3q0m+uuAP174jTfmdJGf2vQngZau5PyVL9+WnFGABffpKkl9buWhkrO8hcKAaXTT3q+defdub2jrtT5N6Qd97AAAAAID9WluTq8an7fz4re8764m+xwD7zugH5/1Far1+/tXr3lGSjyc5r+9NAC/RA0m+kLRLRxfNW5ZS6r785C8YYNXkj0vyS0mO3Qd7gKnhplLymysXjvxN30NgKlix8IxNZ1+56uKhzPyNWvJvkkzrexMAAAAAsJ+pWZvSLl616LSb+54C9KSUuir58yR/fs7VY2+uNR9L8ra+ZwH8BJtr8oVas3T15rk3Z0lpkySL9v2QFwywVi0auSzJZQuuGjuzlry91PJzST03ydDenwccYJY3tf2tFYtP+3LfQ2CqWb14/q4kS+ZfM/bF0uazSc7oexMAAAAAsF94PDVLDtn8yKdvXHLJeN9jgP3DxEEKf7PgqrULSsqv1+QXoxEA9gclD6XW/5MMLR198NS/+3501bMXfQvC0UUjtya5Ncl/PP+asSMGg7ylJm9Nk3em5ui9NxGY7GrK7U2t/2Hlorlf2NfH/AE/bNWlI2suXvL1+c+85lX/sqb8TpLpfW8CAAAAAHrRluRPhgfj/+rmD53xSN9jgP3T6KJ5o0neddZn1r9m2vhgUS3550mO6HsXMOWsS8pfJPnqIQ88fOP+GI2/6ADr71t26ch3k1yX5Lp3La2/svGJteeW2vxcLXl7kjP36EJgMrslbV2yavHc61NKzeK+5wBJMvENySfnXzP25bTlf5TU0/veBAAAAADsU3/dlPbXVyw87fa+hwCTw5oPnPpgkiUXfmb9f9k1GPyzJJfV5A09zwIOXM+k5ms1+dJQM/6lFQvP2NT3oBfSKcD6+657dxkkuXni+o3zr/jWseNDu95eU97eJG+tyaEveyUwmdSS3FBT/tvowjlfSyk1H+x7EvB8Vl06smZk6diCmVvLr5Za/22SWX1vAgAAAAD2olJWldR/PXFrMYCX7KYPnPpUkv+eJfXyc49Z+9a2NB9M8o7sgfYAmPLuS8mXasr105467OvLPvraZ/se9FLs8S+Cyz50ygNJrk5y9cjSsekHf7ecl6a+Jclbkpy7Nz4nsF94piafq3Xw+6sXn74+SbKo50XACxp798jOJL937tV3fG5Qm0+U5H1Jmr53AQAAAAB71F1J/t3opXOuSym17zHAAWBJaVckX07y5d2HtIx/IMnCJMf1vAyYPNqUrKjJ9c2gfmnlB+fd1vegl2OvxlATT+p+Y+L6rZHLxw6dOb38g9T6lrI7yDo9SdmbG4C97sEkf1B2NleNfmTOY32PAbpZsfC0h5Nceu7Vd17R1vb3k1zY9yYAAAAA4GVbn5JPvP7wuZ+/7t1l4IXTwN4wcUjL77xraf3EvVvv/NlS6y8neWeSg3qeBux/7qvJV5Ly1VqHvrp60Slb+h60p+zT06jGPjzydJK/nLhy1rUbXjU8vvOS1LyllLzZPWJhUrkpJX/4zOFZOhFbAgeAFQvnrE6tPzX/mrH3lFo+keSEvjcBAAAAAC/ZulLziZWb5/7vLCntaN9rgCnhuneXQSZ6gIs+ffvsHUPD7yml/nLdfacsYGp6siRfb2u+muGhr6z6wKnf6nvQ3tLr7QDXvP/kR5Msnbhy1jXrXjfU1reU5M0peUtqju5zH/AjHi41nxtkcO33bzMIHHhKqauSz5995aovDDUHv7fW+hsRYkE/Sh4qNSvaOri37ykAAADA/q8k32yT31v14Nzrs6S0fe8Bpq5v/srpjye5IskV8z+z/pS0g/eUmvckObXnacDe9WySZan1xjqUvzl006MrblxyyXjfo/aFXgOs51pz6dzvJLl24sqCq8ZGJk7H+qmaXJDkNb0OhKlpPDU3lJRrB3nmS6sXz9/V9yBg35j4//0zZ1+56nNCLNgndiVZk5LlNXV5k+HlKxeeKrwCAAAAXsggtXyx1PKfV35wzrK+xwA818SJN7+d5LcXXDV2Zk39J03KP67J6/reBrxsO5IsLzU31tJ8/fHtw8vvvuzkHX2P6sN+FWA91+iikbEkY0k+lSTnXL3+hJrBhUkuSM1FSUaSND1OhAPZ+tT8UZvyR6sXz93c9xigPz8UYuXgX66pH0/JiX3vggPAppIsT7Kspl1+yLRDb7nxfSds73sUAAAAMGk8UGquKc34NSsWnbGp7zEAL8boopFbk9yaWj927jXr31Tb9h01eWdKzup7G/CiPJtkZUr5Rkm9ceipWcuWffS1z/Y9an+wXwdYzzVxAsC9Sf5nkpx95bcPL2X7BaWU82utF5XknCSH9DoSJrGa3FlK+ULblutWL55zR997gP3LRIh1TZbUa+cfu+4dpeayJG/uexdMEg8kZU3S3ppS1zRpV65Y6IFRAAAA4CVrS/JXbclVJxw+9/rr3l0GfQ8C6KSUuiJZnd3XkgXX3vHa7Br6+ZT6j5JcnGRGr/uA79lSkptq8s3SNjcNyrZV7pr1/CZVgPVcqxeftDXJDRNXLl7y9eFnjj7yzNoMXZjUC5JcFLcthJ+oJneW5LralOtWXTp3bd97gElgSWlXJV9M8sX516ybV9pcltR/mmRm39NgP9AmuTs1a0qpa0qta4ba9tabP3TGI30PAwAAACa1zbXk2uHx5prlH5qzMUlW9TwIYE8aff9p9ye5IskVI5ePHTpzWv3ZJO8sKW9PcmS/62DqKMndtZSbSptvNs3gpuWXzlufUmrfuyaDSR1gPdeNSy4Zz+7vN1cl+f0kOe+KO18/GGp3B1m1nJ+SeUmm9bkTelaT3FJqrm+HyhdEV8DLMfE1ZNE5f3DnxzOtfqCW+r4kp/a9C/aRnUnWluTWtmZNhuqaGWX49ps+cOpTfQ8DAAAADgjPJLm+1PL5QZ750upFTpsApoaxD488neTPkvzZu5bWoe9sXXdBrfVnknJJdt8Vy/P9sGdsTbIyqStK6opBnb589eJTtvzQf7Gwn2GT0QEVYD2fiVcBbEzyJ0ly/n+9f+bg4KfPTNPOT7KgTeaX5JQkTX8rYa97PMlXktyQXfmr0Q+PPNT3IODAsvIjcx5L8rtJfvfcq9ed16a+NzXvSTK752mwJwxKcm+brG1q1rVNXdsMsm5Qtq9zzC4AAMCUdWuS7UnOjieB2bO2p5a/TJOlO2bsuv72956xre9BAH2auNXq301cOf1ztx0y89nmwrZpLknNxUnmZwp0D7AHDGrKWKl1eZosbwZZseKhueuzpLR9DztQTLkvRMs++tpnkyybuJIk535qw6zBzO1vSoYWlNQFqXlTkhOTlL52wstUk9yW5IZScsPBDzyybOKEOIC9bsXCucuTLH/Dpzb82hEzdr6zlvLepP7DTMHvO5h02iT3JhlLybrUrK1N1h06dPCdN77vhO19j9ufNW17e22GPtn3Dtj36o6+F8AeU+rnU8uKvmfAvlZqWd73BmCSKuUvRhfO/c2zr1x1cFMOWVBqvSilXlCTC5K8ou95TDo7UvPllPzp9KGhP3e6NsCPNxGmfnniyoWfWX/Yjrb9qVLrJSnl4tR6VpKhXkdC/8aT3JlSbklbb2mTW7aP59axD899uu9hBzKB0Y9x7qc2zKozd55R25yV5MyUnJVkJF7Jwv6ppmYsKX+bUr+RXfmGU66A/cn514wdMajl52utv5DkZ5Mc3PcmprQ2NRuTjKWUdTUZqzVj07cddudErA8AALxIC64auz3JaX3vgH2ulH8/unDub/7I+5fUZv5xd85t2npRrbkwJRcmOWHfD2QSeCQ1Xy7JDTun7/zLW9931hN9DwI4EJz52TWvmL5zxoVJXVBLzkmyIMmRfe+CvWhXatbWkltKyi1NyS3NU4fd5vmOfU+A9RKMLB2bPvPJjGQiyiq7g6zT4ws2+94gyW2p9Rslzd9mV/m7idt/Aez3zr5y1cFDOfhn2tL+Ykn5+SRH9L2JA9YjJbkryV21ZkMtdcNQqRuap16xwQ8eAACwZwiwmLJ+XID1PM76zPrXDA8GF6XkwtRcmOSMOCl8KhpPyc01+evalr9avWjOmpRS+x4FMBUsuPb2E+v48DlNck5SF9TkTfFCcSajkodSc0dKbk/N2qY0dzx9eHvH2LtHdvY9DQHWHnHBFbcdtasMn5aSkZQyL6XOS81Ikll9b+OA8WBJRlPLaMlgdDwHr1i9+KStfY8CeLnetbQO3bf1zgVtzVtT6ttSc36cNslL80SSDSnZUJO7knpXM6gbBuXgDf6uBACAvU+AxZT1EgKs5xq5fOzQQ4frgrY0F9bU80pyfrxA7cBU861ScmNS/rpsn/a1FZed/GTfkwBILl7y9eFnjn7VSG1yTtIsKKmn12RuksP63gYTtiVZl1JvS23WllLvGLTDt69efMqWvofx4wmw9qLzrrjz9ePDdW5p65wkb0wpb0ypp6bm6L63sV97IsloqRlNyuhQOzS67EOnPND3KIB9YeTysUMPGS4/XUt9W5Kfzu4H8d2rfaoreSw1G0tyb/1ebFXqXYNmxl1r3n/yo33PAwCAqUyAxZT1MgKsH1FrOe+ataeO1+b8JrmwJuclOTVJs0c+PvvK9pKsqik31dSbax2+2ZOkAJPL957fb9rMS6nz6u47Ys1JMrPvbRywHk2yPinrk3pXqeXOQQbrV2+ed2+WlLbvcbw0AqwenH3ltw8vQ9tPSVtOaWo9NSVvbFPeWFLfEEcdTiXbk6yrqWub2oy1pd5Ra8ZWLx65r+9hAPuLkcvHDj1kes6ptVzgFaEHtEeTbCzJd2qysdZ8pyntxrYZ2vjsjrpx7MMjT/c9EAAAeH4CLKasPRlgPY9zP7VhVmbsOLumWVBLPSfJgiTH763Px0tWk9yT5NaS3Jy2WbbtiHa12/8AHHjetbQOffvJdScMt+W01Mytpc5JyYmpOSnJUX3vY1LYleTektzZpn4rKd9q2ubOoeH2W8suHflu3+PYcwRY+5kFl48dnWntiTVDJ6XUE1PriU3KiTU5Mclr+t5HJ4+m5O5a64aSZkPKGBzyxwAADtlJREFUYF0zGLrj+CPm3HPdu8ug73EAk0qtZf6133pjBu1ZJTkzqWem5AynS+73Hi7Jxpp8p6ZuLGm+U0s2Dg3qxvHy7MbVi+c/0/dAAACgGwEWU9ZeDrCez7lX3/HqWrOgplmQmrNSclqS1+/LDVPUU0m5o6benppbS2nvmD407Y6bPnDqU30PA6BfF35m/WE7B4OTUnY/v9/UelLNRJxVcnyS4b43ss88WpJ7auq9pZZ70pR7knpvM97c89pXnnq/LmBqEGBNIhd/9t6Dnt3xzIm1lBNqU49NynG1tq8rKcclOS7Ja+P4wz7sTPJASu5PzT2llrtrk7ublLvH2+l3r1580ta+BwIc6BZcPnZ0mVbPqLXMy/du+5t6SpJj+t52gHs8yeaUbC41D7apm0uaB1PyUNvWB+pQHprx5KwHln30tc/2PRQAANg7BFhMWT0EWM/n7Cu/fXiy/bSmlNNL6um15PTUzEtyWN/bJplBar5TS7m7pL271txdau7O9HZs9H2n3ZtSat8DAZhczr5y1bRkxvFNHTo2Q/X4mnJMqfXYkhxbU16T1OOSHJ1ket9beUHjSR5Kyn1J3ZxkU0nuSy33pLb3Tps2fI8wm0SAdcA569oNrxpqdx5XxutxaZrXllqPakte3STH1JRXpdajU3J03OrwxXo8ycNJHk3Ng2myKbXcX5L7atpNbW02rV405yE/fAHsn8791IZZdfr2N7ZD5eTSltelyfG15viy+9Whx8eDkT/OliQP15QHkvahUsqDabO5NnkwpW4uTbt5+InZm4VVAACAAIspaz8JsJ5XrWXBZ+84oY4PndIkb2iTk0vyhuy+Xp9kWr8De/Fskk0p2Zya+0vNgzXZVJtyd1PL3dte0W50+0AA9rlay4JPr3t1nZFjdj+/n6NLbY5KySuTemRNjkzyyiRHleTImhza9+QDzCC7nw95LMlDNXVTU8umdvcLz+8rqZvb2mxavXnOw1lS2p63MgkIsKao0z932yHTnm2ObkpeXerQUUmObJvMLrXOrsnskhyRZHZKmZ1aZ+d7b09e21PyRGqeSPJEksdryhOl1CdKm8dr8t3SlEfbWh9Nk4em7Rp+5MlXjj/qBy6AA9tFn7599q5m6JjBUHtU0zavaZtyVEl9dVKOSc0rkzq7JkeUktmpOSKT65Uo4ynZmjZbU/JETbYm2Vp2/z24paRuSWm2pM1jg9Qt05r2sWa8fezYV57+mKNwAQCAF0uAxZS1PwdYP8HFS74+/NQxR76uqc3JteQNpcmxux8HqUfVlGNLqUel5qgkTd9bX8BTE9djNdnSJI/VkkdT62O1NI+l5rHS1kfrcNk0LfXBZZeOfLfvwQDwcl382XsP2rF95ysHZdeRNeXIUnJEmjKrbdtZpZTDkhyWmllpMnv3P5dZSd39/uTw7D6kZUafv4e9pCZ5IjVPp2RbkifL98OqsqUtdUuT8nCbuqW2eSwZbElmbFm9+JQtPe/mACPA4iW56NO3z942Y/rM4bLzoHbX8CuGaplRm3pISQ6rJdOTenhqmVnSHpTaDNfynJNFSp2VNkM/eDvTUzOc5Jnvv6tkZ03Z9oNf1O4qydPfe6vWMp4mPzjCr2ZnqdmWUp+sGdrelDxda54a1Hb7zMHgqWeHdj69evH8XXvjzwOAqeX0z912yIynhg/LzMHB7a5phww3md4O2leUpg6nllltKQeVUmeWmkOTOq2m+aF4udTa1N0/5LywJoPU8uTf+7WDlPpkW5odJfWZ0ubpJLvapjwx1LbjaYaeLBl/Zkczbetg2o6tt7/3jG0/4aMDAADsEQIspqxJGmC9GO9aWoc2PrruVc309qhBbY4tpcza/dh/ZtWSQ0otM1PqzLQ56MV8vFrSlpStz//v6rNNrdt/6HH/midKTW2bsq3Usq0peXpXabeWQdk2vGPathWXnfzk830sAODFGbl87NDZZTBtvEw7fDBjV9MMps1u66BJmsPT1uEy8Rx/W3JYKRlOktQyXNJ+/7n/3adxNT84VbPU4bQd7jpSyuM/eONHuoBn02R7aUub1K215qkylG2Dtmxrpo0/MW1HfXpHs+vp1YvnP/N8Hxr2NQEWAAAAAACdCLCYsg7gAAsAAHjp9vcjZAEAAAAAAAAAAPZbAiwAAAAAAAAAAICOBFgAAAAAAAAAAAAdCbAAAAAAAAAAAAA6EmABAAAAAAAAAAB0JMACAAAAAAAAAADoSIAFAAAAAAAAAADQkQALAAAAAAAAAACgIwEWAAAAAAAAAABARwIsAAAAAAAAAACAjgRYAAAAAAAAAAAAHQmwAAAAAAAAAAAAOhJgAQAAAAAAAAAAdCTAAgAAAAAAAAAA6EiABQAAAAAAAAAA0JEACwAAAAAAAAAAoCMBFgAAAAAAAAAAQEcCLAAAAAAAAAAAgI4EWAAAAAAAAAAAAB0JsAAAAAAAAAAAADoSYAEAAAAAAAAAAHQkwAIAAAAAAAAAAOhIgAUAAAAAAAAAANCRAAsAAAAAAAAAAKAjARYAAAAAAAAAAEBHAiwAAAAAAAAAAICOBFgAAAAAAAAAAAAdCbAAAAAAAAAAAAA6EmABAAAAAAAAAAB0JMACAAAAAAAAAADoSIAFAAAAAAAAAADQkQALAAAAAAAAAACgIwEWAAAAAAAAAABARwIsAAAAAAAAAACAjgRYAAAAAAAAAAAAHQmwAAAAAAAAAAAAOhJgAQAAAAAAAAAAdCTAAgAAAAAAAAAA6EiABQAAAAAAAAAA0JEACwAAAAAAAAAAoCMBFgAAAAAAAAAAQEcCLAAAAAAAAAAAgI4EWAAAAAAAAAAAAB0JsAAAAAAAAAAAADoSYAEAAAAAAAAAAHQkwAIAAAAAAAAAAOhIgAUAAAAAAAAAANCRAAsAAAAAAAAAAKAjARYAAAAAAAAAAEBHAiwAAAAAAAAAAICOBFgAAAAAAAAAAAAdCbAAAAAAAAAAAAA6EmABAAAAAAAAAAB0JMACAAAAAAAAAADoSIAFAAAAAAAAAADQkQALAAAAAAAAAACgIwEWAAAAAAAAAABARwIsAAAAAAAAAACAjgRYAAAAAAAAAAAAHQmwAAAAAAAAAAAAOhJgAQAAAAAAAAAAdCTAAgAAAAAAAAAA6EiABQAAAAAAAAAA0JEACwAAAAAAAAAAoCMBFgAAAAAAAAAAQEcCLAAAAAAAAAAAgI4EWAAAAAAAAAAAAB0JsAAAAAAAAAAAADoSYAEAAAAAAAAAAHQkwAIAAAAAAAAAAOhIgAUAAAAAAAAAANCRAAsAAAAAAAAAAKAjARYAAAAAAAAAAEBHAiwAAAAAAAAAAICOBFgAAAAAAAAAAAAdCbAAAAAAAAAAAAA6EmABAAAAAAAAAAB0JMACAAAAAAAAAADoSIAFAAAAAAAAAADQkQALAAAAAAAAAACgIwEWAAAAAAAAAABARwIsAAAAAAAAAACAjgRYAAAAAAAAAAAAHQmwAAAAAAAAAAAAOhJgAQAAAAAAAAAAdCTAAgAAAAAAAAAA6EiABQAAAAAAAAAA0JEACwAAAAAAAAAAoCMBFgAAAAAAAAAAQEcCLAAAAAAAAAAAgI4EWAAAAAAAAAAAAB0JsAAAAAAAAAAAADoSYAEAAAAAAAAAAHQkwAIAAAAAAAAAAOhIgAUAAAAAAAAAANCRAAsAAAAAAAAAAKAjARYAAAAAAAAAAEBHAiwAAAAAAAAAAICOBFgAAAAAAAAAAAAdCbAAAAAAAAAAAAA6EmABAAAAAAAAAAB0JMACAAAAAAAAAADoSIAFAAAAAAAAAADQkQALAAAAAAAAAACgIwEWAAAAAAAAAABARwIsAAAAAAAAAACAjgRYAAAAAAAAAAAAHQmwAAAAAAAAAAAAOhJgAQAAAAAAAAAAdCTAAgAAAAAAAAAA6EiABQAAAAAAAAAA0JEACwAAAAAAAAAAoCMBFgAAAAAAAAAAQEcCLAAAAAAAAAAAgI4EWAAAAAAAAAAAAB0JsAAAAAAAAAAAADoSYAEAAAAAAAAAAHQkwAIAAAAAAAAAAOhIgAUAAAAAAAAAANCRAAsAAAAAAAAAAKAjARYAAAAAAAAAAEBHAiwAAAAAAAAAAICOBFgAAAAAAAAAAAAdCbAAAAAAAAAAAAA6EmABAAAAAAAAAAB0JMACAAAAAAAAAADoSIAFAAAAAAAAAADQkQALAAAAAAAAAACgIwEWAAAAAAAAAABARwIsAAAAAAAAAACAjgRYAAAAAAAAAAAAHQmwAAAAAAAAAAAAOhJgAQAAAAAAAAAAdCTAAgAAAAAAAAAA6EiABQAAAAAAAAAA0JEACwAAAAAAAAAAoCMBFgAAAAAAAAAAQEcCLAAAAAAAAAAAgI4EWAAAAAAAAAAAAB0JsAAAAAAAAAAAADoSYAEAAAAAAAAAAHQkwAIAAAAAAAAAAOhIgAUAAAAAAAAAANCRAAsAAAAAAAAAAKAjARYAAAAAAAAAAEBHAiwAAAAAAAAAAICOBFgAAAAAAAAAAAAdCbAAAAAAAAAAAAA6EmABAAAAAAAAAAB0JMACAAAAAAAAAADoSIAFAAAAAAAAAADQkQALAAAAAAAAAACgIwEWAAAAAAAAAABARwIsAAAAAAAAAACAjgRYAAAAAAAAAAAAHQmwAAAAAAAAAAAAOhJgAQAAAAAAAAAAdCTAAgAAAAAAAAAA6EiABQAAAAAAAAAA0JEACwAAAAAAAAAAoCMBFgAAAAAAAAAAQEcCLAAAAAAAAAAAgI4EWAAAAAAAAAAAAB0JsAAAAAAAAAAAADoSYAEAAAAAAAAAAHQkwAIAAAAAAAAAAOhIgAUAAAAAAAAAANCRAAsAAAAAAAAAAKAjARYAAAAAAAAAAEBHAiwAAAAAAAAAAICOBFgAAAAAAAAAAAAdCbAAAAAAAAAAAAA6EmABAAAAAAAAAAB0JMACAAAAAAAAAADoSIAFAAAAAAAAAADQkQALAAAAAAAAAACgIwEWAAAAAAAAAABARwIsAAAAAAAAAACAjgRYAAAAAAAAAAAAHQ33PQAAAAAAgElrU2oO6XsE7Gu1to/3vQEAANh//H+EMs5SVfSsDwAAAABJRU5ErkJggg==" parent="1" vertex="1">
          <mxGeometry x="820" y="414.8999999999999" width="79.06" height="32.35" as="geometry" />
        </mxCell>
        <mxCell id="HsBqYYypXnQ4gRw45o31-30" style="edgeStyle=orthogonalEdgeStyle;rounded=0;orthogonalLoop=1;jettySize=auto;html=1;entryX=0.75;entryY=1;entryDx=0;entryDy=0;shape=link;flowAnimation=1;" parent="1" source="HsBqYYypXnQ4gRw45o31-28" target="Jx5W27o9Ek6RV-WZzhhY-142" edge="1">
          <mxGeometry relative="1" as="geometry">
            <mxPoint x="860" y="555" as="sourcePoint" />
            <mxPoint x="860" y="453" as="targetPoint" />
          </mxGeometry>
        </mxCell>
        <mxCell id="cmcLN45IIInBLXe3-u5D-2" value="Community" style="rounded=1;whiteSpace=wrap;html=1;" parent="1" vertex="1">
          <mxGeometry x="1060.5" y="483" width="120" height="47" as="geometry" />
        </mxCell>
        <mxCell id="cmcLN45IIInBLXe3-u5D-3" value="" style="shape=image;verticalLabelPosition=bottom;labelBackgroundColor=default;verticalAlign=top;aspect=fixed;imageAspect=0;image=https://images.ctfassets.net/gt6dp23g0g38/5DqlQtFKecFlkqQ8YGDT2p/aa945b648f44dd872e9a1b89f7d203ef/springboot.png;" parent="1" vertex="1">
          <mxGeometry x="1060.5" y="483.00333333333333" width="23.546999999999997" height="21.15" as="geometry" />
        </mxCell>
        <mxCell id="cmcLN45IIInBLXe3-u5D-11" style="edgeStyle=orthogonalEdgeStyle;rounded=0;orthogonalLoop=1;jettySize=auto;html=1;entryX=1;entryY=0.5;entryDx=0;entryDy=0;shape=link;flowAnimation=1;exitX=0.022;exitY=0.558;exitDx=0;exitDy=0;exitPerimeter=0;" parent="1" source="Jx5W27o9Ek6RV-WZzhhY-94" target="cmcLN45IIInBLXe3-u5D-2" edge="1">
          <mxGeometry relative="1" as="geometry">
            <mxPoint x="1239" y="444" as="sourcePoint" />
            <mxPoint x="1091" y="410" as="targetPoint" />
            <Array as="points">
              <mxPoint x="1250" y="523" />
              <mxPoint x="1250" y="507" />
            </Array>
          </mxGeometry>
        </mxCell>
        <mxCell id="cmcLN45IIInBLXe3-u5D-12" style="edgeStyle=orthogonalEdgeStyle;rounded=0;orthogonalLoop=1;jettySize=auto;html=1;entryX=1;entryY=0.5;entryDx=0;entryDy=0;entryPerimeter=0;fillColor=#60a917;strokeColor=#2D7600;strokeWidth=3;flowAnimation=1;exitX=0.5;exitY=0;exitDx=0;exitDy=0;" parent="1" source="cmcLN45IIInBLXe3-u5D-2" target="Jx5W27o9Ek6RV-WZzhhY-97" edge="1">
          <mxGeometry relative="1" as="geometry">
            <mxPoint x="1109.27" y="423.5" as="sourcePoint" />
            <mxPoint x="1035.27" y="423.5" as="targetPoint" />
            <Array as="points">
              <mxPoint x="1120" y="410" />
              <mxPoint x="1120" y="410" />
            </Array>
          </mxGeometry>
        </mxCell>
      </root>
    </mxGraphModel>
  </diagram>
</mxfile>
